<svg width="25" height="25" viewBox="0 0 25 25" fill="none" xmlns="http://www.w3.org/2000/svg">
<path d="M8.48052 20.0228L8.98402 20.516C9.15883 20.6872 9.26389 20.9205 9.26389 21.1806C9.26389 21.6945 8.84727 22.1111 8.33333 22.1111C7.8194 22.1111 7.40278 21.6945 7.40278 21.1806C7.40278 20.838 7.58762 20.5363 7.87154 20.373L8.48052 20.0228ZM20.6509 20.0572L21.2382 20.3423C21.5526 20.4948 21.7639 20.8145 21.7639 21.1806C21.7639 21.6945 21.3473 22.1111 20.8333 22.1111C20.3194 22.1111 19.9028 21.6945 19.9028 21.1806C19.9028 20.9205 20.0078 20.6872 20.1827 20.5159L20.6509 20.0572ZM7.57175 13.7778L5.91266 5.66666H6.91007H23.3837L21.5403 13.7778H9.18281H7.57175ZM21.4592 14.1346C21.4592 14.1343 21.4593 14.134 21.4594 14.1336L21.4592 14.1345L21.4592 14.1346ZM5.04265 2.52231L5.04267 2.52239L5.04265 2.52231Z" fill="white" stroke="#ED212B" stroke-width="3"/>
</svg>
