<svg width="43" height="36" viewBox="0 0 43 36" fill="none" xmlns="http://www.w3.org/2000/svg">
<path d="M17.4168 14.7098C17.4168 14.7471 17.3866 14.7773 17.3494 14.7773H10.65C8.43174 14.7773 6.61593 13.0127 6.55247 10.7954C6.54754 10.6228 6.57371 10.4509 6.62919 10.2917C6.68467 10.1324 6.76814 9.98951 6.87385 9.87283C6.97956 9.75615 7.105 9.66846 7.24154 9.61578C7.37808 9.5631 7.52248 9.54669 7.66478 9.56768L13.92 10.4904C13.9205 10.4905 13.921 10.4905 13.9216 10.4905C14.849 10.4935 15.7377 10.9393 16.3928 11.7302C17.048 12.521 17.4162 13.5925 17.4168 14.7098Z" fill="white"/>
<path d="M31.202 8.08721C30.3879 6.87528 28.8289 6.41072 27.4842 6.97942L27.1144 7.13584C25.9072 7.64641 25.2704 8.9772 25.6302 10.2376C26.8471 14.5004 27.1701 18.9415 26.5814 23.318L-nan -nanL26.5814 23.318L28.5184 23.6944C29.4348 23.8725 30.3505 23.384 30.7131 22.5238L32.2735 18.8215C32.7493 17.6926 32.917 16.4576 32.7594 15.2427L32.0936 10.1098C32.0201 9.54311 31.816 9.0012 31.4973 8.52681L31.202 8.08721Z" fill="white"/>
<path d="M36.5036 16C35.5516 16 34.6686 16.3269 33.9411 16.8847C31.9885 18.3821 34.043 20.7901 36.5036 20.7901C38.9642 20.7901 41.0187 18.3821 39.0661 16.8847C38.3386 16.3269 37.4557 16 36.5036 16Z" fill="white"/>
<path d="M35.5152 18.2681C34.6647 16.4992 34.3422 15.4118 34.2365 13.452C33.8577 6.42315 32.4862 5.69226 31.9605 5.67707C31.8188 5.67297 31.6902 5.74126 31.5612 5.79983C30.6663 6.20598 26.9551 7.89764 27 8C30.6217 16.2551 28.1419 25.8308 20.5334 24.0504C20.6656 24.0849 20.39 24.0168 20.5334 24.0504C19.5694 23.8079 19.7182 24.7033 19.153 23.7317C18.5879 22.7601 18.3511 21.5656 18.491 20.3912C19.1432 14.0821 16.4054 13.36 15.6833 13.2788C15.5694 13.266 15.4554 13.2689 15.3407 13.2689H14.2371C11.5756 13.2689 9.03545 12.1561 7.23106 10.1997C7.13114 10.0914 7.01071 10.0142 6.8803 9.97488C6.74989 9.93558 6.61347 9.93535 6.48298 9.97424C6.35248 10.0131 6.23188 10.0899 6.13172 10.1979C6.03156 10.306 5.9549 10.4419 5.90842 10.5938C5.68683 11.3184 5.05361 11.8419 4.34867 12.1196C2.8903 12.6942 0.613991 14.1999 0.589674 18.0053C0.586821 18.4518 0.962066 18.8011 1.40851 18.8011H1.95207C2.13097 18.8011 2.2738 18.9484 2.2818 19.1272C2.28759 19.2566 2.377 19.3657 2.50081 19.4039L11.8537 22.2857C12.839 22.5892 14.1114 22.6531 14.5489 23.5867C14.6519 23.8064 14.7116 24.0568 14.7125 24.3224C14.7132 24.5357 16.0385 21.2225 15.9699 21.4191C15.9013 21.6157 15.8005 21.7936 15.6735 21.9422C15.5465 22.0908 15.396 22.207 15.2309 22.2839C15.0657 22.3607 14.8894 22.3967 14.7125 22.3896C13.5643 22.3435 12.4891 23.1574 12.5934 24.3018C12.7743 26.2858 13.9435 27.4183 15.2309 28.5C16.7995 29.7989 18.5966 29.5552 20.5 29.541H26.0412C29.5366 29.541 31.6028 27.7863 32.7981 26.0152C34.1927 23.9488 36.5955 20.5149 35.5152 18.2681Z" fill="white"/>
<path d="M36.3003 35.1798C39.7799 35.1798 42.6006 31.7817 42.6006 27.5899C42.6006 23.3981 39.7799 20 36.3003 20C32.8207 20 30 23.3981 30 27.5899C30 31.7817 32.8207 35.1798 36.3003 35.1798Z" fill="#ED212B"/>
<path d="M37 33C40.3137 33 43 30.3137 43 27C43 23.6863 40.3137 21 37 21C33.6863 21 31 23.6863 31 27C31 30.3137 33.6863 33 37 33Z" fill="white"/>
<path d="M7.30838 35.1278C11.3137 35.1278 14.5607 31.2162 14.5607 26.391C14.5607 21.5658 11.3137 17.6542 7.30838 17.6542C3.30302 17.6542 0.0560303 21.5658 0.0560303 26.391C0.0560303 31.2162 3.30302 35.1278 7.30838 35.1278Z" fill="#ED212B"/>
<path d="M6.5 33C10.0899 33 13 30.0899 13 26.5C13 22.9102 10.0899 20 6.5 20C2.91015 20 0 22.9102 0 26.5C0 30.0899 2.91015 33 6.5 33Z" fill="white"/>
<path d="M32.675 6.759C30.464 7.74009 27.893 6.5663 27.186 4.25309C27.1167 4.0263 27.0851 3.78529 27.0931 3.54381C27.1011 3.30233 27.1486 3.06512 27.2327 2.84572C27.3168 2.62631 27.4359 2.42902 27.5833 2.2651C27.7307 2.10117 27.9035 1.97383 28.0918 1.89034L31.9044 0.199473C32.2357 0.0525317 32.5877 -0.0143757 32.9404 0.00257321C33.2931 0.0195221 33.6396 0.119996 33.96 0.298255C34.2805 0.476514 34.5687 0.729069 34.8081 1.0415C35.0476 1.35393 35.2336 1.72012 35.3555 2.11915C35.4655 2.47731 35.5217 2.85619 35.5214 3.23807C35.52 3.72296 35.4289 4.20137 35.2548 4.63853C35.0806 5.0757 34.8278 5.46063 34.5147 5.76534C34.2886 5.98392 34.0343 6.1566 33.762 6.27661L32.675 6.759Z" fill="white"/>
<path d="M1.56807 19.6781C2.4341 19.6781 3.13615 18.6512 3.13615 17.3843C3.13615 16.1175 2.4341 15.0905 1.56807 15.0905C0.70205 15.0905 0 16.1175 0 17.3843C0 18.6512 0.70205 19.6781 1.56807 19.6781Z" fill="white"/>
<path d="M30.0174 5.51028C30.4505 5.51028 30.8015 5.08741 30.8015 4.56577C30.8015 4.04412 30.4505 3.62125 30.0174 3.62125C29.5844 3.62125 29.2334 4.04412 29.2334 4.56577C29.2334 5.08741 29.5844 5.51028 30.0174 5.51028Z" fill="white"/>
</svg>
