<svg width="28" height="28" viewBox="0 0 28 28" fill="none" xmlns="http://www.w3.org/2000/svg">
<path d="M21.07 26.8217H23.0066C23.9866 26.8217 24.7916 26.075 24.9083 25.1183L26.8333 5.89167H21V1.16667H18.7016V5.89167H12.9033L13.2533 8.62167C15.2483 9.17001 17.115 10.1617 18.235 11.2583C19.915 12.915 21.07 14.63 21.07 17.43V26.8217ZM1.16663 25.655V24.5H18.7016V25.655C18.7016 26.2967 18.1766 26.8217 17.5233 26.8217H2.34496C1.69163 26.8217 1.16663 26.2967 1.16663 25.655ZM18.7016 17.4883C18.7016 8.15501 1.16663 8.15501 1.16663 17.4883H18.7016ZM1.18996 19.8333H18.69V22.1667H1.18996V19.8333Z" fill="white"/>
</svg>
