<svg width="9" height="14" viewBox="0 0 9 14" fill="none" xmlns="http://www.w3.org/2000/svg">
<path d="M4.5 0C2.01874 0 0 2.01874 0 4.5C0 5.24487 0.186235 5.98342 0.540267 6.63848L4.25392 13.3549C4.30336 13.4445 4.39756 13.5 4.5 13.5C4.60244 13.5 4.69664 13.4445 4.74608 13.3549L8.46112 6.63626C8.81379 5.98341 9 5.24483 9 4.49996C9 2.01874 6.98126 0 4.5 0ZM7.96755 6.36629L4.5 12.6376L1.03384 6.36877C0.72539 5.79802 0.562537 5.15175 0.562537 4.5C0.562537 2.32882 2.32886 0.562514 4.50002 0.562514C6.67118 0.562514 8.43751 2.32884 8.43751 4.5C8.43749 5.15175 8.27461 5.79802 7.96755 6.36629Z" fill="#686666"/>
<path d="M4.49999 2.24997C3.25937 2.24997 2.25 3.25934 2.25 4.49996C2.25 5.7406 3.25937 6.74997 4.49999 6.74997C5.74061 6.74997 6.74998 5.7406 6.74998 4.49998C6.74998 3.25936 5.74061 2.24997 4.49999 2.24997ZM4.49999 6.18748C3.56945 6.18748 2.81249 5.43052 2.81249 4.49998C2.81249 3.56944 3.56945 2.81248 4.49999 2.81248C5.43053 2.81248 6.18749 3.56944 6.18749 4.49998C6.18749 5.4305 5.43053 6.18748 4.49999 6.18748Z" fill="#686666"/>
</svg>
