<svg width="20" height="19" viewBox="0 0 20 19" fill="none" xmlns="http://www.w3.org/2000/svg">
<path d="M18.853 6.32244L18.8203 6.20808C18.8203 6.20808 18.804 6.17541 18.804 6.15907L16.7455 0.441101C16.6475 0.179708 16.4024 0 16.1083 0H2.908C2.63027 0 2.36887 0.179708 2.27085 0.441101L0.228719 6.1264C0.212382 6.15907 0.212382 6.19175 0.196045 6.22442L0.130696 6.42046C0.114359 6.46948 0.0980223 6.51849 0.0980223 6.58383C0.0326741 6.82889 0 7.04127 0 7.26999C0 8.51161 0.784179 9.57352 1.8951 9.96561V18.3302C1.8951 18.7059 2.18917 19 2.56492 19H16.7291C17.1049 19 17.399 18.7059 17.399 18.3302V9.85125C18.3629 9.37747 19.0327 8.39725 19.0327 7.26999C19.0327 7.07395 19 6.86156 18.951 6.64918C18.9347 6.51849 18.902 6.42046 18.853 6.32244V6.32244ZM16.043 17.6604H3.23474V10.1126C3.26741 10.1126 3.31642 10.0963 3.3491 10.0963C4.05159 9.98194 4.65606 9.62253 5.09716 9.09974C5.61995 9.73689 6.42046 10.129 7.30267 10.129C8.18487 10.129 8.98538 9.72055 9.50817 9.09974C10.031 9.73689 10.8315 10.129 11.7137 10.129C12.5959 10.129 13.3964 9.72055 13.9192 9.09974C14.2949 9.55718 14.8014 9.88392 15.3895 10.031C15.4058 10.031 15.4222 10.0473 15.4385 10.0473C15.5039 10.0636 15.5692 10.08 15.6509 10.0963C15.6836 10.0963 15.7326 10.1126 15.7653 10.1126C15.8143 10.1126 15.8796 10.129 15.9286 10.129C15.9613 10.129 16.0103 10.1453 16.043 10.1453V17.6604V17.6604ZM16.5658 8.74033C16.5494 8.74033 16.5494 8.74033 16.5658 8.74033C16.4841 8.75666 16.4187 8.773 16.3534 8.78934C16.288 8.80567 16.2064 8.80567 16.141 8.80567C16.043 8.80567 15.945 8.78934 15.8469 8.773C15.7653 8.75666 15.6836 8.72399 15.6182 8.70765C15.6019 8.70765 15.6019 8.70765 15.5856 8.69132C15.0628 8.47893 14.6707 7.97248 14.6217 7.38435C14.6217 7.36801 14.6217 7.35168 14.6217 7.35168C14.6217 7.319 14.6217 7.30267 14.6217 7.26999C14.6217 6.89424 14.3276 6.60017 13.9518 6.60017C13.5761 6.60017 13.282 6.89424 13.282 7.26999C13.282 7.30267 13.282 7.33534 13.2657 7.36801V7.38435C13.2167 7.98882 12.8246 8.47893 12.3018 8.69132C12.2855 8.69132 12.2855 8.69132 12.2691 8.70765C12.1874 8.74033 12.1058 8.75666 12.0241 8.773C11.9261 8.78934 11.828 8.80567 11.73 8.80567C11.632 8.80567 11.534 8.78934 11.4359 8.773C11.3543 8.75666 11.2726 8.72399 11.2072 8.70765C11.1909 8.70765 11.1909 8.70765 11.1745 8.69132C10.6518 8.47893 10.2597 7.97248 10.2107 7.38435C10.2107 7.36801 10.2107 7.36801 10.2107 7.35168C10.2107 7.319 10.1943 7.30267 10.1943 7.26999C10.1943 6.89424 9.90026 6.60017 9.52451 6.60017C9.14875 6.60017 8.85469 6.89424 8.85469 7.26999C8.85469 7.30267 8.85469 7.33534 8.83835 7.36801V7.38435C8.78934 7.98882 8.39725 8.47893 7.87446 8.69132C7.85813 8.69132 7.85813 8.69132 7.84179 8.70765C7.7601 8.74033 7.67842 8.75666 7.59673 8.773C7.49871 8.78934 7.40069 8.80567 7.30267 8.80567C7.20464 8.80567 7.10662 8.78934 7.0086 8.773C6.92691 8.75666 6.84523 8.72399 6.76354 8.70765C6.74721 8.70765 6.74721 8.70765 6.73087 8.69132C6.20808 8.47893 5.81599 7.97248 5.76698 7.38435C5.76698 7.36801 5.76698 7.35168 5.76698 7.35168C5.76698 7.319 5.76698 7.30267 5.76698 7.26999C5.76698 6.89424 5.47292 6.60017 5.09716 6.60017C4.72141 6.60017 4.42734 6.89424 4.42734 7.26999C4.42734 7.30267 4.42734 7.33534 4.41101 7.36801V7.38435C4.36199 7.98882 3.96991 8.47893 3.44712 8.69132C3.43078 8.69132 3.43078 8.69132 3.41445 8.70765C3.33276 8.74033 3.26741 8.75666 3.18573 8.773C3.0877 8.78934 2.98968 8.80567 2.89166 8.80567C2.84265 8.80567 2.7773 8.78934 2.72829 8.78934C2.71195 8.78934 2.69561 8.78934 2.66294 8.773C2.6466 8.773 2.63027 8.773 2.61393 8.773C1.8951 8.6423 1.33964 8.0215 1.33964 7.25365C1.33964 7.12296 1.35598 6.99226 1.40499 6.82889C1.40499 6.81255 1.42132 6.77988 1.42132 6.76354L3.38177 1.3233H15.6346L17.546 6.63285C17.546 6.63285 17.5623 6.66552 17.5623 6.68186L17.595 6.77988C17.595 6.79622 17.6113 6.82889 17.6113 6.84523C17.6604 7.0086 17.6767 7.13929 17.6767 7.26999C17.6767 7.95615 17.2029 8.54428 16.5658 8.74033Z" fill="black"/>
</svg>
