<svg width="20" height="25" viewBox="0 0 20 25" fill="none" xmlns="http://www.w3.org/2000/svg">
<path d="M9.66667 25.1875C10.9958 25.1875 12.0833 24.025 12.0833 22.6042H7.25C7.25 24.025 8.3375 25.1875 9.66667 25.1875ZM16.9167 17.4375V10.9792C16.9167 7.01375 14.9471 3.69417 11.4792 2.81583V1.9375C11.4792 0.865417 10.6696 0 9.66667 0C8.66375 0 7.85417 0.865417 7.85417 1.9375V2.81583C4.39833 3.69417 2.41667 7.00083 2.41667 10.9792V17.4375L0 20.0208V21.3125H19.3333V20.0208L16.9167 17.4375ZM14.5 18.7292H4.83333V10.9792C4.83333 7.77583 6.65792 5.16667 9.66667 5.16667C12.6754 5.16667 14.5 7.77583 14.5 10.9792V18.7292Z" fill="#ED212B"/>
</svg>
