<svg width="34" height="34" viewBox="0 0 34 34" fill="none" xmlns="http://www.w3.org/2000/svg">
<path d="M15.5833 8.50001C17.5383 8.50001 19.3091 9.29334 20.5983 10.5683L17 14.1667H25.5V5.66667L22.5958 8.57084C20.7966 6.77167 18.3175 5.66667 15.5833 5.66667C10.5825 5.66667 6.47413 9.36417 5.77996 14.1667H8.64163C9.29329 10.9367 12.155 8.50001 15.5833 8.50001ZM23.5733 21.4483C24.5083 20.1733 25.16 18.6575 25.3866 17H22.525C21.8733 20.23 19.0116 22.6667 15.5833 22.6667C13.6283 22.6667 11.8575 21.8733 10.5683 20.5983L14.1666 17H5.66663V25.5L8.57079 22.5958C10.37 24.395 12.8491 25.5 15.5833 25.5C17.7791 25.5 19.805 24.7775 21.4483 23.5733L28.3333 30.4442L30.4441 28.3333L23.5733 21.4483Z" fill="white"/>
</svg>
