<svg width="22" height="18" viewBox="0 0 22 18" fill="none" xmlns="http://www.w3.org/2000/svg">
<path d="M21.532 15.5637L17.4235 12.0586C17.238 11.9004 16.9867 11.8125 16.7229 11.8125H16.0512C17.1886 10.5715 17.8644 9.01055 17.8644 7.3125C17.8644 3.27305 14.0279 0 9.29299 0C4.5581 0 0.721558 3.27305 0.721558 7.3125C0.721558 11.352 4.5581 14.625 9.29299 14.625C11.2834 14.625 13.113 14.0484 14.5677 13.0781V13.6512C14.5677 13.8762 14.6707 14.0906 14.8562 14.2488L18.9647 17.7539C19.3521 18.0844 19.9784 18.0844 20.3617 17.7539L21.5279 16.759C21.9152 16.4285 21.9152 15.8941 21.532 15.5637ZM9.29299 11.8125C6.37952 11.8125 4.01826 9.80156 4.01826 7.3125C4.01826 4.82695 6.3754 2.8125 9.29299 2.8125C12.2064 2.8125 14.5677 4.82344 14.5677 7.3125C14.5677 9.79805 12.2106 11.8125 9.29299 11.8125Z" fill="#DBD6D6"/>
</svg>
