<svg width="31" height="35" viewBox="0 0 31 35" fill="none" xmlns="http://www.w3.org/2000/svg">
<path d="M25.8334 8.75001H23.0175C23.1596 8.29792 23.25 7.80209 23.25 7.29167C23.25 4.87084 21.5192 2.91667 19.375 2.91667C18.0188 2.91667 16.8434 3.70417 16.1459 4.88542L15.5 5.86251L14.8542 4.87084C14.1567 3.70417 12.9813 2.91667 11.625 2.91667C9.48087 2.91667 7.75004 4.87084 7.75004 7.29167C7.75004 7.80209 7.84046 8.29792 7.98254 8.75001H5.16671C3.73296 8.75001 2.59629 10.0479 2.59629 11.6667L2.58337 27.7083C2.58337 29.3271 3.73296 30.625 5.16671 30.625H25.8334C27.2671 30.625 28.4167 29.3271 28.4167 27.7083V11.6667C28.4167 10.0479 27.2671 8.75001 25.8334 8.75001ZM19.375 5.83334C20.0855 5.83334 20.6667 6.48959 20.6667 7.29167C20.6667 8.09376 20.0855 8.75001 19.375 8.75001C18.6646 8.75001 18.0834 8.09376 18.0834 7.29167C18.0834 6.48959 18.6646 5.83334 19.375 5.83334ZM11.625 5.83334C12.3355 5.83334 12.9167 6.48959 12.9167 7.29167C12.9167 8.09376 12.3355 8.75001 11.625 8.75001C10.9146 8.75001 10.3334 8.09376 10.3334 7.29167C10.3334 6.48959 10.9146 5.83334 11.625 5.83334ZM25.8334 27.7083H5.16671V24.7917H25.8334V27.7083ZM25.8334 20.4167H5.16671V11.6667H11.7284L9.04171 15.7938L11.1342 17.5L14.2084 12.775L15.5 10.7917L16.7917 12.775L19.8659 17.5L21.9584 15.7938L19.2717 11.6667H25.8334V20.4167Z" fill="white"/>
</svg>
