<svg width="360" height="334" viewBox="0 0 360 334" fill="none" xmlns="http://www.w3.org/2000/svg">
<mask id="mask0" style="mask-type:alpha" maskUnits="userSpaceOnUse" x="-3" y="0" width="363" height="334">
<path d="M360 0H-3V334H360V0Z" fill="#C4C4C4"/>
</mask>
<g mask="url(#mask0)">
<path d="M313.467 -54.4043C332.91 -12.0341 374.503 152.641 296.32 190.799C218.137 228.957 138.996 225.543 119.554 183.172C100.111 140.802 94.0235 97.4404 168.706 102.384C301.855 111.197 294.025 -96.7746 313.467 -54.4043Z" fill="#FFA5AA"/>
<path d="M316.742 -35.8859C336.185 6.48444 375.904 172.074 292.445 212.808C208.985 253.541 125.566 252.215 106.124 209.844C86.6806 167.474 81.3548 123.74 160.03 126.735C300.299 132.073 297.3 -78.2561 316.742 -35.8859Z" fill="#FC7B82"/>
<path d="M632.562 173.131C623.649 217.957 524.747 226.999 437.59 208.093C350.433 189.187 257.186 244.912 266.1 200.086C275.014 155.261 317.137 21.2164 404.294 40.1222C491.451 59.028 641.476 128.305 632.562 173.131Z" fill="#FFA5AA"/>
<path d="M740.258 106.161C724.051 186.705 588.673 212.521 471.816 187.509C354.959 162.498 223.024 270.723 239.232 190.179C255.44 109.634 324.952 -132.745 441.809 -107.734C558.666 -82.7222 756.467 25.6164 740.258 106.161Z" fill="#FC7B82"/>
<path d="M210.466 318.358L167.028 230.652C167.015 230.438 166.957 230.23 166.855 230.047C166.754 229.864 166.614 229.712 166.448 229.604C166.258 229.482 166.04 229.423 165.82 229.434C165.813 229.434 165.806 229.434 165.799 229.434C165.792 229.434 165.785 229.434 165.778 229.434C165.481 229.419 165.19 229.532 164.966 229.752C164.742 229.971 164.602 230.279 164.576 230.61L118.537 318.358C118.461 318.507 118.41 318.671 118.39 318.842C118.37 319.012 118.38 319.185 118.42 319.351C118.46 319.517 118.528 319.672 118.622 319.809C118.715 319.945 118.832 320.059 118.964 320.145C119.097 320.231 119.244 320.287 119.396 320.309C119.548 320.332 119.702 320.32 119.85 320.276C119.999 320.231 120.138 320.154 120.26 320.05C120.381 319.945 120.484 319.815 120.559 319.666L165.769 233.5L208.444 319.666C208.521 319.815 208.623 319.945 208.745 320.05C208.866 320.154 209.005 320.231 209.153 320.276C209.302 320.32 209.456 320.332 209.608 320.309C209.76 320.287 209.907 320.231 210.04 320.145C210.173 320.059 210.289 319.945 210.382 319.809C210.475 319.672 210.544 319.517 210.584 319.351C210.623 319.185 210.634 319.012 210.613 318.842C210.593 318.671 210.544 318.507 210.466 318.358Z" fill="#3F3D56"/>
<path d="M158.602 303.31L163.511 302.049L161.502 280.24L154.257 282.102L158.602 303.31Z" fill="#FFB6B6"/>
<path d="M162.398 292.775L155.41 294.57L153.176 289.68L153.049 289.507C152.058 288.145 151.508 286.447 151.489 284.69L145.681 267.486L145.206 267.233C144.839 267.037 144.513 266.756 144.251 266.408C143.988 266.06 143.794 265.654 143.683 265.215C143.572 264.777 143.546 264.317 143.606 263.867C143.666 263.416 143.812 262.985 144.033 262.603L143.418 260.781L126.069 260.817L126.051 260.812L104.747 254.119L106.985 239.186L112.977 243.408C114.952 243.264 148.779 240.938 151.904 249.428C154.687 256.988 158.697 269.904 161.571 279.408C161.714 279.834 161.893 280.245 162.103 280.635C162.551 281.407 162.813 282.294 162.866 283.211C162.899 283.61 162.967 284.005 163.068 284.39C164.263 288.389 162.443 292.669 162.425 292.712L162.398 292.775Z" fill="#2F2E41"/>
<path d="M156.943 301.487L158.539 301.077L164.19 296.637L168.112 298.617C170 298.132 171.982 298.507 173.624 299.659C175.264 300.811 176.43 302.645 176.863 304.759L176.916 305.018L158.629 309.717L156.943 301.487Z" fill="#2F2E41"/>
<path d="M84.448 301.977C84.9472 295.892 88.1299 289.8 93.2348 287.642C91.3782 293.953 91.5749 300.796 93.7901 306.961C94.6521 309.335 95.8317 311.875 95.1551 314.323C94.7341 315.846 93.6317 317.04 92.3831 317.806C91.1344 318.573 89.7355 318.967 88.3541 319.353L88.0876 319.617C85.7191 314.112 83.9488 308.062 84.448 301.977Z" fill="#F0F0F0"/>
<path d="M93.2893 287.754C90.3918 291.634 88.6595 296.437 88.3385 301.482C88.2522 302.567 88.319 303.66 88.5366 304.722C88.7785 305.748 89.2613 306.683 89.935 307.429C90.5507 308.14 91.2538 308.786 91.7045 309.652C91.9294 310.099 92.0673 310.594 92.1094 311.105C92.1514 311.615 92.0966 312.13 91.9484 312.616C91.6073 313.836 90.8952 314.846 90.1681 315.806C89.3607 316.873 88.5072 317.967 88.1908 319.354C88.1525 319.522 87.9219 319.445 87.9601 319.277C88.5105 316.864 90.544 315.432 91.4707 313.243C91.903 312.221 92.0631 311.048 91.6004 310.003C91.1957 309.089 90.471 308.421 89.8422 307.708C89.1755 306.991 88.6758 306.101 88.3868 305.118C88.1216 304.072 88.0172 302.984 88.0781 301.899C88.1804 299.454 88.6253 297.043 89.3965 294.753C90.2637 292.134 91.5245 289.701 93.1245 287.558C93.2236 287.426 93.3877 287.623 93.2893 287.754Z" fill="white"/>
<path d="M88.3562 299.851C87.6078 299.676 86.9392 299.208 86.47 298.532C86.0009 297.856 85.7617 297.015 85.7951 296.159C85.7967 296.124 85.8104 296.092 85.8332 296.068C85.8561 296.044 85.8862 296.031 85.9174 296.032C85.9485 296.032 85.9783 296.047 86.0004 296.071C86.0224 296.096 86.035 296.129 86.0355 296.164C86.0032 296.961 86.226 297.744 86.6641 298.373C87.1021 299.002 87.7264 299.434 88.4243 299.593C88.576 299.627 88.507 299.886 88.3562 299.851Z" fill="white"/>
<path d="M89.5804 307.115C90.8962 306.17 91.8454 304.704 92.239 303.01C92.2778 302.842 92.5084 302.919 92.4696 303.086C92.0572 304.848 91.0666 306.372 89.6955 307.352C89.5647 307.445 89.4504 307.208 89.5805 307.115H89.5804Z" fill="white"/>
<path d="M90.4939 292.381C90.7709 292.517 91.0736 292.573 91.3748 292.545C91.676 292.517 91.9663 292.406 92.2196 292.221C92.3492 292.126 92.4634 292.363 92.3346 292.457C92.0539 292.66 91.7331 292.782 91.4005 292.814C91.0678 292.846 90.7332 292.786 90.426 292.64C90.3959 292.628 90.3708 292.605 90.3557 292.574C90.3406 292.543 90.3366 292.507 90.3446 292.472C90.3538 292.438 90.3746 292.409 90.4026 292.392C90.4305 292.375 90.4634 292.371 90.4939 292.381Z" fill="white"/>
<path d="M109.278 297.901C109.198 297.963 109.12 298.025 109.04 298.089C107.976 298.929 106.974 299.864 106.045 300.885C105.973 300.962 105.9 301.042 105.829 301.122C103.615 303.609 101.831 306.535 100.571 309.751C100.071 311.031 99.6575 312.352 99.3358 313.702C98.8921 315.567 98.5433 317.628 97.6026 319.175C97.506 319.337 97.4006 319.493 97.2869 319.641L88.3955 319.961C88.3749 319.95 88.3543 319.942 88.3338 319.931L87.9792 319.962C87.9914 319.891 88.0056 319.818 88.0178 319.747C88.0247 319.706 88.0337 319.664 88.0407 319.623C88.0459 319.596 88.0512 319.568 88.0546 319.543C88.0563 319.534 88.0581 319.525 88.0599 319.518C88.0632 319.493 88.0687 319.47 88.0721 319.447C88.1498 319.037 88.23 318.627 88.313 318.217C88.313 318.215 88.313 318.215 88.3149 318.212C88.9206 315.081 89.856 312.041 91.1012 309.157C91.1394 309.071 91.1775 308.983 91.2197 308.898C91.798 307.62 92.4685 306.397 93.2248 305.242C93.6406 304.61 94.0848 304.003 94.5555 303.422C95.7744 301.924 97.196 300.649 98.7681 299.646C101.903 297.645 105.574 296.79 109.016 297.819C109.104 297.846 109.19 297.872 109.278 297.901Z" fill="#F0F0F0"/>
<path d="M109.262 298.028C104.862 299.172 100.897 301.839 97.9281 305.651C97.2759 306.459 96.7417 307.377 96.3449 308.371C95.9862 309.354 95.869 310.426 96.0055 311.476C96.1153 312.458 96.329 313.449 96.2235 314.443C96.1628 314.952 96.0069 315.44 95.7659 315.876C95.5248 316.312 95.2042 316.687 94.825 316.974C93.8967 317.718 92.785 318.045 91.688 318.322C90.47 318.629 89.2004 318.926 88.2022 319.821C88.0812 319.929 87.9382 319.712 88.059 319.604C89.7958 318.049 92.1896 318.276 94.1063 317.153C95.0006 316.629 95.7594 315.8 95.9518 314.653C96.12 313.651 95.9004 312.629 95.7816 311.636C95.6351 310.613 95.7142 309.566 96.0124 308.586C96.3627 307.572 96.8645 306.633 97.4964 305.808C98.8921 303.925 100.544 302.3 102.391 300.991C104.491 299.485 106.807 298.392 109.236 297.76C109.386 297.721 109.411 297.989 109.262 298.028Z" fill="white"/>
<path d="M98.8194 304.361C98.3162 303.716 98.0339 302.892 98.0228 302.036C98.0117 301.179 98.2729 300.347 98.7589 299.686C98.8577 299.553 99.0473 299.719 98.9485 299.852C98.4947 300.466 98.2517 301.242 98.2628 302.039C98.2749 302.837 98.5401 303.603 99.013 304.2C99.1148 304.33 98.9212 304.49 98.8194 304.361Z" fill="white"/>
<path d="M95.8914 310.986C97.4501 311.118 98.9959 310.588 100.221 309.501C100.342 309.393 100.485 309.609 100.364 309.717C99.0877 310.846 97.4779 311.394 95.8561 311.252C95.7015 311.239 95.7377 310.972 95.8914 310.986Z" fill="white"/>
<path d="M104.542 299.837C104.69 300.132 104.902 300.381 105.158 300.562C105.413 300.743 105.704 300.85 106.006 300.873C106.161 300.884 106.125 301.151 105.97 301.139C105.638 301.112 105.316 300.993 105.033 300.794C104.75 300.595 104.515 300.322 104.349 299.998C104.331 299.969 104.323 299.933 104.328 299.898C104.333 299.863 104.349 299.831 104.373 299.809C104.399 299.788 104.432 299.779 104.463 299.785C104.494 299.79 104.523 299.809 104.542 299.837Z" fill="white"/>
<path d="M229.921 301.977C229.422 295.892 226.24 289.8 221.134 287.642C222.991 293.953 222.794 300.796 220.579 306.961C219.717 309.335 218.537 311.875 219.214 314.323C219.635 315.846 220.737 317.04 221.986 317.806C223.235 318.573 224.633 318.967 226.015 319.353L226.282 319.617C228.649 314.112 230.42 308.062 229.921 301.977Z" fill="#F0F0F0"/>
<path d="M221.08 287.754C223.977 291.634 225.709 296.437 226.031 301.482C226.116 302.567 226.05 303.66 225.832 304.722C225.59 305.748 225.107 306.683 224.434 307.429C223.818 308.14 223.116 308.786 222.665 309.652C222.44 310.099 222.302 310.594 222.26 311.105C222.217 311.615 222.273 312.13 222.421 312.616C222.762 313.836 223.474 314.846 224.201 315.806C225.008 316.873 225.861 317.967 226.178 319.354C226.216 319.522 226.447 319.445 226.409 319.277C225.858 316.864 223.825 315.432 222.898 313.243C222.466 312.221 222.306 311.048 222.769 310.003C223.173 309.089 223.898 308.421 224.526 307.708C225.194 306.991 225.693 306.101 225.982 305.118C226.248 304.072 226.351 302.984 226.291 301.899C226.188 299.454 225.743 297.043 224.972 294.753C224.105 292.134 222.844 289.701 221.244 287.558C221.145 287.426 220.981 287.623 221.08 287.754Z" fill="white"/>
<path d="M226.013 299.851C226.761 299.676 227.429 299.209 227.899 298.532C228.368 297.856 228.607 297.015 228.574 296.159C228.572 296.125 228.559 296.092 228.536 296.068C228.513 296.044 228.483 296.031 228.452 296.032C228.421 296.032 228.39 296.047 228.368 296.071C228.347 296.096 228.334 296.129 228.334 296.164C228.366 296.961 228.143 297.744 227.705 298.373C227.267 299.002 226.643 299.434 225.945 299.593C225.793 299.628 225.862 299.886 226.013 299.851Z" fill="white"/>
<path d="M224.788 307.115C223.473 306.17 222.524 304.704 222.129 303.01C222.091 302.842 221.86 302.919 221.9 303.086C222.312 304.848 223.302 306.372 224.673 307.352C224.805 307.445 224.918 307.208 224.788 307.115Z" fill="white"/>
<path d="M223.875 292.381C223.598 292.517 223.295 292.573 222.994 292.545C222.693 292.517 222.403 292.406 222.149 292.221C222.02 292.126 221.906 292.363 222.034 292.457C222.315 292.66 222.636 292.782 222.968 292.814C223.301 292.846 223.636 292.786 223.942 292.64C223.973 292.628 223.998 292.605 224.013 292.574C224.028 292.543 224.032 292.507 224.024 292.472C224.015 292.438 223.994 292.409 223.967 292.392C223.938 292.375 223.905 292.371 223.875 292.381Z" fill="white"/>
<path d="M205.091 297.901C205.17 297.963 205.25 298.025 205.33 298.089C206.394 298.929 207.395 299.864 208.324 300.885C208.397 300.962 208.47 301.042 208.54 301.122C210.755 303.609 212.537 306.535 213.798 309.751C214.299 311.031 214.711 312.352 215.033 313.702C215.478 315.567 215.827 317.628 216.766 319.175C216.863 319.337 216.969 319.493 217.082 319.641L225.973 319.961C225.995 319.95 226.015 319.942 226.036 319.931L226.39 319.962C226.378 319.891 226.364 319.818 226.352 319.747C226.344 319.706 226.335 319.664 226.328 319.623C226.323 319.596 226.318 319.568 226.315 319.543C226.313 319.534 226.311 319.525 226.309 319.518C226.306 319.493 226.3 319.47 226.297 319.447C226.219 319.037 226.14 318.627 226.056 318.217C226.056 318.215 226.056 318.215 226.054 318.212C225.449 315.081 224.513 312.041 223.268 309.157C223.23 309.071 223.191 308.983 223.15 308.898C222.571 307.62 221.901 306.397 221.145 305.242C220.729 304.61 220.284 304.003 219.813 303.422C218.595 301.924 217.174 300.649 215.601 299.646C212.466 297.645 208.794 296.79 205.353 297.819C205.265 297.846 205.18 297.872 205.091 297.901Z" fill="#F0F0F0"/>
<path d="M205.107 298.028C209.506 299.172 213.472 301.839 216.441 305.651C217.093 306.459 217.627 307.377 218.024 308.371C218.383 309.354 218.5 310.426 218.363 311.476C218.254 312.458 218.04 313.448 218.146 314.443C218.206 314.952 218.362 315.44 218.603 315.876C218.844 316.312 219.165 316.687 219.544 316.974C220.472 317.718 221.584 318.045 222.681 318.322C223.899 318.629 225.169 318.926 226.167 319.821C226.288 319.929 226.431 319.712 226.31 319.604C224.573 318.049 222.179 318.276 220.263 317.153C219.369 316.629 218.609 315.8 218.417 314.653C218.248 313.651 218.468 312.629 218.587 311.636C218.733 310.613 218.655 309.566 218.356 308.586C218.006 307.572 217.504 306.633 216.872 305.808C215.477 303.925 213.825 302.3 211.979 300.991C209.878 299.485 207.563 298.392 205.133 297.76C204.983 297.721 204.958 297.989 205.107 298.028Z" fill="white"/>
<path d="M215.549 304.361C216.053 303.716 216.336 302.892 216.347 302.036C216.358 301.179 216.097 300.347 215.61 299.686C215.511 299.553 215.321 299.719 215.42 299.852C215.875 300.466 216.118 301.242 216.106 302.039C216.094 302.837 215.829 303.603 215.357 304.2C215.254 304.33 215.447 304.49 215.549 304.361Z" fill="white"/>
<path d="M218.477 310.986C216.919 311.118 215.373 310.588 214.148 309.501C214.027 309.393 213.883 309.609 214.004 309.717C215.282 310.846 216.891 311.394 218.513 311.252C218.668 311.239 218.632 310.972 218.477 310.986Z" fill="white"/>
<path d="M209.827 299.837C209.679 300.132 209.467 300.381 209.212 300.562C208.956 300.743 208.664 300.85 208.363 300.873C208.208 300.884 208.245 301.151 208.398 301.139C208.731 301.112 209.053 300.993 209.336 300.794C209.618 300.595 209.853 300.322 210.02 299.998C210.037 299.969 210.046 299.933 210.041 299.898C210.036 299.863 210.019 299.831 209.995 299.809C209.969 299.788 209.938 299.779 209.905 299.785C209.874 299.79 209.846 299.809 209.827 299.837Z" fill="white"/>
<path d="M291.401 320.448C291.401 320.539 291.369 320.627 291.31 320.692C291.253 320.757 291.174 320.793 291.092 320.794H59.8254C59.7435 320.794 59.6649 320.757 59.607 320.692C59.5492 320.627 59.5166 320.54 59.5166 320.448C59.5166 320.356 59.5492 320.268 59.607 320.203C59.6649 320.138 59.7435 320.102 59.8254 320.102H291.092C291.174 320.102 291.253 320.139 291.31 320.204C291.369 320.268 291.401 320.356 291.401 320.448Z" fill="#3F3D56"/>
<path d="M208.483 186.685C209.127 186.685 209.65 186.1 209.65 185.378C209.65 184.655 209.127 184.07 208.483 184.07C207.837 184.07 207.315 184.655 207.315 185.378C207.315 186.1 207.837 186.685 208.483 186.685Z" fill="#3F3D56"/>
<path d="M193.862 195.45L209.603 184.375C209.745 184.274 209.905 184.207 210.071 184.178C210.236 184.149 210.407 184.157 210.569 184.203C210.732 184.249 210.886 184.332 211.02 184.446C211.153 184.56 211.265 184.703 211.348 184.867C211.431 185.031 211.484 185.212 211.502 185.399C211.521 185.586 211.505 185.776 211.456 185.956C211.408 186.137 211.327 186.304 211.219 186.449C211.112 186.593 210.978 186.712 210.829 186.797L194.257 196.23C194.164 196.283 194.059 196.293 193.96 196.26C193.861 196.227 193.777 196.152 193.726 196.051C193.675 195.951 193.661 195.832 193.687 195.72C193.712 195.608 193.774 195.511 193.862 195.45Z" fill="#E4E4E4"/>
<path d="M162.281 219.297C162.157 219.09 162.092 218.846 162.095 218.598C162.098 218.349 162.17 218.107 162.299 217.905C162.565 217.505 162.92 217.19 163.327 216.991C164.17 216.511 165.078 216.19 166.013 216.041C166.725 215.928 167.5 215.891 168.052 215.376C168.6 214.865 168.906 213.908 169.615 213.828C170.301 213.751 170.829 214.592 171.517 214.644C172.365 214.709 172.921 213.597 173.747 213.369C174.299 213.216 174.867 213.486 175.385 213.749L178.496 215.329L180.09 216.139C180.647 216.422 181.275 216.803 181.38 217.478C181.525 218.404 180.604 219.058 179.817 219.388C174.196 221.71 168.02 221.711 162.4 219.39" fill="#ED212B"/>
<path d="M166.967 236.373C189.537 236.373 207.833 233.446 207.833 229.835C207.833 226.224 189.537 223.297 166.967 223.297C144.397 223.297 126.1 226.224 126.1 229.835C126.1 233.446 144.397 236.373 166.967 236.373Z" fill="#3F3D56"/>
<path d="M249.868 270.37H221.845C220.555 270.37 219.51 271.541 219.51 272.986C219.51 274.43 220.555 275.601 221.845 275.601H249.868C251.157 275.601 252.203 274.43 252.203 272.986C252.203 271.541 251.157 270.37 249.868 270.37Z" fill="#3F3D56"/>
<path d="M263.449 223.745L254.194 272.983L256.604 285.585L261.155 309.368V320.058C261.156 320.073 261.155 320.088 261.153 320.102C261.151 320.338 261.113 320.572 261.038 320.794H257.38C257.306 320.572 257.267 320.338 257.266 320.102C257.264 320.088 257.263 320.073 257.263 320.058V309.827L253.133 288.241L252.297 283.882L250.68 275.435L250.214 272.988V272.986L250.675 270.533L251.03 268.641L259.64 222.85C259.692 222.57 259.793 222.304 259.937 222.067C260.081 221.831 260.266 221.628 260.479 221.471C260.694 221.315 260.933 221.207 261.184 221.154C261.436 221.101 261.695 221.104 261.945 221.163C262.195 221.221 262.432 221.335 262.643 221.497C262.854 221.658 263.035 221.865 263.175 222.105C263.314 222.344 263.411 222.613 263.457 222.894C263.504 223.176 263.501 223.465 263.449 223.745Z" fill="#3F3D56"/>
<path d="M223.791 272.985V320.058C223.791 320.073 223.79 320.088 223.788 320.102C223.787 320.338 223.748 320.572 223.674 320.794H220.016C219.942 320.572 219.903 320.338 219.902 320.102C219.899 320.088 219.899 320.073 219.899 320.058V272.985C219.899 272.407 220.104 271.853 220.469 271.444C220.834 271.036 221.329 270.806 221.845 270.806C222.362 270.806 222.857 271.036 223.222 271.444C223.587 271.853 223.791 272.407 223.791 272.985Z" fill="#3F3D56"/>
<path d="M226.516 265.14H245.198C247.055 265.14 248.837 265.967 250.151 267.438C251.465 268.909 252.203 270.905 252.203 272.986H219.51C219.51 270.905 220.248 268.909 221.562 267.438C222.876 265.967 224.657 265.14 226.516 265.14Z" fill="#3F3D56"/>
<path d="M254.538 288.241H221.845C221.329 288.241 220.834 288.011 220.469 287.602C220.104 287.194 219.899 286.639 219.899 286.061C219.899 285.483 220.104 284.929 220.469 284.52C220.834 284.112 221.329 283.882 221.845 283.882H254.538C255.055 283.882 255.55 284.112 255.915 284.52C256.28 284.929 256.485 285.483 256.485 286.061C256.485 286.639 256.28 287.194 255.915 287.602C255.55 288.011 255.055 288.241 254.538 288.241Z" fill="#3F3D56"/>
<path d="M102.464 275.68H135.441C136.731 275.68 137.776 274.509 137.776 273.065V272.272C137.776 270.828 136.731 269.657 135.441 269.657H102.464C101.175 269.657 100.129 270.828 100.129 272.272V273.065C100.129 274.509 101.175 275.68 102.464 275.68Z" fill="#3F3D56"/>
<path d="M102.125 272.704L101.528 275.458L99.3378 285.547L98.394 289.906L94.0085 310.124V318.896C94.0097 319.326 93.8958 319.746 93.6816 320.102C93.5133 320.39 93.2843 320.628 93.0149 320.794H91.1103C90.8408 320.628 90.6118 320.39 90.4435 320.102C90.2293 319.746 90.1153 319.326 90.1165 318.896V309.601L94.9894 287.139L98.1338 272.634L87.4699 215.9C87.4171 215.62 87.4141 215.331 87.4612 215.049C87.5082 214.768 87.6042 214.5 87.7438 214.26C87.8834 214.02 88.0639 213.814 88.2748 213.652C88.4857 213.491 88.723 213.377 88.9731 213.318C89.2233 213.26 89.4812 213.257 89.7324 213.31C89.9836 213.362 90.2229 213.47 90.4368 213.627C90.6508 213.784 90.835 213.986 90.979 214.222C91.1231 214.459 91.2241 214.724 91.2763 215.005L101.134 267.433L101.587 269.85L102.117 272.669L102.125 272.704Z" fill="#3F3D56"/>
<path d="M137.034 272.669V318.896C137.035 319.326 136.921 319.746 136.708 320.102C136.539 320.39 136.31 320.628 136.04 320.794H134.133C133.865 320.627 133.637 320.389 133.469 320.102C133.255 319.746 133.141 319.326 133.142 318.896V272.669C133.142 272.091 133.347 271.536 133.712 271.128C134.077 270.719 134.572 270.49 135.088 270.49C135.604 270.49 136.1 270.719 136.465 271.128C136.83 271.536 137.034 272.091 137.034 272.669Z" fill="#3F3D56"/>
<path d="M137.776 272.668H100.129V271.48C100.129 270.449 100.311 269.429 100.663 268.477C101.014 267.526 101.531 266.661 102.181 265.932C102.831 265.204 103.604 264.626 104.454 264.231C105.304 263.837 106.215 263.634 107.135 263.634H130.77C132.629 263.634 134.41 264.461 135.724 265.932C137.038 267.403 137.776 269.399 137.776 271.48V272.668Z" fill="#3F3D56"/>
<path d="M135.087 289.905H97.4401C96.9241 289.905 96.4291 289.675 96.0642 289.266C95.6991 288.858 95.4941 288.303 95.4941 287.725C95.4941 287.147 95.6991 286.593 96.0642 286.184C96.4291 285.776 96.9241 285.546 97.4401 285.546H135.087C135.603 285.546 136.099 285.776 136.464 286.184C136.829 286.593 137.033 287.147 137.033 287.725C137.033 288.303 136.829 288.858 136.464 289.266C136.099 289.675 135.603 289.905 135.087 289.905Z" fill="#3F3D56"/>
<path d="M183.47 308.915L179.379 306.725L184.998 287.579L191.034 290.812L183.47 308.915Z" fill="#FFB6B6"/>
<path d="M211.189 307.181L206.791 308.396L200.418 289.553L206.91 287.76L211.189 307.181Z" fill="#FFB6B6"/>
<path d="M194.332 225.7C194.916 226.761 195.846 227.524 196.925 227.828C198.004 228.131 199.146 227.95 200.108 227.323C200.301 227.192 200.485 227.043 200.656 226.878L213.588 235.188L213.026 226.657L200.832 220.074C200.169 219.327 199.303 218.848 198.37 218.712C197.437 218.576 196.492 218.791 195.679 219.322C195.212 219.636 194.805 220.052 194.483 220.545C194.161 221.038 193.93 221.599 193.805 222.193C193.679 222.787 193.662 223.404 193.752 224.006C193.843 224.608 194.039 225.184 194.332 225.7Z" fill="#FFB6B6"/>
<path d="M208.028 232.059L210.314 233.619L220.58 240.629C221.253 241.101 222.004 241.42 222.789 241.568C223.573 241.715 224.376 241.688 225.151 241.487C225.926 241.287 226.659 240.918 227.306 240.4C227.954 239.883 228.503 239.228 228.925 238.472C229.685 237.07 229.953 235.401 229.68 233.79L225.117 208.262C224.948 207.26 224.589 206.311 224.062 205.479C223.536 204.646 222.854 203.952 222.067 203.441C221.278 202.931 220.401 202.617 219.495 202.521C218.587 202.426 217.674 202.551 216.813 202.887C215.369 203.456 214.172 204.619 213.466 206.141C212.76 207.663 212.599 209.429 213.014 211.08L217.784 229.196L210.472 225.378L208.028 232.059Z" fill="#E6E6E6"/>
<path d="M202.623 301.901L195.585 286.094L195.586 286.058L196.281 257.065C196.29 256.807 196.308 256.548 196.336 256.293C196.459 255.131 196.787 254.008 197.302 252.989C197.817 251.97 198.507 251.075 199.333 250.358C200.125 249.665 201.031 249.155 202 248.858C202.969 248.561 203.982 248.484 204.978 248.63L225.102 251.546L225.8 248.35L225.93 248.297L245.212 240.383L245.324 240.586C247.849 245.188 249.615 254.379 250.096 257.087L250.103 257.126C250.113 257.183 250.119 257.218 250.121 257.228C251.113 261.848 247.012 269.502 242.925 270.652C234.319 273.109 226.622 271.193 217.709 268.973C214.513 268.177 211.209 267.355 207.571 266.643L207.679 269.041C207.768 270.887 208.111 272.706 208.695 274.435C209.344 276.563 209.856 278.243 208.772 281.747L208.248 283.442C208.52 284.284 208.614 285.185 208.521 286.074C208.429 286.963 208.154 287.815 207.717 288.565L207.613 288.745L212.254 301.898L202.623 301.901Z" fill="#2F2E41"/>
<path d="M191.06 294.91L182.667 294.037L185.641 283.388C186.254 276.435 187.8 269.625 190.227 263.188L194.282 252.425C194.292 252.185 194.31 251.944 194.336 251.708C194.459 250.546 194.787 249.422 195.301 248.403C195.815 247.384 196.506 246.49 197.332 245.773C198.123 245.08 199.03 244.57 199.999 244.273C200.969 243.977 201.98 243.899 202.976 244.044L223.071 246.957L223.947 238.73L243.234 235.84L243.323 236.001C246.694 242.144 248.834 246.952 250.058 251.135C250.12 251.348 250.174 251.566 250.221 251.783C251.22 256.434 248.725 261.15 244.66 262.295C234.297 265.254 221.837 265.171 205.454 262.035L197.525 283.166C196.768 285.184 195.829 287.111 194.725 288.918L191.06 294.91Z" fill="#2F2E41"/>
<path d="M220.335 188.237C225.704 188.237 230.056 183.254 230.056 177.107C230.056 170.96 225.704 165.977 220.335 165.977C214.965 165.977 210.612 170.96 210.612 177.107C210.612 183.254 214.965 188.237 220.335 188.237Z" fill="#FFB6B6"/>
<path d="M223.142 247.345L221.746 241.749L221.403 238.988L219.399 239.063L215.464 228.892L213.936 226.21C213.624 225.843 213.342 225.489 213.089 225.15C211.496 223.134 210.219 220.832 209.311 218.34C208.676 216.549 208.303 214.655 208.206 212.732C207.921 207.049 210.061 201.036 214.746 194.352C214.67 194.115 214.618 193.869 214.594 193.619C214.51 192.807 214.716 191.99 215.167 191.347C215.618 190.705 216.277 190.287 217.001 190.186L221.521 189.617C221.872 189.573 222.228 189.607 222.568 189.718C222.908 189.829 223.224 190.014 223.499 190.263C223.786 190.521 224.025 190.84 224.2 191.202C224.376 191.564 224.486 191.961 224.523 192.371C224.584 193.006 224.473 193.645 224.204 194.208C226.508 194.535 228.679 195.6 230.455 197.275C232.232 198.949 233.54 201.162 234.222 203.648C236.927 209.302 239.082 215.264 240.651 221.433C240.961 222.641 240.824 223.886 240.691 225.09C240.567 226.202 240.44 227.352 240.654 228.498C240.871 229.664 241.396 230.833 241.95 232.071C242.584 233.489 243.242 234.955 243.419 236.45L243.431 236.555L223.142 247.345Z" fill="#E4E4E4"/>
<path opacity="0.2" d="M209.433 218.285C210.335 220.762 211.606 223.052 213.189 225.057C213.459 225.419 213.745 225.775 214.046 226.132L215.583 228.834C221.252 224.076 225.845 205.339 225.845 205.339L219.449 203.946L209.433 218.285Z" fill="black"/>
<path d="M205.56 189.276C206.12 190.354 206.283 191.633 206.013 192.843C205.743 194.053 205.063 195.097 204.117 195.753C203.922 195.883 203.718 195.995 203.508 196.087L203.96 212.776L197.507 208.227L198.067 193.076C197.792 192.068 197.824 190.986 198.155 190C198.487 189.014 199.101 188.178 199.902 187.624C200.369 187.308 200.887 187.1 201.426 187.012C201.966 186.924 202.515 186.958 203.043 187.112C203.57 187.266 204.064 187.537 204.497 187.909C204.929 188.281 205.29 188.746 205.56 189.276Z" fill="#FFB6B6"/>
<path d="M204.528 206.477L197.43 207.607L197.736 224.065C197.754 225.24 198.039 226.389 198.566 227.405C199.091 228.421 199.841 229.269 200.742 229.869C201.844 230.594 203.125 230.899 204.395 230.738C205.664 230.577 206.852 229.958 207.78 228.974L224.535 210.926C225.714 209.673 226.42 207.963 226.508 206.146C226.594 204.329 226.056 202.543 225.004 201.157C224.483 200.466 223.844 199.9 223.124 199.492C222.404 199.083 221.618 198.841 220.813 198.779C220.008 198.718 219.2 198.838 218.437 199.132C217.674 199.427 216.972 199.89 216.372 200.495C216.207 200.661 216.049 200.836 215.9 201.021L204.837 215.274L204.528 206.477Z" fill="#E6E6E6"/>
<path d="M145.169 313.831H150.207L152.603 292.071L145.168 292.072L145.169 313.831Z" fill="#FFB6B6"/>
<path d="M116.617 188.56C122.169 188.56 126.671 183.519 126.671 177.3C126.671 171.082 122.169 166.041 116.617 166.041C111.064 166.041 106.562 171.082 106.562 177.3C106.562 183.519 111.064 188.56 116.617 188.56Z" fill="#FFB6B6"/>
<path d="M151.851 307.128H144.718L142.899 304.398L142.407 301.826L141.983 301.367C141.408 300.749 141.036 299.932 140.928 299.048C140.82 298.164 140.982 297.265 141.386 296.497L136.216 269.485C134.862 269.351 119.592 267.822 108.977 265.719C106.261 265.18 104.14 263.702 102.673 261.323C99.0705 255.48 100.614 246.024 100.629 245.93L100.648 245.824L100.742 245.812L125.536 242.696L125.57 242.714C126.392 243.15 145.757 253.445 148.922 256.989C150.35 258.589 153.539 268.097 154.253 278.205C154.381 280.015 153.92 281.859 153.475 283.643C153.059 285.311 152.628 287.037 152.714 288.668C152.845 291.185 152.969 293.825 153.083 296.515C153.101 296.944 153.389 297.387 153.669 297.816C153.96 298.265 154.235 298.688 154.253 299.131C154.422 303.427 151.915 307.037 151.89 307.073L151.851 307.128Z" fill="#2F2E41"/>
<path d="M153.475 207.29C152.935 207.124 152.369 207.093 151.817 207.2C151.265 207.306 150.74 207.546 150.281 207.903C149.821 208.261 149.437 208.727 149.154 209.269C148.873 209.811 148.701 210.415 148.65 211.04L140.297 213.964L140.645 220.082L152.39 215.768C153.333 215.793 154.251 215.431 154.97 214.749C155.69 214.067 156.161 213.113 156.295 212.068C156.429 211.023 156.216 209.959 155.696 209.079C155.176 208.198 154.386 207.561 153.475 207.29Z" fill="#FFB6B6"/>
<path d="M148.025 217.414L141.781 220.06L141.621 220.407C141.239 221.239 140.577 221.866 139.781 222.151C138.985 222.436 138.121 222.355 137.378 221.927L123.345 227.875C123.345 227.875 117.078 220.851 112.616 214.584L114.137 204.109C114.489 201.679 115.237 199.342 116.345 197.215C125.496 199.462 130.748 213.787 130.748 213.787L147.24 210.263L148.025 217.414Z" fill="#ED212B"/>
<path d="M115.188 187.958C112.67 188.719 109.895 187.707 107.931 185.787C105.966 183.867 104.738 181.147 104.03 178.337C103.511 176.279 103.266 173.994 104.084 172.062C104.902 170.13 107.105 168.827 108.803 169.802C107.755 168.435 108.279 166.173 109.503 165.003C110.727 163.834 112.408 163.498 114.009 163.315C116.332 163.049 118.732 163.019 120.943 163.862C123.153 164.705 125.162 166.548 125.855 169.046C126.562 169.414 127.357 169.51 128.117 169.317C128.878 169.125 129.559 168.656 130.057 167.983C130.185 168.756 130.082 169.554 129.764 170.255C129.445 170.955 128.931 171.519 128.298 171.859L131.685 170.629C132.268 172.01 131.247 173.719 129.942 174.161C128.637 174.603 127.227 174.12 125.989 173.481C124.75 172.842 123.55 172.035 122.204 171.785C120.859 171.536 119.277 172.02 118.655 173.379C118.33 174.091 118.312 174.925 118.123 175.696C117.934 176.467 117.454 177.267 116.742 177.33C116.293 177.37 115.852 177.102 115.403 177.157C114.847 177.225 114.421 177.789 114.273 178.393C114.161 179.009 114.16 179.643 114.269 180.26L115.13 187.625" fill="#2F2E41"/>
<path d="M102.732 262.669C102.73 262.669 102.728 262.669 102.726 262.668L102.646 262.653L102.623 262.566C102.335 261.478 101.966 260.363 101.611 259.285C101.087 257.792 100.645 256.265 100.286 254.713C100.004 253.228 99.8086 251.724 99.7007 250.211C99.6009 249.113 99.4991 247.977 99.3246 246.859C99.247 246.362 99.5404 245.892 99.8248 245.438C100.088 245.016 100.336 244.618 100.285 244.241C100.231 243.856 99.849 243.433 99.4799 243.024C99.0756 242.575 98.6581 242.111 98.5986 241.623C97.7927 234.963 97.4176 228.247 97.4762 221.526C97.5594 212.228 97.9351 205.89 98.5916 202.688C100.357 194.079 108.516 192.508 109.793 192.314C109.929 191.908 110.138 191.538 110.407 191.227C110.676 190.916 111 190.67 111.358 190.505C111.716 190.339 112.1 190.258 112.486 190.267C112.874 190.275 113.255 190.372 113.607 190.553L119.404 193.524C120.579 194.129 121.632 194.999 122.495 196.078C123.358 197.158 124.014 198.425 124.421 199.8L125.282 202.74L125.714 222.476L123.323 236.373L127.994 244.219C103.102 259.523 102.811 262.669 102.732 262.669Z" fill="#ED212B"/>
<path d="M142.459 311.638H144.097L150.49 308.726L153.918 311.638H153.919C155.856 311.638 157.713 312.5 159.082 314.033C160.452 315.567 161.221 317.647 161.221 319.816V320.082H142.459V311.638Z" fill="#2F2E41"/>
<path d="M155.566 221.373C155.083 221.055 154.545 220.86 153.987 220.802C153.43 220.743 152.868 220.822 152.341 221.032C151.813 221.243 151.333 221.581 150.935 222.022C150.537 222.463 150.23 222.996 150.036 223.584L141.29 223.966L140.112 228.528L152.544 229.241C153.449 229.541 154.419 229.459 155.273 229.011C156.127 228.563 156.804 227.78 157.177 226.81C157.549 225.84 157.591 224.751 157.294 223.749C156.997 222.747 156.383 221.901 155.566 221.373Z" fill="#FFB6B6"/>
<path d="M148.383 229.733L139.399 229.607L138.262 229.59L119.984 229.332C119.984 229.332 115.021 224.029 110.7 218.57L111.306 213.663C111.897 208.848 114.029 204.437 117.307 201.251C123.497 205.883 127.087 215.051 127.087 215.051L133.106 218.067C137.342 218.279 141.469 219.633 145.138 222.013L147.118 223.298L148.383 229.733Z" fill="#ED212B"/>
<path d="M214.398 316.462L211.409 317.288L210.179 314.275L209.509 317.813L201.581 320.004C201.2 320.11 200.801 320.076 200.439 319.908C200.077 319.741 199.773 319.448 199.57 319.073C199.368 318.698 199.278 318.26 199.313 317.824C199.348 317.387 199.507 316.975 199.767 316.646L205.018 310L204.314 306.805L211.071 305.41L214.398 316.462Z" fill="#2F2E41"/>
<path d="M182.732 317.495L179.881 316.192L180.471 312.946L178.069 315.364L170.509 311.908C170.147 311.743 169.841 311.452 169.637 311.078C169.433 310.704 169.34 310.267 169.374 309.83C169.407 309.393 169.564 308.98 169.822 308.65C170.08 308.321 170.425 308.092 170.808 307.998L178.547 306.088L179.658 303.041L185.853 306.368L182.732 317.495Z" fill="#2F2E41"/>
<path d="M172.805 228.673H170.47C167.959 228.67 165.552 227.552 163.776 225.563C162.001 223.575 161.002 220.879 160.999 218.067V217.922H182.276V218.067C182.273 220.879 181.274 223.575 179.499 225.563C177.723 227.552 175.316 228.67 172.805 228.673Z" fill="#E4E4E4"/>
<path d="M170.47 214.144C170.47 214.867 169.302 215.452 169.302 215.452C169.302 215.452 168.134 214.867 168.134 214.144C168.134 213.422 169.302 212.837 169.302 212.837C169.302 212.837 170.47 213.422 170.47 214.144Z" fill="#3F3D56"/>
<path d="M177.475 214.144C177.475 214.867 176.308 215.452 176.308 215.452C176.308 215.452 175.14 214.867 175.14 214.144C175.14 213.422 176.308 212.837 176.308 212.837C176.308 212.837 177.475 213.422 177.475 214.144Z" fill="#3F3D56"/>
<path d="M172.805 216.759C172.805 217.482 171.637 218.067 171.637 218.067C171.637 218.067 170.469 217.482 170.469 216.759C170.469 216.037 171.637 215.452 171.637 215.452C171.637 215.452 172.805 216.037 172.805 216.759Z" fill="#3F3D56"/>
<path d="M164.631 211.384C165.277 211.384 165.799 210.799 165.799 210.076C165.799 209.354 165.277 208.769 164.631 208.769C163.987 208.769 163.464 209.354 163.464 210.076C163.464 210.799 163.987 211.384 164.631 211.384Z" fill="#3F3D56"/>
<path d="M147.65 207.266L166.066 210.114C166.232 210.14 166.393 210.203 166.537 210.3C166.681 210.397 166.806 210.526 166.904 210.679C167.003 210.832 167.072 211.005 167.11 211.189C167.146 211.372 167.15 211.563 167.119 211.748C167.089 211.933 167.025 212.109 166.932 212.266C166.838 212.423 166.719 212.557 166.577 212.66C166.437 212.764 166.279 212.834 166.114 212.867C165.948 212.9 165.778 212.895 165.614 212.852L147.505 208.149C147.404 208.123 147.316 208.054 147.26 207.957C147.203 207.861 147.182 207.743 147.201 207.63C147.219 207.516 147.277 207.415 147.361 207.347C147.444 207.279 147.548 207.25 147.65 207.266Z" fill="#E4E4E4"/>
<path d="M170.028 142.289V103H167.693V142.289C164.502 142.615 161.536 144.265 159.375 146.915C157.215 149.565 156.017 153.023 156.017 156.611V160.534H164.19C164.19 161.921 164.682 163.251 165.558 164.232C166.434 165.213 167.622 165.764 168.86 165.764C170.099 165.764 171.287 165.213 172.164 164.232C173.039 163.251 173.531 161.921 173.531 160.534H181.704V156.611C181.704 153.023 180.506 149.565 178.346 146.915C176.186 144.265 173.219 142.615 170.028 142.289Z" fill="#F0F0F0"/>
<path d="M200.094 132.467V103H198.343V132.467C195.95 132.711 193.725 133.949 192.105 135.936C190.485 137.923 189.586 140.517 189.585 143.208V146.15H195.716C195.716 147.191 196.085 148.188 196.742 148.924C197.399 149.66 198.289 150.073 199.219 150.073C200.148 150.073 201.039 149.66 201.696 148.924C202.353 148.188 202.722 147.191 202.722 146.15H208.852V143.208C208.852 140.517 207.953 137.923 206.333 135.936C204.712 133.949 202.487 132.711 200.094 132.467Z" fill="#F0F0F0"/>
<path d="M140.934 132.467V103H139.184V132.467C136.79 132.711 134.566 133.949 132.945 135.936C131.325 137.923 130.427 140.517 130.427 143.208V146.15H136.556C136.556 147.191 136.925 148.188 137.583 148.924C138.239 149.66 139.13 150.073 140.059 150.073C140.988 150.073 141.879 149.66 142.536 148.924C143.193 148.188 143.562 147.191 143.562 146.15H149.692V143.208C149.692 140.517 148.793 137.923 147.173 135.936C145.553 133.949 143.328 132.711 140.934 132.467Z" fill="#F0F0F0"/>
<path d="M246.349 172.28C244.696 170.122 243.91 167.259 242.59 164.808C241.269 162.358 238.97 160.164 236.542 160.735C234.867 161.128 233.573 162.782 232.919 164.626C232.263 166.471 232.14 168.505 232.026 170.498C232.067 166.403 229.658 162.433 226.338 161.126C223.02 159.819 219.049 161.277 216.964 164.567C216.053 163.622 214.865 163.084 213.625 163.055C212.385 163.026 211.178 163.508 210.233 164.409C208.368 166.275 207.955 169.829 209.327 172.21C210.699 174.591 213.67 175.478 215.85 174.158L216.62 174.952C216.186 176.651 217.027 178.658 218.442 179.297C219.588 179.816 221.207 179.73 221.636 181.077C221.936 182.019 221.375 183.024 220.779 183.748C220.183 184.471 219.476 185.219 219.404 186.22C219.296 187.731 220.69 188.789 221.957 189.108C225.013 189.876 228.403 188.292 230.165 185.272C230.199 185.213 230.236 185.155 230.276 185.097C231.264 183.681 231.984 182.055 232.392 180.318C232.801 178.581 232.888 176.768 232.649 174.992C232.551 174.294 232.65 173.775 233.08 173.609C234.937 172.895 240.141 174.394 241.716 175.75C243.291 177.105 244.553 178.899 246.07 180.342C247.587 181.784 249.521 182.897 251.447 182.504C252.99 182.19 254.301 180.935 255.185 179.423C256.067 177.91 256.575 176.146 257.031 174.394C253.619 176.601 248.95 175.677 246.349 172.28Z" fill="#2F2E41"/>
<path d="M310.591 127H273.283V170H310.591V127Z" fill="#F1747B"/>
<path d="M32.3899 143H54.4749C54.4749 143 52.3857 153.174 52.3857 160.093C52.3857 167.012 54.4749 178 54.4749 178H32.3899C32.3899 178 30.5992 166.605 30.3007 160.093C30.0023 153.581 32.3899 143 32.3899 143Z" fill="#FFA3A8"/>
<path d="M195.223 44.7686L181.987 62.3017C181.987 62.3017 175.026 54.5453 169.442 50.3988C163.858 46.2523 153.736 41.3252 153.736 41.3252L166.973 23.7922C166.973 23.7922 177.244 29.2001 182.679 32.8658C188.113 36.5314 195.223 44.7686 195.223 44.7686Z" fill="#FFA3A8"/>
<path d="M76.084 35.2302L88.168 53.5633C88.168 53.5633 78.4377 57.3961 72.5985 61.1817C66.7591 64.9673 58.628 72.7139 58.628 72.7139L46.5439 54.3809C46.5439 54.3809 55.1818 46.6594 60.5144 42.8487C65.8469 39.038 76.084 35.2302 76.084 35.2302Z" fill="#FFA3A8"/>
<path d="M348.908 30H311.6V73H348.908V30Z" fill="#F1747B"/>
</g>
</svg>
