<svg width="304" height="270" viewBox="0 0 304 270" fill="none" xmlns="http://www.w3.org/2000/svg">
<ellipse cx="152" cy="135" rx="152" ry="135" fill="#FFD0D0"/>
<path d="M186.95 249.358L143.512 161.652C143.498 161.438 143.44 161.23 143.338 161.047C143.237 160.864 143.097 160.712 142.932 160.604C142.741 160.482 142.523 160.423 142.304 160.434C142.297 160.434 142.289 160.434 142.282 160.434C142.275 160.434 142.268 160.434 142.261 160.434C141.965 160.419 141.673 160.532 141.45 160.752C141.226 160.971 141.086 161.279 141.059 161.61L95.0208 249.358C94.9442 249.507 94.8938 249.671 94.8736 249.842C94.8534 250.012 94.8635 250.185 94.9039 250.351C94.9432 250.517 95.0117 250.672 95.1055 250.809C95.1983 250.945 95.3153 251.059 95.4474 251.145C95.5805 251.231 95.7277 251.287 95.8789 251.309C96.0312 251.332 96.1854 251.32 96.3337 251.276C96.4819 251.231 96.621 251.154 96.7431 251.05C96.8641 250.945 96.9669 250.815 97.0425 250.666L142.252 164.5L184.928 250.666C185.005 250.815 185.106 250.945 185.228 251.05C185.349 251.154 185.489 251.231 185.637 251.276C185.785 251.32 185.939 251.332 186.091 251.309C186.244 251.287 186.39 251.231 186.523 251.145C186.656 251.059 186.772 250.945 186.866 250.809C186.959 250.672 187.027 250.517 187.068 250.351C187.107 250.185 187.117 250.012 187.097 249.842C187.077 249.671 187.027 249.507 186.95 249.358Z" fill="#3F3D56"/>
<path d="M135.085 234.31L139.994 233.049L137.986 211.24L130.74 213.102L135.085 234.31Z" fill="#FFB6B6"/>
<path d="M138.881 223.775L131.893 225.57L129.659 220.68L129.533 220.507C128.542 219.145 127.991 217.447 127.972 215.69L122.164 198.486L121.689 198.233C121.322 198.037 120.996 197.756 120.734 197.408C120.471 197.06 120.277 196.654 120.166 196.215C120.056 195.777 120.029 195.317 120.09 194.867C120.149 194.416 120.296 193.985 120.516 193.603L119.901 191.781L102.552 191.817L102.535 191.812L81.2307 185.119L83.4682 170.186L89.4607 174.408C91.435 174.264 125.263 171.938 128.387 180.428C131.17 187.988 135.181 200.904 138.054 210.408C138.198 210.834 138.376 211.245 138.587 211.635C139.034 212.407 139.297 213.294 139.349 214.211C139.382 214.61 139.451 215.005 139.552 215.39C140.747 219.389 138.927 223.669 138.908 223.712L138.881 223.775Z" fill="#2F2E41"/>
<path d="M133.426 232.487L135.022 232.077L140.673 227.637L144.596 229.617C146.483 229.132 148.466 229.507 150.107 230.659C151.748 231.811 152.913 233.645 153.347 235.759L153.399 236.018L135.112 240.717L133.426 232.487Z" fill="#2F2E41"/>
<path d="M60.9314 232.977C61.4306 226.892 64.6133 220.8 69.7182 218.642C67.8616 224.953 68.0583 231.796 70.2735 237.961C71.1355 240.335 72.3151 242.875 71.6385 245.323C71.2175 246.846 70.1151 248.04 68.8665 248.806C67.6178 249.573 66.2189 249.967 64.8375 250.353L64.571 250.617C62.2025 245.112 60.4322 239.062 60.9314 232.977Z" fill="#F0F0F0"/>
<path d="M69.7727 218.754C66.8752 222.634 65.1429 227.437 64.8219 232.482C64.7356 233.567 64.8024 234.66 65.02 235.722C65.2619 236.748 65.7447 237.683 66.4184 238.429C67.0341 239.14 67.7372 239.786 68.1879 240.652C68.4128 241.099 68.5507 241.594 68.5928 242.105C68.6348 242.615 68.5799 243.13 68.4318 243.616C68.0907 244.836 67.3786 245.846 66.6515 246.806C65.8441 247.873 64.9906 248.967 64.6742 250.354C64.6359 250.522 64.4053 250.445 64.4435 250.277C64.9939 247.864 67.0274 246.432 67.9541 244.243C68.3864 243.221 68.5465 242.048 68.0837 241.003C67.6791 240.089 66.9544 239.421 66.3256 238.708C65.6589 237.991 65.1592 237.101 64.8702 236.118C64.605 235.072 64.5006 233.984 64.5615 232.899C64.6638 230.454 65.1087 228.043 65.8799 225.753C66.7471 223.134 68.0079 220.701 69.6078 218.558C69.707 218.426 69.8711 218.623 69.7727 218.754Z" fill="white"/>
<path d="M64.8396 230.851C64.0911 230.676 63.4226 230.208 62.9534 229.532C62.4843 228.856 62.2451 228.015 62.2785 227.159C62.2801 227.124 62.2938 227.092 62.3166 227.068C62.3395 227.044 62.3696 227.031 62.4008 227.032C62.4319 227.032 62.4617 227.047 62.4838 227.071C62.5058 227.096 62.5184 227.129 62.5189 227.164C62.4866 227.961 62.7094 228.744 63.1474 229.373C63.5855 230.002 64.2098 230.434 64.9077 230.593C65.0593 230.627 64.9904 230.886 64.8396 230.851Z" fill="white"/>
<path d="M66.0638 238.115C67.3796 237.17 68.3288 235.704 68.7224 234.01C68.7612 233.842 68.9918 233.919 68.953 234.086C68.5406 235.848 67.55 237.372 66.1789 238.352C66.0481 238.445 65.9338 238.208 66.0639 238.115H66.0638Z" fill="white"/>
<path d="M66.9773 223.381C67.2543 223.517 67.557 223.573 67.8582 223.545C68.1594 223.517 68.4497 223.406 68.703 223.221C68.8326 223.126 68.9468 223.363 68.818 223.457C68.5373 223.66 68.2165 223.782 67.8839 223.814C67.5512 223.846 67.2166 223.786 66.9093 223.64C66.8793 223.628 66.8542 223.605 66.8391 223.574C66.824 223.543 66.82 223.507 66.828 223.472C66.8372 223.438 66.858 223.409 66.886 223.392C66.9139 223.375 66.9468 223.371 66.9773 223.381Z" fill="white"/>
<path d="M85.7614 228.901C85.6817 228.963 85.6031 229.025 85.5234 229.089C84.4596 229.929 83.4573 230.864 82.5286 231.885C82.456 231.962 82.3834 232.042 82.3129 232.122C80.0986 234.609 78.3148 237.535 77.0544 240.751C76.5543 242.031 76.1409 243.352 75.8192 244.702C75.3755 246.567 75.0267 248.628 74.086 250.175C73.9894 250.337 73.884 250.493 73.7703 250.641L64.8789 250.961C64.8583 250.95 64.8377 250.942 64.8172 250.931L64.4626 250.962C64.4748 250.891 64.489 250.818 64.5012 250.747C64.5081 250.706 64.5171 250.664 64.5241 250.623C64.5293 250.596 64.5346 250.568 64.538 250.543C64.5397 250.534 64.5415 250.525 64.5433 250.518C64.5466 250.493 64.5521 250.47 64.5555 250.447C64.6331 250.037 64.7134 249.627 64.7964 249.217C64.7964 249.215 64.7964 249.215 64.7983 249.212C65.404 246.081 66.3394 243.041 67.5846 240.157C67.6228 240.071 67.6609 239.983 67.7031 239.898C68.2814 238.62 68.9519 237.397 69.7082 236.242C70.124 235.61 70.5682 235.003 71.0389 234.422C72.2578 232.924 73.6794 231.649 75.2515 230.646C78.3864 228.645 82.0577 227.79 85.4992 228.819C85.5869 228.846 85.6736 228.872 85.7614 228.901Z" fill="#F0F0F0"/>
<path d="M85.7452 229.028C81.3458 230.172 77.3801 232.839 74.4115 236.651C73.7593 237.459 73.2251 238.377 72.8283 239.371C72.4696 240.354 72.3524 241.426 72.4889 242.476C72.5987 243.458 72.8124 244.449 72.7069 245.443C72.6462 245.952 72.4903 246.44 72.2493 246.876C72.0082 247.312 71.6876 247.687 71.3084 247.974C70.3801 248.718 69.2684 249.045 68.1714 249.322C66.9534 249.629 65.6838 249.926 64.6856 250.821C64.5646 250.929 64.4216 250.712 64.5424 250.604C66.2792 249.049 68.673 249.276 70.5896 248.153C71.484 247.629 72.2428 246.8 72.4352 245.653C72.6034 244.651 72.3838 243.629 72.265 242.636C72.1185 241.613 72.1976 240.566 72.4958 239.586C72.8461 238.572 73.3479 237.633 73.9798 236.808C75.3755 234.925 77.0271 233.3 78.8744 231.991C80.9748 230.485 83.2899 229.392 85.719 228.76C85.8692 228.721 85.8944 228.989 85.7452 229.028Z" fill="white"/>
<path d="M75.3028 235.361C74.7996 234.716 74.5173 233.892 74.5062 233.036C74.4951 232.179 74.7563 231.347 75.2423 230.686C75.3411 230.553 75.5307 230.719 75.4319 230.852C74.9781 231.466 74.7351 232.242 74.7462 233.039C74.7583 233.837 75.0235 234.603 75.4964 235.2C75.5982 235.33 75.4046 235.49 75.3028 235.361Z" fill="white"/>
<path d="M72.3748 241.986C73.9335 242.118 75.4793 241.588 76.7044 240.501C76.8254 240.393 76.9686 240.609 76.8476 240.717C75.5711 241.846 73.9613 242.394 72.3395 242.252C72.1849 242.239 72.2211 241.972 72.3748 241.986Z" fill="white"/>
<path d="M81.0251 230.837C81.1733 231.132 81.385 231.381 81.6412 231.562C81.8963 231.743 82.1877 231.85 82.4892 231.873C82.6445 231.884 82.6081 232.151 82.4539 232.139C82.1211 232.112 81.7995 231.993 81.5161 231.794C81.2338 231.595 80.9988 231.322 80.8325 230.998C80.8143 230.969 80.8062 230.933 80.8113 230.898C80.8163 230.863 80.8325 230.831 80.8567 230.809C80.8829 230.788 80.9151 230.779 80.9464 230.785C80.9777 230.79 81.0059 230.809 81.0251 230.837Z" fill="white"/>
<path d="M206.404 232.977C205.905 226.892 202.723 220.8 197.618 218.642C199.474 224.953 199.278 231.796 197.062 237.961C196.2 240.335 195.02 242.875 195.697 245.323C196.118 246.846 197.221 248.04 198.47 248.806C199.718 249.573 201.117 249.967 202.498 250.353L202.765 250.617C205.133 245.112 206.904 239.062 206.404 232.977Z" fill="#F0F0F0"/>
<path d="M197.563 218.754C200.46 222.634 202.192 227.437 202.514 232.482C202.6 233.567 202.533 234.66 202.315 235.722C202.073 236.748 201.591 237.683 200.917 238.429C200.302 239.14 199.599 239.786 199.148 240.652C198.923 241.099 198.785 241.594 198.743 242.105C198.701 242.615 198.756 243.13 198.904 243.616C199.245 244.836 199.957 245.846 200.684 246.806C201.492 247.873 202.345 248.967 202.661 250.354C202.7 250.522 202.931 250.445 202.892 250.277C202.342 247.864 200.308 246.432 199.381 244.243C198.95 243.221 198.789 242.048 199.252 241.003C199.657 240.089 200.382 239.421 201.01 238.708C201.677 237.991 202.176 237.101 202.466 236.118C202.731 235.072 202.835 233.984 202.774 232.899C202.671 230.454 202.227 228.043 201.455 225.753C200.588 223.134 199.328 220.701 197.728 218.558C197.629 218.426 197.464 218.623 197.563 218.754Z" fill="white"/>
<path d="M202.496 230.851C203.244 230.676 203.913 230.209 204.383 229.532C204.852 228.856 205.091 228.015 205.057 227.159C205.055 227.125 205.042 227.092 205.019 227.068C204.997 227.044 204.967 227.031 204.935 227.032C204.904 227.032 204.874 227.047 204.852 227.071C204.83 227.096 204.817 227.129 204.817 227.164C204.85 227.961 204.627 228.744 204.188 229.373C203.75 230.002 203.126 230.434 202.429 230.593C202.276 230.628 202.346 230.886 202.496 230.851Z" fill="white"/>
<path d="M201.272 238.115C199.956 237.17 199.007 235.704 198.613 234.01C198.574 233.842 198.344 233.919 198.383 234.086C198.795 235.848 199.786 237.372 201.157 238.352C201.288 238.445 201.402 238.208 201.272 238.115Z" fill="white"/>
<path d="M200.358 223.381C200.081 223.517 199.778 223.573 199.477 223.545C199.176 223.517 198.886 223.406 198.632 223.221C198.503 223.126 198.389 223.363 198.517 223.457C198.798 223.66 199.119 223.782 199.452 223.814C199.784 223.846 200.119 223.786 200.426 223.64C200.456 223.628 200.481 223.605 200.496 223.574C200.511 223.543 200.516 223.507 200.507 223.472C200.498 223.438 200.477 223.409 200.45 223.392C200.422 223.375 200.388 223.371 200.358 223.381Z" fill="white"/>
<path d="M181.574 228.901C181.654 228.963 181.734 229.025 181.813 229.089C182.877 229.929 183.878 230.864 184.807 231.885C184.881 231.962 184.953 232.042 185.024 232.122C187.238 234.609 189.021 237.535 190.281 240.751C190.782 242.031 191.195 243.352 191.516 244.702C191.961 246.567 192.31 248.628 193.25 250.175C193.347 250.337 193.452 250.493 193.565 250.641L202.457 250.961C202.478 250.95 202.498 250.942 202.519 250.931L202.873 250.962C202.861 250.891 202.847 250.818 202.835 250.747C202.828 250.706 202.819 250.664 202.812 250.623C202.807 250.596 202.802 250.568 202.799 250.543C202.797 250.534 202.795 250.525 202.793 250.518C202.79 250.493 202.783 250.47 202.78 250.447C202.703 250.037 202.623 249.627 202.539 249.217C202.539 249.215 202.539 249.215 202.537 249.212C201.932 246.081 200.997 243.041 199.751 240.157C199.713 240.071 199.675 239.983 199.633 239.898C199.055 238.62 198.384 237.397 197.628 236.242C197.212 235.61 196.768 235.003 196.297 234.422C195.079 232.924 193.657 231.649 192.084 230.646C188.949 228.645 185.278 227.79 181.836 228.819C181.749 228.846 181.663 228.872 181.574 228.901Z" fill="#F0F0F0"/>
<path d="M181.59 229.028C185.99 230.172 189.955 232.839 192.924 236.651C193.576 237.459 194.111 238.377 194.507 239.371C194.866 240.354 194.983 241.426 194.847 242.476C194.737 243.458 194.523 244.448 194.629 245.443C194.69 245.952 194.846 246.44 195.087 246.876C195.328 247.312 195.648 247.687 196.028 247.974C196.955 248.718 198.067 249.045 199.165 249.322C200.383 249.629 201.652 249.926 202.65 250.821C202.771 250.929 202.914 250.712 202.793 250.604C201.056 249.049 198.662 249.276 196.747 248.153C195.852 247.629 195.093 246.8 194.9 245.653C194.732 244.651 194.952 243.629 195.071 242.636C195.217 241.613 195.138 240.566 194.84 239.586C194.49 238.572 193.988 237.633 193.355 236.808C191.96 234.925 190.308 233.3 188.462 231.991C186.362 230.485 184.047 229.392 181.616 228.76C181.466 228.721 181.441 228.989 181.59 229.028Z" fill="white"/>
<path d="M192.033 235.361C192.537 234.716 192.819 233.892 192.83 233.036C192.841 232.179 192.58 231.347 192.093 230.686C191.994 230.553 191.805 230.719 191.904 230.852C192.358 231.466 192.601 232.242 192.589 233.039C192.577 233.837 192.312 234.603 191.84 235.2C191.737 235.33 191.931 235.49 192.033 235.361Z" fill="white"/>
<path d="M194.961 241.986C193.403 242.118 191.856 241.588 190.631 240.501C190.51 240.393 190.367 240.609 190.488 240.717C191.765 241.846 193.375 242.394 194.996 242.252C195.151 242.239 195.115 241.972 194.961 241.986Z" fill="white"/>
<path d="M186.31 230.837C186.162 231.132 185.95 231.381 185.695 231.562C185.439 231.743 185.148 231.85 184.846 231.873C184.692 231.884 184.728 232.151 184.881 232.139C185.214 232.112 185.537 231.993 185.819 231.794C186.101 231.595 186.336 231.322 186.504 230.998C186.521 230.969 186.529 230.933 186.524 230.898C186.52 230.863 186.503 230.831 186.479 230.809C186.452 230.788 186.421 230.779 186.389 230.785C186.358 230.79 186.329 230.809 186.31 230.837Z" fill="white"/>
<path d="M267.884 251.448C267.884 251.539 267.852 251.627 267.794 251.692C267.736 251.757 267.657 251.793 267.576 251.794H36.3087C36.2269 251.794 36.1483 251.757 36.0904 251.692C36.0326 251.627 36 251.54 36 251.448C36 251.356 36.0326 251.268 36.0904 251.203C36.1483 251.138 36.2269 251.102 36.3087 251.102H267.576C267.657 251.102 267.736 251.139 267.794 251.204C267.852 251.268 267.884 251.356 267.884 251.448Z" fill="#3F3D56"/>
<path d="M184.966 117.685C185.61 117.685 186.134 117.1 186.134 116.378C186.134 115.655 185.61 115.07 184.966 115.07C184.321 115.07 183.798 115.655 183.798 116.378C183.798 117.1 184.321 117.685 184.966 117.685Z" fill="#3F3D56"/>
<path d="M170.345 126.45L186.086 115.375C186.229 115.274 186.388 115.207 186.554 115.178C186.72 115.149 186.89 115.157 187.052 115.203C187.216 115.249 187.369 115.332 187.503 115.446C187.636 115.56 187.748 115.703 187.831 115.867C187.915 116.031 187.967 116.212 187.985 116.399C188.004 116.586 187.988 116.776 187.94 116.956C187.891 117.137 187.811 117.304 187.703 117.449C187.595 117.593 187.462 117.712 187.313 117.797L170.741 127.23C170.648 127.283 170.542 127.293 170.443 127.26C170.344 127.227 170.261 127.152 170.209 127.051C170.159 126.951 170.145 126.832 170.17 126.72C170.195 126.608 170.258 126.511 170.345 126.45Z" fill="#E4E4E4"/>
<path d="M138.764 150.297C138.64 150.09 138.576 149.846 138.579 149.598C138.582 149.349 138.653 149.107 138.782 148.905C139.049 148.505 139.404 148.19 139.811 147.991C140.654 147.511 141.561 147.19 142.496 147.041C143.208 146.928 143.983 146.891 144.535 146.376C145.083 145.865 145.389 144.908 146.099 144.828C146.785 144.751 147.313 145.592 148.001 145.644C148.849 145.709 149.404 144.597 150.23 144.369C150.783 144.216 151.35 144.486 151.869 144.749L154.979 146.329L156.573 147.139C157.13 147.422 157.758 147.803 157.863 148.478C158.008 149.404 157.088 150.058 156.3 150.388C150.68 152.71 144.504 152.711 138.883 150.39" fill="#ED212B"/>
<path d="M143.45 167.373C166.021 167.373 184.317 164.446 184.317 160.835C184.317 157.224 166.021 154.297 143.45 154.297C120.88 154.297 102.583 157.224 102.583 160.835C102.583 164.446 120.88 167.373 143.45 167.373Z" fill="#3F3D56"/>
<path d="M226.351 201.37H198.328C197.039 201.37 195.993 202.541 195.993 203.986C195.993 205.43 197.039 206.601 198.328 206.601H226.351C227.641 206.601 228.686 205.43 228.686 203.986C228.686 202.541 227.641 201.37 226.351 201.37Z" fill="#3F3D56"/>
<path d="M239.932 154.745L230.677 203.983L233.088 216.585L237.638 240.368V251.058C237.639 251.073 237.638 251.088 237.636 251.102C237.634 251.338 237.596 251.572 237.521 251.794H233.863C233.79 251.572 233.75 251.338 233.749 251.102C233.747 251.088 233.746 251.073 233.746 251.058V240.827L229.616 219.241L228.78 214.882L227.164 206.435L226.697 203.988V203.986L227.159 201.533L227.514 199.641L236.123 153.85C236.175 153.57 236.276 153.304 236.42 153.067C236.565 152.831 236.749 152.628 236.963 152.471C237.178 152.315 237.417 152.207 237.668 152.154C237.92 152.101 238.178 152.104 238.428 152.163C238.678 152.221 238.915 152.335 239.127 152.497C239.337 152.658 239.518 152.865 239.658 153.105C239.797 153.344 239.894 153.613 239.94 153.894C239.988 154.176 239.985 154.465 239.932 154.745Z" fill="#3F3D56"/>
<path d="M200.275 203.985V251.058C200.275 251.073 200.274 251.088 200.272 251.102C200.271 251.338 200.231 251.572 200.158 251.794H196.5C196.425 251.572 196.387 251.338 196.386 251.102C196.383 251.088 196.383 251.073 196.383 251.058V203.985C196.383 203.407 196.587 202.853 196.952 202.444C197.317 202.036 197.812 201.806 198.329 201.806C198.845 201.806 199.34 202.036 199.705 202.444C200.07 202.853 200.275 203.407 200.275 203.985Z" fill="#3F3D56"/>
<path d="M202.999 196.14H221.681C223.539 196.14 225.321 196.967 226.634 198.438C227.948 199.909 228.686 201.905 228.686 203.986H195.993C195.993 201.905 196.731 199.909 198.045 198.438C199.359 196.967 201.141 196.14 202.999 196.14Z" fill="#3F3D56"/>
<path d="M231.022 219.241H198.329C197.812 219.241 197.317 219.011 196.952 218.602C196.587 218.194 196.383 217.639 196.383 217.061C196.383 216.483 196.587 215.929 196.952 215.52C197.317 215.112 197.812 214.882 198.329 214.882H231.022C231.538 214.882 232.033 215.112 232.398 215.52C232.763 215.929 232.968 216.483 232.968 217.061C232.968 217.639 232.763 218.194 232.398 218.602C232.033 219.011 231.538 219.241 231.022 219.241Z" fill="#3F3D56"/>
<path d="M78.9479 206.68H111.924C113.214 206.68 114.26 205.509 114.26 204.065V203.272C114.26 201.828 113.214 200.657 111.924 200.657H78.9479C77.6582 200.657 76.6125 201.828 76.6125 203.272V204.065C76.6125 205.509 77.6582 206.68 78.9479 206.68Z" fill="#3F3D56"/>
<path d="M78.6082 203.704L78.0113 206.458L75.8212 216.547L74.8774 220.906L70.4919 241.124V249.896C70.4931 250.326 70.3792 250.746 70.165 251.102C69.9967 251.39 69.7677 251.628 69.4983 251.794H67.5937C67.3242 251.628 67.0952 251.39 66.9269 251.102C66.7127 250.746 66.5987 250.326 66.5998 249.896V240.601L71.4728 218.139L74.6172 203.634L63.9533 146.9C63.9005 146.62 63.8975 146.331 63.9446 146.049C63.9916 145.768 64.0876 145.5 64.2272 145.26C64.3668 145.02 64.5473 144.814 64.7582 144.652C64.9691 144.491 65.2064 144.377 65.4565 144.318C65.7067 144.26 65.9646 144.257 66.2158 144.31C66.467 144.362 66.7063 144.47 66.9202 144.627C67.1342 144.784 67.3184 144.986 67.4624 145.222C67.6065 145.459 67.7075 145.724 67.7597 146.005L77.617 198.433L78.0707 200.85L78.6001 203.669L78.6082 203.704Z" fill="#3F3D56"/>
<path d="M113.518 203.669V249.896C113.519 250.326 113.405 250.746 113.191 251.102C113.023 251.39 112.794 251.628 112.523 251.794H110.617C110.348 251.627 110.121 251.389 109.952 251.102C109.738 250.746 109.624 250.326 109.625 249.896V203.669C109.625 203.091 109.83 202.536 110.195 202.128C110.56 201.719 111.055 201.49 111.572 201.49C112.088 201.49 112.583 201.719 112.948 202.128C113.313 202.536 113.518 203.091 113.518 203.669Z" fill="#3F3D56"/>
<path d="M114.26 203.668H76.6125V202.48C76.6125 201.449 76.794 200.429 77.146 199.477C77.4979 198.526 78.0141 197.661 78.6645 196.932C79.3149 196.204 80.0873 195.626 80.9373 195.231C81.7873 194.837 82.6988 194.634 83.6184 194.634H107.254C109.112 194.634 110.894 195.461 112.208 196.932C113.522 198.403 114.26 200.399 114.26 202.48V203.668Z" fill="#3F3D56"/>
<path d="M111.571 220.905H73.9235C73.4075 220.905 72.9125 220.675 72.5475 220.266C72.1825 219.858 71.9775 219.303 71.9775 218.725C71.9775 218.147 72.1825 217.593 72.5475 217.184C72.9125 216.776 73.4075 216.546 73.9235 216.546H111.571C112.087 216.546 112.582 216.776 112.947 217.184C113.312 217.593 113.517 218.147 113.517 218.725C113.517 219.303 113.312 219.858 112.947 220.266C112.582 220.675 112.087 220.905 111.571 220.905Z" fill="#3F3D56"/>
<path d="M159.953 239.915L155.863 237.725L161.481 218.579L167.518 221.812L159.953 239.915Z" fill="#FFB6B6"/>
<path d="M187.672 238.181L183.274 239.396L176.901 220.553L183.393 218.76L187.672 238.181Z" fill="#FFB6B6"/>
<path d="M170.815 156.7C171.399 157.761 172.33 158.524 173.409 158.828C174.487 159.131 175.63 158.95 176.592 158.323C176.784 158.192 176.968 158.043 177.139 157.878L190.071 166.188L189.51 157.657L177.316 151.074C176.652 150.327 175.786 149.848 174.853 149.712C173.921 149.576 172.975 149.791 172.162 150.322C171.695 150.636 171.288 151.052 170.966 151.545C170.645 152.038 170.414 152.599 170.289 153.193C170.163 153.787 170.146 154.404 170.235 155.006C170.326 155.608 170.523 156.184 170.815 156.7Z" fill="#FFB6B6"/>
<path d="M184.511 163.059L186.797 164.619L197.063 171.629C197.737 172.101 198.488 172.42 199.272 172.568C200.057 172.715 200.859 172.688 201.635 172.487C202.409 172.287 203.142 171.918 203.79 171.4C204.437 170.883 204.986 170.228 205.408 169.472C206.168 168.07 206.436 166.401 206.163 164.79L201.6 139.262C201.431 138.26 201.072 137.311 200.546 136.479C200.019 135.646 199.338 134.952 198.55 134.441C197.762 133.931 196.885 133.617 195.978 133.521C195.071 133.426 194.157 133.551 193.297 133.887C191.852 134.456 190.655 135.619 189.949 137.141C189.243 138.663 189.082 140.429 189.497 142.08L194.268 160.196L186.955 156.378L184.511 163.059Z" fill="#E6E6E6"/>
<path d="M179.107 232.901L172.069 217.094L172.07 217.058L172.764 188.065C172.773 187.807 172.792 187.548 172.82 187.293C172.943 186.131 173.271 185.008 173.786 183.989C174.3 182.97 174.991 182.075 175.817 181.358C176.608 180.665 177.515 180.155 178.484 179.858C179.453 179.561 180.465 179.484 181.461 179.63L201.586 182.546L202.283 179.35L202.413 179.297L221.696 171.383L221.808 171.586C224.333 176.188 226.098 185.379 226.579 188.087L226.586 188.126C226.596 188.183 226.602 188.218 226.604 188.228C227.597 192.848 223.496 200.502 219.409 201.652C210.803 204.109 203.105 202.193 194.192 199.973C190.996 199.177 187.693 198.355 184.055 197.643L184.163 200.041C184.251 201.887 184.594 203.706 185.178 205.435C185.827 207.563 186.34 209.243 185.256 212.747L184.731 214.442C185.004 215.284 185.097 216.185 185.005 217.074C184.913 217.963 184.637 218.815 184.201 219.565L184.096 219.745L188.737 232.898L179.107 232.901Z" fill="#2F2E41"/>
<path d="M167.543 225.91L159.151 225.037L162.124 214.388C162.738 207.435 164.283 200.625 166.71 194.188L170.766 183.425C170.775 183.185 170.793 182.944 170.819 182.708C170.942 181.546 171.27 180.422 171.784 179.403C172.299 178.384 172.989 177.49 173.815 176.773C174.607 176.08 175.513 175.57 176.482 175.273C177.452 174.977 178.463 174.899 179.46 175.044L199.555 177.957L200.43 169.73L219.717 166.84L219.806 167.001C223.177 173.144 225.318 177.952 226.542 182.135C226.603 182.348 226.658 182.566 226.704 182.783C227.703 187.434 225.209 192.15 221.143 193.295C210.781 196.254 198.321 196.171 181.937 193.035L174.009 214.166C173.251 216.184 172.313 218.111 171.209 219.918L167.543 225.91Z" fill="#2F2E41"/>
<path d="M196.818 119.237C202.187 119.237 206.539 114.254 206.539 108.107C206.539 101.96 202.187 96.977 196.818 96.977C191.449 96.977 187.096 101.96 187.096 108.107C187.096 114.254 191.449 119.237 196.818 119.237Z" fill="#FFB6B6"/>
<path d="M199.625 178.345L198.23 172.749L197.887 169.988L195.882 170.063L191.948 159.892L190.419 157.21C190.107 156.843 189.825 156.489 189.572 156.15C187.98 154.134 186.702 151.832 185.795 149.34C185.16 147.549 184.787 145.655 184.69 143.732C184.404 138.049 186.544 132.036 191.23 125.352C191.153 125.115 191.102 124.869 191.078 124.619C190.994 123.807 191.2 122.99 191.65 122.347C192.101 121.705 192.76 121.287 193.484 121.186L198.005 120.617C198.356 120.573 198.712 120.607 199.051 120.718C199.391 120.829 199.708 121.014 199.982 121.263C200.269 121.521 200.508 121.84 200.684 122.202C200.859 122.564 200.969 122.961 201.007 123.371C201.067 124.006 200.956 124.645 200.687 125.208C202.991 125.535 205.162 126.6 206.939 128.275C208.715 129.949 210.023 132.162 210.706 134.648C213.41 140.302 215.566 146.264 217.135 152.433C217.444 153.641 217.307 154.886 217.174 156.09C217.05 157.202 216.923 158.352 217.138 159.498C217.355 160.664 217.879 161.833 218.434 163.071C219.068 164.489 219.725 165.955 219.903 167.45L219.915 167.555L199.625 178.345Z" fill="#E4E4E4"/>
<path opacity="0.2" d="M185.916 149.285C186.818 151.762 188.089 154.052 189.672 156.057C189.942 156.419 190.229 156.775 190.529 157.132L192.067 159.834C197.736 155.076 202.329 136.339 202.329 136.339L195.933 134.946L185.916 149.285Z" fill="black"/>
<path d="M182.043 120.276C182.604 121.354 182.766 122.633 182.497 123.843C182.227 125.053 181.546 126.097 180.6 126.753C180.405 126.883 180.202 126.995 179.991 127.087L180.444 143.776L173.99 139.227L174.55 124.076C174.276 123.068 174.307 121.986 174.639 121C174.971 120.014 175.585 119.178 176.385 118.624C176.852 118.308 177.37 118.1 177.91 118.012C178.449 117.924 178.999 117.958 179.526 118.112C180.054 118.266 180.548 118.537 180.98 118.909C181.413 119.281 181.774 119.746 182.043 120.276Z" fill="#FFB6B6"/>
<path d="M181.011 137.477L173.914 138.607L174.219 155.065C174.237 156.24 174.523 157.389 175.049 158.405C175.575 159.421 176.325 160.269 177.225 160.869C178.327 161.594 179.609 161.899 180.878 161.738C182.148 161.577 183.336 160.958 184.263 159.974L201.019 141.926C202.198 140.673 202.903 138.963 202.991 137.146C203.078 135.329 202.539 133.543 201.488 132.157C200.966 131.466 200.327 130.9 199.607 130.492C198.887 130.083 198.102 129.841 197.296 129.779C196.491 129.718 195.684 129.838 194.92 130.132C194.157 130.427 193.455 130.89 192.855 131.495C192.69 131.661 192.533 131.836 192.383 132.021L181.32 146.274L181.011 137.477Z" fill="#E6E6E6"/>
<path d="M121.653 244.831H126.69L129.086 223.071L121.652 223.072L121.653 244.831Z" fill="#FFB6B6"/>
<path d="M93.1 119.56C98.6529 119.56 103.154 114.519 103.154 108.3C103.154 102.082 98.6529 97.041 93.1 97.041C87.5471 97.041 83.0459 102.082 83.0459 108.3C83.0459 114.519 87.5471 119.56 93.1 119.56Z" fill="#FFB6B6"/>
<path d="M128.334 238.128H121.201L119.382 235.398L118.89 232.826L118.467 232.367C117.892 231.749 117.52 230.932 117.412 230.048C117.303 229.164 117.465 228.265 117.87 227.497L112.7 200.485C111.346 200.351 96.0755 198.822 85.4608 196.719C82.7443 196.18 80.6238 194.702 79.1567 192.323C75.5539 186.48 77.0977 177.024 77.1128 176.93L77.1309 176.824L77.2257 176.812L102.02 173.696L102.053 173.714C102.876 174.15 122.241 184.445 125.405 187.989C126.834 189.589 130.022 199.097 130.736 209.205C130.864 211.015 130.403 212.859 129.959 214.643C129.542 216.311 129.112 218.037 129.197 219.668C129.328 222.185 129.452 224.825 129.566 227.515C129.584 227.944 129.873 228.387 130.152 228.816C130.444 229.265 130.719 229.688 130.736 230.131C130.905 234.427 128.399 238.037 128.373 238.073L128.334 238.128Z" fill="#2F2E41"/>
<path d="M129.958 138.29C129.418 138.124 128.852 138.093 128.301 138.2C127.748 138.306 127.224 138.546 126.764 138.903C126.304 139.261 125.92 139.727 125.638 140.269C125.356 140.811 125.184 141.415 125.134 142.04L116.781 144.964L117.128 151.082L128.873 146.768C129.816 146.793 130.735 146.431 131.454 145.749C132.174 145.067 132.645 144.113 132.779 143.068C132.913 142.023 132.699 140.959 132.18 140.079C131.659 139.198 130.869 138.561 129.958 138.29Z" fill="#FFB6B6"/>
<path d="M124.508 148.414L118.265 151.06L118.105 151.407C117.722 152.239 117.06 152.866 116.264 153.151C115.469 153.436 114.605 153.355 113.861 152.927L99.8285 158.875C99.8285 158.875 93.5617 151.851 89.0999 145.584L90.6204 135.109C90.9723 132.679 91.7205 130.342 92.8287 128.215C101.979 130.462 107.232 144.787 107.232 144.787L123.723 141.263L124.508 148.414Z" fill="#ED212B"/>
<path d="M91.671 118.958C89.1532 119.719 86.3783 118.707 84.4141 116.787C82.4498 114.867 81.2217 112.147 80.5138 109.337C79.9945 107.279 79.7495 104.994 80.5673 103.062C81.385 101.13 83.5882 99.827 85.2863 100.802C84.2386 99.435 84.7619 97.173 85.9861 96.003C87.2102 94.834 88.8911 94.498 90.4923 94.315C92.8155 94.049 95.2153 94.019 97.4266 94.862C99.6369 95.705 101.645 97.548 102.338 100.046C103.045 100.414 103.841 100.51 104.601 100.317C105.361 100.125 106.043 99.656 106.54 98.983C106.668 99.756 106.565 100.554 106.248 101.255C105.929 101.955 105.415 102.519 104.781 102.859L108.168 101.629C108.751 103.01 107.731 104.719 106.425 105.161C105.12 105.603 103.711 105.12 102.472 104.481C101.233 103.842 100.033 103.035 98.687 102.785C97.3419 102.536 95.7608 103.02 95.1387 104.379C94.813 105.091 94.7959 105.925 94.6063 106.696C94.4177 107.467 93.9378 108.267 93.2259 108.33C92.7762 108.37 92.3355 108.102 91.8868 108.157C91.3302 108.225 90.9047 108.789 90.7565 109.393C90.6446 110.009 90.6436 110.643 90.7525 111.26L91.6136 118.625" fill="#2F2E41"/>
<path d="M79.2152 193.669C79.2132 193.669 79.2112 193.669 79.2091 193.668L79.1295 193.653L79.1063 193.566C78.8179 192.478 78.4499 191.363 78.0939 190.285C77.5706 188.792 77.1279 187.265 76.769 185.713C76.4876 184.228 76.292 182.724 76.1841 181.211C76.0843 180.113 75.9825 178.977 75.808 177.859C75.7304 177.362 76.0238 176.892 76.3082 176.438C76.5713 176.016 76.8194 175.618 76.768 175.241C76.7145 174.856 76.3324 174.433 75.9633 174.024C75.559 173.575 75.1415 173.111 75.082 172.623C74.2761 165.963 73.901 159.247 73.9595 152.526C74.0428 143.228 74.4185 136.89 75.075 133.688C76.8406 125.079 84.999 123.508 86.2765 123.314C86.4127 122.908 86.6214 122.538 86.8906 122.227C87.1599 121.916 87.4835 121.67 87.8415 121.505C88.1994 121.339 88.5836 121.258 88.9698 121.267C89.357 121.275 89.7382 121.372 90.0901 121.553L95.887 124.524C97.0627 125.129 98.1154 125.999 98.9785 127.078C99.8417 128.158 100.497 129.425 100.904 130.8L101.766 133.74L102.197 153.476L99.8064 167.373L104.477 175.219C79.5852 190.523 79.2948 193.669 79.2152 193.669Z" fill="#ED212B"/>
<path d="M118.942 242.638H120.58L126.974 239.726L130.401 242.638H130.402C132.339 242.638 134.196 243.5 135.566 245.033C136.935 246.567 137.704 248.647 137.704 250.816V251.082H118.942V242.638Z" fill="#2F2E41"/>
<path d="M132.05 152.373C131.567 152.055 131.028 151.86 130.471 151.802C129.913 151.743 129.351 151.822 128.824 152.032C128.297 152.243 127.817 152.581 127.418 153.022C127.02 153.463 126.714 153.996 126.519 154.584L117.774 154.966L116.595 159.528L129.028 160.241C129.932 160.541 130.902 160.459 131.756 160.011C132.61 159.563 133.287 158.78 133.66 157.81C134.032 156.84 134.074 155.751 133.777 154.749C133.481 153.747 132.866 152.901 132.05 152.373Z" fill="#FFB6B6"/>
<path d="M124.867 160.733L115.882 160.607L114.746 160.59L96.4678 160.332C96.4678 160.332 91.5048 155.029 87.1831 149.57L87.7891 144.663C88.38 139.848 90.5126 135.437 93.7907 132.251C99.9809 136.883 103.571 146.051 103.571 146.051L109.589 149.067C113.825 149.279 117.952 150.633 121.622 153.013L123.601 154.298L124.867 160.733Z" fill="#ED212B"/>
<path d="M190.881 247.462L187.892 248.288L186.662 245.275L185.993 248.813L178.064 251.004C177.684 251.11 177.285 251.076 176.923 250.908C176.561 250.741 176.256 250.448 176.053 250.073C175.852 249.698 175.761 249.26 175.796 248.824C175.832 248.387 175.991 247.975 176.25 247.646L181.501 241L180.798 237.805L187.554 236.41L190.881 247.462Z" fill="#2F2E41"/>
<path d="M159.215 248.495L156.365 247.192L156.955 243.946L154.553 246.364L146.992 242.908C146.63 242.743 146.325 242.452 146.12 242.078C145.916 241.704 145.824 241.267 145.857 240.83C145.89 240.393 146.048 239.98 146.306 239.65C146.564 239.321 146.909 239.092 147.292 238.998L155.031 237.088L156.141 234.041L162.336 237.368L159.215 248.495Z" fill="#2F2E41"/>
<path d="M149.288 159.673H146.953C144.442 159.67 142.035 158.552 140.26 156.563C138.484 154.575 137.486 151.879 137.483 149.067V148.922H158.759V149.067C158.756 151.879 157.757 154.575 155.983 156.563C154.207 158.552 151.799 159.67 149.288 159.673Z" fill="#E4E4E4"/>
<path d="M146.953 145.144C146.953 145.867 145.785 146.452 145.785 146.452C145.785 146.452 144.618 145.867 144.618 145.144C144.618 144.422 145.785 143.837 145.785 143.837C145.785 143.837 146.953 144.422 146.953 145.144Z" fill="#3F3D56"/>
<path d="M153.959 145.144C153.959 145.867 152.791 146.452 152.791 146.452C152.791 146.452 151.624 145.867 151.624 145.144C151.624 144.422 152.791 143.837 152.791 143.837C152.791 143.837 153.959 144.422 153.959 145.144Z" fill="#3F3D56"/>
<path d="M149.288 147.759C149.288 148.482 148.121 149.067 148.121 149.067C148.121 149.067 146.953 148.482 146.953 147.759C146.953 147.037 148.121 146.452 148.121 146.452C148.121 146.452 149.288 147.037 149.288 147.759Z" fill="#3F3D56"/>
<path d="M141.115 142.384C141.76 142.384 142.282 141.799 142.282 141.076C142.282 140.354 141.76 139.769 141.115 139.769C140.47 139.769 139.947 140.354 139.947 141.076C139.947 141.799 140.47 142.384 141.115 142.384Z" fill="#3F3D56"/>
<path d="M124.133 138.266L142.55 141.114C142.716 141.14 142.876 141.203 143.02 141.3C143.165 141.397 143.29 141.526 143.387 141.679C143.486 141.832 143.556 142.005 143.593 142.189C143.629 142.372 143.633 142.563 143.602 142.748C143.572 142.933 143.508 143.109 143.416 143.266C143.322 143.423 143.202 143.557 143.061 143.66C142.921 143.764 142.762 143.834 142.597 143.867C142.432 143.9 142.261 143.895 142.098 143.852L123.988 139.149C123.887 139.123 123.8 139.054 123.743 138.957C123.687 138.861 123.665 138.743 123.685 138.63C123.703 138.516 123.76 138.415 123.844 138.347C123.928 138.279 124.031 138.25 124.133 138.266Z" fill="#E4E4E4"/>
<path d="M146.511 73.289V34H144.176V73.289C140.986 73.615 138.019 75.265 135.858 77.915C133.698 80.565 132.5 84.023 132.5 87.611V91.534H140.673C140.673 92.921 141.165 94.251 142.041 95.232C142.918 96.213 144.105 96.764 145.344 96.764C146.583 96.764 147.771 96.213 148.647 95.232C149.522 94.251 150.014 92.921 150.014 91.534H158.188V87.611C158.188 84.023 156.99 80.565 154.829 77.915C152.669 75.265 149.703 73.615 146.511 73.289Z" fill="#F0F0F0"/>
<path d="M176.578 63.467V34H174.826V63.467C172.433 63.711 170.208 64.949 168.589 66.936C166.968 68.923 166.07 71.517 166.069 74.208V77.15H172.2C172.2 78.191 172.569 79.188 173.225 79.924C173.882 80.66 174.773 81.073 175.702 81.073C176.631 81.073 177.522 80.66 178.179 79.924C178.836 79.188 179.205 78.191 179.205 77.15H185.335V74.208C185.335 71.517 184.437 68.923 182.816 66.936C181.196 64.949 178.97 63.711 176.578 63.467Z" fill="#F0F0F0"/>
<path d="M117.418 63.467V34H115.667V63.467C113.274 63.711 111.049 64.949 109.429 66.936C107.808 68.923 106.91 71.517 106.91 74.208V77.15H113.04C113.04 78.191 113.409 79.188 114.066 79.924C114.722 80.66 115.614 81.073 116.543 81.073C117.471 81.073 118.363 80.66 119.019 79.924C119.676 79.188 120.045 78.191 120.045 77.15H126.175V74.208C126.175 71.517 125.277 68.923 123.656 66.936C122.036 64.949 119.812 63.711 117.418 63.467Z" fill="#F0F0F0"/>
<path d="M222.832 103.28C221.179 101.122 220.394 98.259 219.073 95.808C217.752 93.358 215.453 91.164 213.025 91.735C211.35 92.128 210.056 93.782 209.402 95.626C208.747 97.471 208.624 99.505 208.51 101.498C208.55 97.403 206.141 93.433 202.822 92.126C199.503 90.819 195.532 92.277 193.447 95.567C192.537 94.622 191.349 94.084 190.109 94.055C188.868 94.026 187.661 94.508 186.717 95.409C184.851 97.275 184.439 100.829 185.81 103.21C187.182 105.591 190.153 106.478 192.333 105.158L193.103 105.952C192.67 107.651 193.511 109.658 194.925 110.297C196.072 110.816 197.69 110.73 198.12 112.077C198.419 113.019 197.859 114.024 197.263 114.748C196.667 115.471 195.959 116.219 195.887 117.22C195.779 118.731 197.173 119.789 198.44 120.108C201.497 120.876 204.887 119.292 206.648 116.272C206.683 116.213 206.72 116.155 206.759 116.097C207.747 114.681 208.467 113.055 208.876 111.318C209.284 109.581 209.372 107.768 209.133 105.992C209.034 105.294 209.134 104.775 209.563 104.609C211.421 103.895 216.625 105.394 218.2 106.75C219.775 108.105 221.036 109.899 222.554 111.342C224.07 112.784 226.004 113.897 227.93 113.504C229.473 113.19 230.785 111.935 231.668 110.423C232.55 108.91 233.059 107.146 233.514 105.394C230.102 107.601 225.434 106.677 222.832 103.28Z" fill="#2F2E41"/>
<g clip-path="url(#clip0)">
<path d="M52.5312 100.812H52.4854C52.5984 99.8279 52.502 98.8306 52.2026 97.8859C51.9031 96.9411 51.4074 96.0704 50.7478 95.3307C50.0882 94.5911 49.2797 93.9992 48.3753 93.5939C47.4709 93.1887 46.491 92.9792 45.5 92.9792C44.509 92.9792 43.5291 93.1887 42.6247 93.5939C41.7203 93.9992 40.9118 94.5911 40.2522 95.3307C39.5926 96.0704 39.0969 96.9411 38.7974 97.8859C38.498 98.8306 38.4016 99.8279 38.5146 100.812H38.4688C37.8471 100.812 37.251 101.059 36.8115 101.499C36.3719 101.938 36.125 102.535 36.125 103.156C36.125 103.778 36.3719 104.374 36.8115 104.814C37.251 105.253 37.8471 105.5 38.4688 105.5H52.5312C53.1529 105.5 53.749 105.253 54.1885 104.814C54.6281 104.374 54.875 103.778 54.875 103.156C54.875 102.535 54.6281 101.938 54.1885 101.499C53.749 101.059 53.1529 100.812 52.5312 100.812ZM44.1025 117.106C44.2257 117.373 44.4228 117.599 44.6705 117.757C44.9181 117.916 45.206 118 45.5 118C45.794 118 46.0819 117.916 46.3295 117.757C46.5772 117.599 46.7743 117.373 46.8975 117.106L51.75 107.062H39.25L44.1025 117.106Z" fill="#F7BBBB"/>
</g>
<g clip-path="url(#clip1)">
<path d="M267.757 130.007C266.968 129.933 266.234 130.418 266.032 131.185L265.309 133.933C274.47 134.201 280.667 140.31 281.055 149.411L283.835 148.641C284.603 148.428 285.08 147.68 284.989 146.888C283.969 138.061 276.64 130.846 267.757 130.007ZM264.902 135.476L260.027 154.006C259.991 154.14 259.992 154.282 260.029 154.416C260.066 154.551 260.137 154.673 260.236 154.771C260.335 154.868 260.458 154.938 260.593 154.973C260.728 155.008 260.869 155.007 261.003 154.97L279.509 149.838C279.301 141.299 273.499 135.574 264.902 135.478V135.476ZM266.25 150.313C265.941 150.313 265.639 150.221 265.382 150.049C265.125 149.877 264.925 149.633 264.806 149.348C264.688 149.062 264.657 148.748 264.717 148.445C264.778 148.142 264.927 147.864 265.145 147.645C265.364 147.427 265.642 147.278 265.945 147.218C266.248 147.157 266.562 147.188 266.848 147.306C267.133 147.425 267.377 147.625 267.549 147.882C267.721 148.139 267.812 148.441 267.812 148.75C267.812 149.164 267.648 149.562 267.355 149.855C267.062 150.148 266.664 150.313 266.25 150.313ZM268.594 142.891C268.285 142.891 267.983 142.799 267.726 142.627C267.469 142.456 267.268 142.212 267.15 141.926C267.032 141.641 267.001 141.326 267.061 141.023C267.122 140.72 267.27 140.442 267.489 140.223C267.707 140.005 267.986 139.856 268.289 139.796C268.592 139.735 268.906 139.766 269.192 139.885C269.477 140.003 269.721 140.203 269.893 140.46C270.065 140.717 270.156 141.019 270.156 141.328C270.156 141.743 269.992 142.14 269.699 142.433C269.406 142.726 269.008 142.891 268.594 142.891ZM273.672 147.969C273.363 147.969 273.061 147.877 272.804 147.705C272.547 147.534 272.347 147.29 272.228 147.004C272.11 146.719 272.079 146.405 272.139 146.101C272.2 145.798 272.348 145.52 272.567 145.301C272.786 145.083 273.064 144.934 273.367 144.874C273.67 144.813 273.984 144.844 274.27 144.963C274.555 145.081 274.799 145.281 274.971 145.538C275.143 145.795 275.234 146.097 275.234 146.406C275.234 146.821 275.07 147.218 274.777 147.511C274.484 147.804 274.086 147.969 273.672 147.969Z" fill="#F7BBBB"/>
</g>
<path d="M27 154.062V161.875C27 162.289 27.1646 162.687 27.4576 162.98C27.7507 163.273 28.1481 163.437 28.5625 163.437H50.4375C50.8519 163.437 51.2493 163.273 51.5424 162.98C51.8354 162.687 52 162.289 52 161.875V154.062H27ZM41.6401 141.562C41.2664 141.549 40.9003 141.671 40.6084 141.904L27 152.5H52C52 146.646 47.4102 141.865 41.6401 141.562V141.562Z" fill="#F7BBBB"/>
<path d="M198 51.0625V58.875C198 59.2894 198.165 59.6868 198.458 59.9799C198.751 60.2729 199.148 60.4375 199.562 60.4375H221.438C221.852 60.4375 222.249 60.2729 222.542 59.9799C222.835 59.6868 223 59.2894 223 58.875V51.0625H198ZM212.64 38.5625C212.266 38.5493 211.9 38.6706 211.608 38.9043L198 49.5H223C223 43.646 218.41 38.8652 212.64 38.5625V38.5625Z" fill="#F7BBBB"/>
<g clip-path="url(#clip2)">
<path d="M262.531 92.8125H262.485C262.598 91.8279 262.502 90.8306 262.203 89.8859C261.903 88.9411 261.407 88.0704 260.748 87.3307C260.088 86.5911 259.28 85.9992 258.375 85.5939C257.471 85.1887 256.491 84.9792 255.5 84.9792C254.509 84.9792 253.529 85.1887 252.625 85.5939C251.72 85.9992 250.912 86.5911 250.252 87.3307C249.593 88.0704 249.097 88.9411 248.797 89.8859C248.498 90.8306 248.402 91.8279 248.515 92.8125H248.469C247.847 92.8125 247.251 93.0594 246.811 93.499C246.372 93.9385 246.125 94.5346 246.125 95.1562C246.125 95.7778 246.372 96.374 246.811 96.8135C247.251 97.2531 247.847 97.5 248.469 97.5H262.531C263.153 97.5 263.749 97.2531 264.189 96.8135C264.628 96.374 264.875 95.7778 264.875 95.1562C264.875 94.5346 264.628 93.9385 264.189 93.499C263.749 93.0594 263.153 92.8125 262.531 92.8125ZM254.103 109.106C254.226 109.373 254.423 109.599 254.67 109.757C254.918 109.916 255.206 110 255.5 110C255.794 110 256.082 109.916 256.33 109.757C256.577 109.599 256.774 109.373 256.897 109.106L261.75 99.0625H249.25L254.103 109.106Z" fill="#F7BBBB"/>
</g>
<g clip-path="url(#clip3)">
<path d="M70.7573 45.0073C69.9682 44.9331 69.2339 45.4184 69.0322 46.185L68.309 48.9326C77.4702 49.2007 83.6674 55.31 84.0551 64.4111L86.8354 63.6406C87.603 63.4277 88.08 62.6797 87.9887 61.8877C86.9692 53.0605 79.6396 45.8457 70.7573 45.0073ZM67.9023 50.4761L63.0268 69.0058C62.9914 69.1405 62.9921 69.282 63.0288 69.4163C63.0655 69.5506 63.137 69.6728 63.2361 69.7706C63.3351 69.8684 63.4582 69.9383 63.5929 69.9734C63.7277 70.0084 63.8692 70.0073 64.0034 69.9702L82.5092 64.8384C82.3007 56.2988 76.4995 50.5737 67.9023 50.478V50.4761ZM69.25 65.3125C68.9409 65.3125 68.6388 65.2208 68.3819 65.0492C68.1249 64.8775 67.9247 64.6334 67.8064 64.3479C67.6881 64.0624 67.6572 63.7483 67.7175 63.4452C67.7778 63.1421 67.9266 62.8637 68.1451 62.6451C68.3636 62.4266 68.642 62.2778 68.9451 62.2175C69.2482 62.1572 69.5624 62.1882 69.8479 62.3064C70.1334 62.4247 70.3774 62.625 70.5491 62.8819C70.7208 63.1389 70.8125 63.441 70.8125 63.75C70.8125 64.1644 70.6478 64.5618 70.3548 64.8548C70.0618 65.1479 69.6644 65.3125 69.25 65.3125ZM71.5937 57.8906C71.2847 57.8906 70.9826 57.799 70.7256 57.6273C70.4687 57.4556 70.2684 57.2116 70.1502 56.9261C70.0319 56.6405 70.0009 56.3264 70.0612 56.0233C70.1215 55.7202 70.2703 55.4418 70.4889 55.2233C70.7074 55.0047 70.9858 54.8559 71.2889 54.7956C71.592 54.7353 71.9061 54.7663 72.1917 54.8846C72.4772 55.0028 72.7212 55.2031 72.8929 55.46C73.0646 55.717 73.1562 56.0191 73.1562 56.3281C73.1562 56.7425 72.9916 57.1399 72.6986 57.433C72.4055 57.726 72.0081 57.8906 71.5937 57.8906ZM76.6718 62.9687C76.3628 62.9687 76.0607 62.8771 75.8038 62.7054C75.5468 62.5337 75.3465 62.2897 75.2283 62.0042C75.11 61.7187 75.0791 61.4045 75.1394 61.1014C75.1997 60.7983 75.3485 60.5199 75.567 60.3014C75.7855 60.0829 76.0639 59.9341 76.367 59.8738C76.6701 59.8135 76.9843 59.8444 77.2698 59.9627C77.5553 60.0809 77.7993 60.2812 77.971 60.5382C78.1427 60.7951 78.2343 61.0972 78.2343 61.4062C78.2343 61.8206 78.0697 62.2181 77.7767 62.5111C77.4837 62.8041 77.0862 62.9687 76.6718 62.9687Z" fill="#F7BBBB"/>
</g>
<defs>
<clipPath id="clip0">
<rect width="25" height="25" fill="white" transform="translate(33 93)"/>
</clipPath>
<clipPath id="clip1">
<rect width="25" height="25" fill="white" transform="translate(260 130)"/>
</clipPath>
<clipPath id="clip2">
<rect width="25" height="25" fill="white" transform="translate(243 85)"/>
</clipPath>
<clipPath id="clip3">
<rect width="25" height="25" fill="white" transform="translate(63 45)"/>
</clipPath>
</defs>
</svg>
