<svg width="136" height="220" viewBox="0 0 136 220" fill="none" xmlns="http://www.w3.org/2000/svg">
<path d="M89.8858 15.4836H64.5913V32.8482H89.8858V15.4836Z" fill="#2F2E41"/>
<path d="M39.5321 18.2835H26.4907V13.0108C26.4907 11.0058 27.1777 9.0828 28.4006 7.66498C29.6234 6.24717 31.282 5.45065 33.0114 5.45065C34.7408 5.45065 36.3994 6.24717 37.6222 7.66498C38.8451 9.0828 39.5321 11.0058 39.5321 13.0108V18.2835ZM26.7794 17.9487H39.2433V13.0108C39.2433 11.0945 38.5868 9.25673 37.418 7.90169C36.2493 6.54666 34.6642 5.78542 33.0114 5.78542C31.3586 5.78542 29.7735 6.54666 28.6047 7.90169C27.436 9.25673 26.7794 11.0945 26.7794 13.0108V17.9487Z" fill="#3F3D56"/>
<path d="M45.9808 17.5583V15.4977L12.8151 16.528L11.7654 68.7222L16.6738 75.7521L45.9808 17.5583Z" fill="#3F3D56"/>
<path d="M51.8516 16.8329L15.9038 17.7813L16.6736 75.7521L51.365 71.4168L51.8516 16.8329Z" fill="#F50057"/>
<path d="M82.4147 204.653H78.3343L76.3933 186.406H82.4154L82.4147 204.653Z" fill="#FFB6B6"/>
<path d="M83.4553 209.239L70.2986 209.239V209.046C70.2987 207.471 70.8382 205.961 71.7986 204.848C72.7589 203.734 74.0614 203.109 75.4195 203.109H75.4199L83.4555 203.109L83.4553 209.239Z" fill="#2F2E41"/>
<path d="M67.4377 204.653H63.3573L61.4163 186.406H67.4383L67.4377 204.653Z" fill="#FFB6B6"/>
<path d="M68.478 209.239L55.3213 209.239V209.046C55.3214 207.471 55.8609 205.961 56.8213 204.848C57.7816 203.734 59.0841 203.109 60.4422 203.109H60.4426L68.4782 203.109L68.478 209.239Z" fill="#2F2E41"/>
<path d="M55.4543 90.3959C55.4543 90.3959 49.4927 105.281 54.8785 135.243C60.2644 165.205 60.309 198.098 60.309 198.098L68.5442 198.254L73.1704 127.437L75.5926 197.254H83.7061L90.8567 128.541C90.8567 128.541 95.562 97.8583 85.0689 92.3648L55.4543 90.3959Z" fill="#2F2E41"/>
<path d="M83.9906 37.8646L65.9591 35.9374C60.3045 40.716 57.1309 49.2986 57.7824 58.1539C58.6657 70.1604 58.3669 86.6836 51.2783 93.8619C51.2783 93.8619 70.5985 111.541 87.7607 94.7687C87.7607 94.7687 81.8921 76.5406 85.9213 69.2613C89.9505 61.9821 91.4041 41.5304 83.9906 37.8646Z" fill="#E4E4E4"/>
<path d="M30.3379 8.19681C30.2826 8.79944 30.342 9.4088 30.5118 9.98196C30.6816 10.5551 30.9577 11.0781 31.3207 11.5142C31.6837 11.9502 32.1248 12.2887 32.6128 12.5058C33.1008 12.7228 33.624 12.8131 34.1454 12.7704L57.9532 38.5309L62.2202 30.9947L37.4762 8.04273C37.3562 7.03193 36.9206 6.10727 36.2519 5.44395C35.5832 4.78064 34.7279 4.42475 33.848 4.44375C32.9681 4.46274 32.1248 4.85529 31.4779 5.547C30.831 6.23871 30.4254 7.18153 30.3379 8.19681V8.19681Z" fill="#FFB6B6"/>
<path d="M53.5072 34.5514L59.1551 27.8248C59.3158 27.6334 59.5102 27.4844 59.725 27.388C59.9399 27.2916 60.1701 27.2499 60.4001 27.266C60.63 27.282 60.8543 27.3553 61.0576 27.4809C61.261 27.6065 61.4385 27.7815 61.5783 27.9938L66.4748 35.4346C67.3146 36.3934 67.7922 37.6992 67.8029 39.0657C67.8136 40.4322 67.3565 41.7478 66.5319 42.7242C65.7073 43.7006 64.5824 44.258 63.4038 44.2743C62.2252 44.2906 61.0892 43.7644 60.2448 42.811L53.7179 37.3553C53.5311 37.199 53.3755 36.9979 53.2618 36.7656C53.148 36.5334 53.0788 36.2754 53.0588 36.0093C53.0388 35.7432 53.0685 35.4752 53.1459 35.2236C53.2232 34.9721 53.3465 34.7428 53.5072 34.5514V34.5514Z" fill="#E4E4E4"/>
<path d="M118.788 70.9294C118.814 70.3241 118.726 69.7195 118.529 69.1582C118.332 68.5968 118.031 68.0924 117.648 67.6804C117.265 67.2684 116.808 66.9589 116.31 66.7736C115.813 66.5883 115.286 66.5318 114.767 66.6081L89.7619 42.421L85.8625 50.2203L111.668 71.543C111.836 72.5445 112.316 73.4397 113.015 74.0589C113.715 74.6781 114.586 74.9784 115.463 74.9027C116.341 74.8271 117.164 74.3808 117.777 73.6485C118.39 72.9162 118.749 71.9487 118.788 70.9294V70.9294Z" fill="#FFB6B6"/>
<path d="M94.3912 46.108L89.0743 53.188C88.9231 53.3894 88.7361 53.5507 88.5262 53.6608C88.3163 53.7709 88.0884 53.8273 87.8581 53.8261C87.6277 53.8249 87.4002 53.7661 87.1912 53.6538C86.9822 53.5415 86.7965 53.3783 86.6468 53.1753L81.4013 46.0614C80.5167 45.1582 79.9772 43.8851 79.9009 42.5214C79.8247 41.1576 80.218 39.8144 80.9946 38.7864C81.7713 37.7583 82.8678 37.1293 84.0438 37.0372C85.2199 36.9451 86.3794 37.3974 87.2683 38.2951L94.0464 43.3219C94.2405 43.4659 94.4054 43.6567 94.5301 43.8813C94.6548 44.1059 94.7363 44.359 94.7691 44.6234C94.8018 44.8878 94.785 45.1573 94.7198 45.4134C94.6546 45.6696 94.5425 45.9065 94.3912 46.108V46.108Z" fill="#E4E4E4"/>
<path d="M121.328 81.1567H111.45V77.1628C111.45 75.644 111.97 74.1874 112.897 73.1135C113.823 72.0395 115.079 71.4362 116.389 71.4362C117.699 71.4362 118.955 72.0395 119.882 73.1135C120.808 74.1874 121.328 75.644 121.328 77.1628L121.328 81.1567ZM111.669 80.9031H121.11V77.1628C121.11 75.7113 120.612 74.3192 119.727 73.2928C118.842 72.2664 117.641 71.6897 116.389 71.6897C115.137 71.6897 113.937 72.2664 113.051 73.2928C112.166 74.3192 111.669 75.7113 111.669 77.1628V80.9031Z" fill="#3F3D56"/>
<path d="M126.213 80.6073V79.0464L101.091 79.827L100.296 119.362L104.014 124.688L126.213 80.6073Z" fill="#3F3D56"/>
<path d="M130.66 80.0578L103.431 80.7763L104.014 124.688L130.292 121.404L130.66 80.0578Z" fill="#F50057"/>
<path d="M76.2404 32.4623C82.1224 32.4623 86.8907 26.9338 86.8907 20.1141C86.8907 13.2944 82.1224 7.76593 76.2404 7.76593C70.3584 7.76593 65.5901 13.2944 65.5901 20.1141C65.5901 26.9338 70.3584 32.4623 76.2404 32.4623Z" fill="#FFB6B6"/>
<path d="M71.3365 14.6107C75.0209 18.7969 81.4324 19.1981 85.484 15.4961C86.6085 19.9928 86.7316 24.7466 85.8418 29.3135C84.952 33.8804 83.0783 38.1113 80.3958 41.6109C82.6496 42.555 85.2441 41.9339 87.2585 40.429C89.273 38.9242 90.7648 36.6265 91.8906 34.1738C94.6775 28.1021 95.3753 20.6883 93.4037 14.2014C91.432 7.71443 86.7084 2.33542 80.9695 0.593655C75.2307 -1.14811 68.6506 1.0034 64.8164 6.25167C60.8071 11.7397 60.1575 19.7811 61.9145 26.6788C63.6714 33.5764 67.525 39.5 71.759 44.7563C69.7253 38.6932 68.3767 32.3505 67.7468 25.8861C67.5314 23.6722 67.4055 21.3901 67.945 19.2518C68.4844 17.1134 69.8121 15.1216 71.6625 14.5208" fill="#2F2E41"/>
<path d="M135.667 209.967H8.86187C8.7736 209.967 8.68896 209.926 8.62654 209.854C8.56412 209.782 8.52905 209.684 8.52905 209.581C8.52905 209.479 8.56412 209.381 8.62654 209.308C8.68896 209.236 8.7736 209.195 8.86187 209.195H135.667C135.755 209.195 135.84 209.236 135.902 209.308C135.965 209.381 136 209.479 136 209.581C136 209.684 135.965 209.782 135.902 209.854C135.84 209.926 135.755 209.967 135.667 209.967Z" fill="#CACACA"/>
<path d="M36.7694 194.93C29.6404 199.387 26.5801 208.846 26.5801 208.846C26.5801 208.846 35.0781 211.079 42.2071 206.622C49.3361 202.165 52.3965 192.706 52.3965 192.706C52.3965 192.706 43.8984 190.473 36.7694 194.93Z" fill="#F2F2F2"/>
<path d="M39.115 197.994C34.9396 206.04 26.646 209.139 26.646 209.139C26.646 209.139 25.1222 199.192 29.2976 191.145C33.473 183.099 41.7666 180 41.7666 180C41.7666 180 43.2904 189.947 39.115 197.994Z" fill="#F2F2F2"/>
<path d="M54.4241 209.693H0.506894C0.418624 209.693 0.333975 209.652 0.271558 209.58C0.209142 209.507 0.174072 209.409 0.174072 209.307C0.174072 209.205 0.209142 209.106 0.271558 209.034C0.333975 208.962 0.418624 208.921 0.506894 208.921H54.4241C54.5123 208.921 54.597 208.962 54.6594 209.034C54.7218 209.106 54.7569 209.205 54.7569 209.307C54.7569 209.409 54.7218 209.507 54.6594 209.58C54.597 209.652 54.5123 209.693 54.4241 209.693Z" fill="#CACACA"/>
<path d="M116.003 176.469H106.125V172.475C106.125 170.956 106.645 169.5 107.571 168.426C108.498 167.352 109.754 166.749 111.064 166.749C112.374 166.749 113.63 167.352 114.557 168.426C115.483 169.5 116.003 170.956 116.003 172.475L116.003 176.469ZM106.343 176.215H115.785V172.475C115.785 171.024 115.287 169.632 114.402 168.605C113.517 167.579 112.316 167.002 111.064 167.002C109.812 167.002 108.611 167.579 107.726 168.605C106.841 169.632 106.343 171.024 106.343 172.475V176.215Z" fill="#CACACA"/>
<path d="M120.888 175.92V174.359L95.7656 175.139L94.9705 214.675L98.6884 220L120.888 175.92Z" fill="#CACACA"/>
<path d="M125.335 175.37L98.1057 176.089L98.6888 220L124.967 216.716L125.335 175.37Z" fill="#E4E4E4"/>
</svg>
