<svg width="211" height="141" viewBox="0 0 211 141" fill="none" xmlns="http://www.w3.org/2000/svg">
<g clip-path="url(#clip0)">
<path d="M211 139.406H0V141H211V139.406Z" fill="#85848B"/>
<path d="M167.167 111.266C167.167 112.492 160.253 116.066 152.041 116.066C143.829 116.066 137.43 112.492 137.43 111.266C137.43 110.04 144.086 110.435 152.306 110.435C160.527 110.435 167.167 110.038 167.167 111.266Z" fill="#504F60"/>
<path opacity="0.2" d="M167.167 111.266C167.167 112.492 160.253 116.066 152.041 116.066C143.829 116.066 137.43 112.492 137.43 111.266" fill="black"/>
<path d="M84.4638 88.7714C85.7967 88.9481 87.1798 89.0603 88.4563 88.6322C88.6573 88.5678 88.8785 88.4244 88.8584 88.2167C88.844 88.1412 88.8131 88.0701 88.7679 88.0089C88.2867 87.2629 87.8824 86.4669 87.5617 85.6339C87.549 85.5905 87.5229 85.5525 87.4873 85.5259C87.4458 85.5103 87.4002 85.5103 87.3587 85.5259C86.7697 85.6859 86.261 86.0786 85.676 86.2469C85.3778 86.3315 85.0664 86.3555 84.7593 86.3175C84.494 86.2864 84.1321 86.0599 83.8909 86.089C84.0276 86.997 84.3613 87.8447 84.4638 88.7714Z" fill="#6C63FF"/>
<path d="M109.671 86.4714C110.55 85.848 111.461 85.1935 111.979 84.2315C112.016 84.1739 112.038 84.1072 112.042 84.0382C112.033 83.9703 112.007 83.9059 111.967 83.8512C111.473 83.0394 110.837 82.3299 110.092 81.7589C109.703 82.0429 109.351 82.3781 109.046 82.7562C108.825 82.9972 108.214 83.3796 108.208 83.7473C108.208 83.9551 108.441 84.1962 108.55 84.3707C108.696 84.5951 108.835 84.8237 108.968 85.0564C109.044 85.1707 109.742 86.4257 109.671 86.4714Z" fill="#6C63FF"/>
<path d="M89.6888 91.5536C89.7045 91.7677 89.6476 91.9808 89.5279 92.1562C89.4341 92.2538 89.3179 92.3253 89.1902 92.364C87.3266 93.0539 85.1696 92.1936 83.31 92.8731C82.928 93.0123 82.5662 93.2138 82.1822 93.3468C81.7244 93.4891 81.2522 93.5755 80.775 93.6045C80.1176 93.6689 79.4562 93.7104 78.7968 93.7291C78.2958 93.7658 77.7923 93.7202 77.3051 93.5941C77.0615 93.5296 76.8337 93.4129 76.6367 93.2514C76.4396 93.09 76.2776 92.8874 76.1613 92.657C76.0602 92.4504 76.04 92.2115 76.105 91.99C76.1341 91.914 76.1756 91.8438 76.2276 91.7822C76.3536 91.6361 76.5016 91.5119 76.6659 91.4144L77.3514 90.9573C77.6728 90.7224 78.0221 90.531 78.3907 90.388C78.6621 90.2966 78.9496 90.2571 79.225 90.1802C80.188 89.8893 80.9237 89.0997 81.6072 88.3413L82.54 87.3128C82.6273 87.1996 82.7378 87.108 82.8637 87.0448C82.9931 87.0002 83.1306 86.9867 83.2658 87.0053C84.1719 87.0721 85.0468 87.3752 85.8088 87.8863C86.0036 88.0373 86.214 88.1655 86.4361 88.2686C86.9829 88.4888 87.6845 88.3226 88.1891 88.0442C88.4283 87.9112 88.376 87.8364 88.4766 87.5995C88.5771 87.3627 88.8223 87.211 89.0354 87.4271C89.0997 87.5018 89.1453 87.5917 89.1681 87.6889C89.3691 88.3746 89.2927 89.1122 89.2927 89.8311C89.2868 89.9435 89.3005 90.0561 89.333 90.1636C89.3842 90.2719 89.4455 90.3749 89.5159 90.4711C89.5302 90.4966 89.543 90.5229 89.5541 90.5501C89.6771 90.8684 89.7233 91.2128 89.6888 91.5536Z" fill="#514E7F"/>
<path d="M89.6887 91.5537C89.7044 91.7678 89.6476 91.9808 89.5279 92.1563C89.4341 92.2539 89.3179 92.3253 89.1902 92.3641C87.3266 93.0539 85.1695 92.1937 83.31 92.8731C82.928 93.0124 82.5662 93.2139 82.1822 93.3469C81.7244 93.4891 81.2522 93.5756 80.775 93.6045C80.1176 93.669 79.4562 93.7105 78.7968 93.7292C78.2958 93.7659 77.7923 93.7203 77.3051 93.5942C77.0615 93.5297 76.8337 93.413 76.6367 93.2515C76.4396 93.09 76.2776 92.8875 76.1613 92.657C76.0602 92.4505 76.04 92.2116 76.105 91.9901C76.1341 91.9141 76.1756 91.8438 76.2276 91.7823C76.3362 92.0171 76.4146 92.3288 76.4829 92.441C76.5753 92.6072 76.7008 92.7512 76.8513 92.8634C77.0017 92.9755 77.1736 93.0532 77.3554 93.0913C77.6275 93.1086 77.9003 93.0726 78.1595 92.9853C79.8482 92.5532 81.6434 92.5469 83.2658 91.8924C83.8226 91.6659 84.3533 91.3646 84.9383 91.2275C85.5234 91.0904 86.1445 91.1278 86.7476 91.0758C87.7005 90.9969 88.6233 90.6997 89.5621 90.5439C89.6833 90.8648 89.7268 91.2115 89.6887 91.5537Z" fill="#464353"/>
<path d="M113.939 86.3446C113.851 87.076 113.403 87.7056 112.91 88.2396C112.418 88.7736 111.861 89.2535 111.469 89.8686C110.986 90.6312 110.769 91.5766 110.142 92.2207C109.901 92.4549 109.631 92.6542 109.338 92.8129C109.01 93.0129 108.663 93.1779 108.302 93.3053C107.366 93.6149 106.356 93.5443 105.377 93.4695C105.06 93.4663 104.745 93.4037 104.449 93.2846C104.314 93.2137 104.185 93.1318 104.063 93.0394C103.817 92.8832 103.611 92.6697 103.46 92.416C103.385 92.2781 103.364 92.1162 103.401 91.9631C103.457 91.7943 103.553 91.6429 103.681 91.5226C103.901 91.2858 104.137 91.0656 104.388 90.8639C104.732 90.6343 105.043 90.3543 105.309 90.0327C105.472 89.7786 105.593 89.4975 105.665 89.2016C105.807 88.6831 105.894 88.1501 105.924 87.6121C105.923 87.2545 105.959 86.8979 106.031 86.5482C106.179 85.9996 106.574 85.5093 106.529 84.942C106.511 84.8608 106.518 84.7758 106.549 84.6989C106.596 84.6388 106.661 84.597 106.734 84.5805C107.042 84.4539 107.366 84.3762 107.695 84.3498C107.861 84.338 108.027 84.3644 108.181 84.4269C108.335 84.4894 108.474 84.5866 108.588 84.7114C108.725 84.8818 108.815 85.1269 109.016 85.1934C109.116 85.2215 109.22 85.2258 109.322 85.2059C109.816 85.154 110.339 85.0896 110.729 84.7592C110.909 84.5921 111.054 84.3882 111.154 84.1604C111.255 83.9326 111.308 83.6858 111.312 83.4356C111.312 83.2465 111.229 83.0491 111.513 83.02C111.726 82.9909 111.895 83.2278 112.003 83.3732C112.395 83.9156 112.798 84.4828 112.944 85.1436C113.001 85.1207 113.062 85.1087 113.123 85.1083C113.249 85.1071 113.372 85.1373 113.484 85.1963C113.596 85.2553 113.692 85.3413 113.764 85.4469C113.925 85.715 113.987 86.0334 113.939 86.3446Z" fill="#514E7F"/>
<path d="M113.939 86.3446C113.851 87.076 113.403 87.7056 112.91 88.2396C112.417 88.7736 111.861 89.2535 111.469 89.8686C110.986 90.6311 110.769 91.5765 110.142 92.2207C109.901 92.4549 109.63 92.6541 109.338 92.8129C109.01 93.0129 108.663 93.1779 108.302 93.3053C107.366 93.6149 106.356 93.5443 105.377 93.4695C105.059 93.4663 104.745 93.4036 104.449 93.2845C104.314 93.2137 104.185 93.1317 104.063 93.0393C103.817 92.8831 103.611 92.6696 103.459 92.416C103.648 92.3223 103.854 92.2713 104.063 92.2664C104.497 92.2913 104.814 92.7152 105.231 92.8461C105.824 93.031 106.415 92.5988 107.016 92.4513C107.408 92.3557 107.82 92.3807 108.208 92.2435C108.531 92.1144 108.83 91.9273 109.09 91.6908C109.447 91.427 109.765 91.1106 110.033 90.7516C110.256 90.3927 110.441 90.0103 110.586 89.6109C110.904 88.8456 111.277 88.1065 111.704 87.4001C111.767 87.2883 111.843 87.185 111.931 87.0926C112.025 87.0032 112.132 86.9409 112.239 86.862C112.641 86.5482 112.807 86.0308 112.948 85.5238C112.986 85.3697 113.04 85.22 113.107 85.0771C113.232 85.0759 113.356 85.1062 113.468 85.1651C113.58 85.2241 113.676 85.3101 113.748 85.4158C113.921 85.6901 113.989 86.0212 113.939 86.3446Z" fill="#464353"/>
<path d="M71.7846 21.5617C72.285 21.9493 72.6968 22.4458 72.9908 23.0162C73.2723 23.5855 74.8946 28.003 74.8001 28.6451C75.3289 28.0944 77.4136 28.0051 77.9483 27.4545C78.1715 27.2238 79.3756 26.0727 79.5566 25.8047C79.7375 25.5366 81.0804 24.9735 81.2272 24.6909C81.776 23.6749 77.3352 19.8246 77.9041 18.821C77.9356 18.7749 77.9518 18.7195 77.9503 18.6631C77.9374 18.6158 77.9116 18.5732 77.8759 18.5405C77.5121 18.1561 77.0296 17.9172 76.5913 17.6325C76.1531 17.3479 75.7309 16.951 75.6123 16.4274C75.1944 16.6262 74.8107 16.8943 74.4765 17.2211C73.6616 17.9428 72.8608 18.6791 72.0741 19.4298C71.7666 19.7249 71.1715 20.1176 71.0288 20.5394C70.8599 20.9924 71.4911 21.3144 71.7846 21.5617Z" fill="#A1616A"/>
<path d="M78.9737 19.9265C78.2923 20.3997 77.6556 20.9381 77.0719 21.5347C76.5211 22.0978 75.9984 22.7502 75.8657 23.5377C75.8094 23.8473 75.8175 24.1611 75.7712 24.4748C75.5702 25.8358 74.4323 26.8332 73.9298 28.1069C73.7842 28.5 73.6771 28.9072 73.6101 29.3224C73.4689 30.1095 73.3916 30.9074 73.3789 31.7078C73.3669 32.4828 74.1027 33.0168 74.372 33.7399C74.6414 34.463 74.7138 35.2069 74.8505 35.9487C75.1078 37.3491 75.5802 38.6997 76.0567 40.042C77.0478 42.872 80.2603 50.6951 81.2514 53.5272C84.289 52.7397 92.3745 50.9299 95.0644 49.2697C95.961 48.717 88.8424 42.4814 89.8013 42.0513C89.8561 42.0424 89.9082 42.0206 89.9535 41.9874C89.9987 41.9542 90.0358 41.9106 90.062 41.86C90.0881 41.8094 90.1025 41.7532 90.104 41.6959C90.1055 41.6386 90.0941 41.5817 90.0707 41.5297C89.1118 37.1954 86.1124 33.6339 84.7514 29.4139C84.2789 27.949 83.4306 26.6981 82.7873 25.306C82.2043 24.0447 81.8927 22.6505 81.1951 21.4516C81.0636 21.2046 80.8915 20.9831 80.6865 20.7971C80.5125 20.6592 80.3244 20.5414 80.1256 20.4459C79.7276 20.2464 79.3577 20.128 78.9737 19.9265Z" fill="#514E7F"/>
<path d="M71.9455 21.0694C74.5713 21.0694 76.7 18.8692 76.7 16.1553C76.7 13.4413 74.5713 11.2412 71.9455 11.2412C69.3197 11.2412 67.1911 13.4413 67.1911 16.1553C67.1911 18.8692 69.3197 21.0694 71.9455 21.0694Z" fill="#A1616A"/>
<path d="M76.7824 18.4636C77.0193 18.2377 77.317 18.0913 77.636 18.0439C77.9551 17.9964 78.2806 18.05 78.5696 18.1976C78.8912 18.3701 79.1727 18.7191 79.1003 19.0848L81.4584 19.1222C81.8337 19.1116 82.2089 19.1472 82.5761 19.2282C82.9457 19.3114 83.2756 19.5252 83.5089 19.8329C83.5371 19.8723 83.5692 19.9201 83.6175 19.9264C83.6567 19.927 83.695 19.9138 83.7261 19.889C84.0888 19.7009 84.4975 19.6286 84.9001 19.6812C86.1746 19.7664 87.3527 20.425 88.3518 21.2479C88.532 21.3759 88.6718 21.5558 88.7539 21.7653C88.8363 22.0416 88.7378 22.3886 88.9549 22.586C88.9549 24.8716 89.7148 27.0076 90.2214 29.2351C90.3119 29.6319 90.6798 29.9831 90.9351 30.2948C91.2505 30.6403 91.508 31.0378 91.697 31.4708C92.1272 32.6261 91.5342 33.985 91.9523 35.1444C92.1292 35.6348 92.471 36.0379 92.7564 36.4639C93.1327 36.9557 93.3706 37.5453 93.444 38.1677C93.4621 38.4461 93.4279 38.7266 93.444 38.9988C93.471 39.3732 93.5384 39.7433 93.645 40.1022C93.8166 40.7726 93.9962 41.4424 94.1838 42.1114C94.4894 43.1919 94.8874 44.3576 95.8242 44.9331C93.5626 45.33 91.1783 45.7186 89.0233 44.9061C88.7227 44.8002 88.4373 44.6527 88.1749 44.4677C87.3969 43.8942 87.021 42.9135 86.6852 41.9868C86.3113 40.9478 85.9314 39.8902 85.855 38.7848C85.8557 38.4332 85.8077 38.0834 85.7123 37.7459C85.4931 37.1433 84.9081 36.7797 84.3774 36.4452C83.7781 36.1058 83.2351 35.6694 82.7691 35.1528C82.5379 34.8925 82.3608 34.586 82.2488 34.2522C82.1367 33.9184 82.0922 33.5644 82.1178 33.2121C82.158 32.8692 82.2887 32.5388 82.3007 32.1939C82.3128 31.849 82.164 31.4542 81.8444 31.3628C80.1979 30.8475 79.4119 28.832 79.046 27.0949C78.8881 26.1971 78.8174 25.2853 78.8349 24.3729L78.8128 22.6005C78.5856 22.3869 78.4028 22.1277 78.2757 21.8387C78.1485 21.5497 78.0795 21.237 78.073 20.9196C78.0948 20.7344 78.0915 20.5469 78.063 20.3627C77.9834 20.1375 77.854 19.9347 77.685 19.7705C77.3215 19.3849 77.0171 18.9442 76.7824 18.4636Z" fill="#464353"/>
<path d="M71.7186 24.0821C71.6643 24.6307 71.7849 25.1938 71.6663 25.7319C71.6201 25.9397 71.5396 26.1475 71.4813 26.3407C71.3031 27.1153 71.3802 27.9292 71.7005 28.6534C72.0203 29.3704 72.4032 30.0555 72.8443 30.7C72.9936 30.9201 73.1164 31.158 73.2102 31.4086C73.2863 31.6717 73.3335 31.9428 73.3509 32.2169C73.4674 33.3172 73.6541 34.4084 73.9098 35.4832C74.135 36.4141 76.6921 44.3722 77.2872 45.1098C77.3951 45.2732 77.5589 45.3882 77.7455 45.4319C77.8801 45.4371 78.0139 45.4086 78.1355 45.3488L79.3417 44.8709C79.4443 44.8384 79.5394 44.7847 79.6212 44.713C79.7342 44.5765 79.7956 44.4023 79.7941 44.2226C79.8805 43.2086 77.3173 35.1944 76.9917 34.2365C76.0066 31.3442 74.6959 28.5557 74.0546 25.5615C73.8756 24.7304 73.7812 23.4505 73.1921 22.7876C72.9489 22.5134 73.0313 22.6297 72.7398 22.7731C72.5925 22.8392 72.4501 22.9162 72.3136 23.0037C72.143 23.1263 72.001 23.2868 71.8981 23.4733C71.7951 23.6599 71.7338 23.8679 71.7186 24.0821Z" fill="#464353"/>
<path d="M75.3793 29.5697C75.703 31.3379 76.0367 33.102 76.3684 34.8702L81.0886 33.5924C81.1268 33.0812 80.8635 32.6075 80.6866 32.1379C80.2564 31.0221 80.2463 29.7795 79.8985 28.6326C79.6352 27.7599 79.1768 26.9578 78.9295 26.0789C78.7868 25.5678 78.7144 25.04 78.5737 24.5226C78.4228 24.0145 78.2374 23.5181 78.0189 23.037C77.7539 22.3392 77.4083 21.6771 76.9896 21.0651C76.3865 21.2978 75.7432 21.5679 75.3994 22.131C75.2231 22.4483 75.1225 22.8045 75.1059 23.1699C75.0235 24.265 75.4074 25.3662 75.2808 26.455C75.1503 27.4919 75.1836 28.5438 75.3793 29.5697Z" fill="#ED212B"/>
<path d="M81.167 53.091C81.4324 54.1299 81.0484 55.2228 80.7348 56.2513C80.2626 57.8006 79.9407 59.3945 79.7738 61.0096C79.7534 61.4206 79.6734 61.8261 79.5366 62.2127C79.3879 62.5597 79.1345 62.8526 78.9617 63.183C78.4872 64.0515 78.4993 65.1112 78.6018 66.1045C78.6702 66.759 78.7727 67.4114 78.8993 68.0555C79.0541 68.843 79.2451 69.6659 79.022 70.4347C79.3959 70.3495 79.6492 70.8502 79.6251 71.2429C79.6009 71.6357 79.4783 72.0741 79.6613 72.4128C80.1236 72.5873 80.1277 73.2439 80.1136 73.753C80.1212 74.6357 80.2292 75.5144 80.4352 76.3711C81.1348 79.848 81.8773 83.3152 82.6627 86.7727C84.3614 87.3171 86.3456 87.8844 87.9659 87.1301C88.2675 86.9909 88.569 86.7686 88.6374 86.4319C88.655 86.2505 88.6331 86.0673 88.5731 85.8959L87.8051 83.0077C87.6181 82.3095 87.4312 81.5885 87.5297 80.8717C87.6041 80.3376 87.8292 79.7621 87.5759 79.2904C87.4895 79.1283 87.3528 79.0016 87.2523 78.8478C86.8502 78.239 87.0613 77.4245 87.0935 76.6869C87.106 76.5213 87.0952 76.3547 87.0613 76.1924C87.0062 76.0027 86.9293 75.8207 86.8321 75.65C86.1974 74.3765 85.8927 72.9549 85.9476 71.5235C85.9716 71.3408 85.9473 71.1548 85.8772 70.9853C85.8284 70.9153 85.7847 70.8417 85.7465 70.765C85.7166 70.6316 85.7314 70.4917 85.7887 70.3682C85.5583 70.1875 85.3504 69.9781 85.1696 69.7448C85.2811 69.6732 85.3754 69.5763 85.4453 69.4615C85.5153 69.3466 85.5591 69.2169 85.5734 69.082C85.5877 68.9471 85.5722 68.8106 85.528 68.6828C85.4838 68.555 85.4121 68.4393 85.3183 68.3444C85.4003 68.3273 85.4761 68.2871 85.5373 68.2282C85.5985 68.1692 85.6427 68.094 85.665 68.0106C85.6873 67.9273 85.6868 67.8393 85.6636 67.7562C85.6403 67.6732 85.5953 67.5984 85.5334 67.5402C85.4349 67.4696 85.3043 67.4384 85.2339 67.3325C85.1253 67.1787 85.2138 66.9647 85.3022 66.8005L85.7706 65.9258C86.1204 65.2754 86.1988 64.4713 86.5748 63.8479C87.1136 62.9399 87.4654 61.928 87.8132 60.9265L89.1661 57.0679L90.0768 57.8845C90.3801 58.124 90.6343 58.4235 90.8246 58.7655C90.9541 59.1035 91.036 59.459 91.0679 59.8211C91.4016 61.9155 92.6761 63.7316 93.1486 65.7949C93.2531 66.2541 93.3235 66.7361 93.5788 67.1288C93.6701 67.2494 93.7521 67.3772 93.824 67.5112C93.8906 67.7154 93.9252 67.9294 93.9266 68.1449C93.9687 68.5669 94.0983 68.9746 94.3064 69.3403C94.5145 69.706 94.7964 70.0212 95.1328 70.2643C95.5811 70.5822 96.1379 70.8004 96.3812 71.3032C96.4298 71.4589 96.4974 71.6076 96.5822 71.7458C96.7993 72.0159 97.2677 72.0471 97.3602 72.3858C97.4125 72.5748 97.316 72.8013 97.4185 72.9676C97.4768 73.0445 97.5538 73.104 97.6417 73.14L98.9504 73.8153C100.414 74.5716 101.162 76.3087 102.241 77.5741C102.614 77.9863 102.944 78.4375 103.226 78.9206C103.693 79.7829 103.908 80.8654 104.696 81.414C104.908 81.5275 105.101 81.6755 105.267 81.8524C105.514 82.189 105.424 82.6607 105.446 83.0846C105.468 83.5084 105.781 84.0133 106.171 83.8845C106.035 84.3979 106.035 84.9399 106.171 85.4533C107.884 85.3624 109.517 84.6788 110.807 83.5126C111.189 83.1677 111.557 82.7272 111.561 82.2035C111.567 82.1132 111.548 82.023 111.505 81.9438C111.428 81.8415 111.326 81.762 111.209 81.7132C109.985 81.0275 109.617 79.4379 108.998 78.1476C108.457 77.0089 107.657 76.0282 106.988 74.9706C105.532 72.6954 104.539 69.9422 102.338 68.4399C101.853 68.1096 101.29 67.8166 101.047 67.2701C100.912 66.9647 100.896 66.6156 100.79 66.2998C100.683 65.9839 100.428 65.6764 100.102 65.6764C100.283 65.2193 100.247 64.6624 100.259 64.1679C100.271 63.9484 100.247 63.7284 100.187 63.5175C100.103 63.2907 99.9945 63.0746 99.8631 62.8734C99.2887 61.8683 99.0016 60.7157 99.0348 59.5489C99.0509 58.9484 99.1534 58.3292 98.9785 57.7557C98.8901 57.4669 98.7353 57.203 98.6287 56.9246C98.4682 56.4201 98.3834 55.8931 98.3774 55.362L98.2568 53.3652C98.2386 52.7002 98.1551 52.0388 98.0075 51.3913C97.6055 49.8412 97.2034 43.348 95.8263 42.6166C94.4493 41.8852 92.0831 46.8824 90.5331 46.98C89.8474 47.0095 89.1699 47.1447 88.5228 47.3811C87.4915 47.78 86.6271 48.5239 85.7847 49.2511L82.9341 51.7258C82.331 52.239 81.8324 52.7294 81.167 53.091Z" fill="#464353"/>
<path d="M67.4848 10.6988C68.112 9.81363 69.1895 9.34404 70.251 9.30456C71.3124 9.26508 72.3578 9.61 73.3087 10.0983C73.5894 10.2633 73.8893 10.3903 74.2013 10.4765C74.7039 10.5824 75.2627 10.4411 75.7171 10.6842C76.3202 11.0146 76.4368 11.8561 76.3845 12.5543C76.3322 13.2524 76.2056 14.0275 76.5654 14.6321C76.6931 14.8046 76.8093 14.9858 76.9132 15.1744C77.068 15.5339 76.9775 15.9495 76.8851 16.3297C76.6499 16.1219 76.5172 15.8082 76.3081 15.5672C76.099 15.3261 75.7352 15.1641 75.4758 15.3448C75.2165 15.5256 75.2205 15.8539 75.2064 16.149C75.1924 16.444 75.12 16.7972 74.8506 16.8928C74.7381 16.9193 74.6205 16.9103 74.513 16.8669C74.4055 16.8236 74.313 16.7479 74.2475 16.6497C73.7871 16.0679 73.9721 15.1391 73.5158 14.5532C73.2564 14.2207 72.8242 14.0587 72.585 13.7096C72.396 13.4353 72.3477 13.0862 72.1829 12.7912C72.0181 12.4961 71.6341 12.28 71.3788 12.4836C71.2916 12.5697 71.2189 12.6701 71.1637 12.7808C71.0044 13.0165 70.773 13.1898 70.5067 13.2728C70.2404 13.3557 69.9548 13.3434 69.6961 13.2379C69.4984 13.1125 69.2846 13.0166 69.0609 12.9532C68.9144 12.9457 68.7689 12.9806 68.6406 13.054C68.5124 13.1274 68.4066 13.2365 68.3351 13.3688C68.1908 13.6332 68.1212 13.9341 68.1341 14.2373C68.1341 14.6529 68.2065 15.0955 67.9773 15.4279C67.8901 15.5531 67.781 15.6602 67.6556 15.7438C67.3199 15.9661 66.8515 16.1157 66.5419 15.8622C66.437 15.7612 66.3589 15.634 66.3153 15.4928C66.2716 15.3516 66.2638 15.2012 66.2926 15.056C66.3529 14.7668 66.4322 14.4822 66.5298 14.2041C66.7068 13.56 66.4756 12.8348 66.6686 12.2281C66.8707 11.6817 67.1454 11.167 67.4848 10.6988Z" fill="#464353"/>
<path d="M70.0317 25.3579C70.0015 25.5093 70.017 25.6667 70.076 25.8088C70.1357 25.9055 70.217 25.9861 70.3132 26.0436C70.9892 26.4789 71.7581 26.7364 72.5527 26.7937C72.6608 26.7956 72.7669 26.8241 72.8623 26.8768C73.0512 27.0056 73.0633 27.2923 72.9929 27.5209C72.8991 27.7365 72.8505 27.9702 72.8502 28.2066C72.9085 28.6409 73.4071 28.8299 73.8272 28.8944C74.4163 28.9712 75.0616 28.9317 75.528 28.5515C75.8439 28.2537 76.0847 27.8806 76.2296 27.4648C77.3835 24.7241 77.7876 21.6946 78.9556 18.9623C79.0441 18.7839 79.1032 18.5915 79.1305 18.393C79.1428 18.2936 79.1292 18.1926 79.091 18.1006C79.0528 18.0085 78.9915 17.9286 78.9134 17.8693C78.6962 17.7301 78.3585 17.8091 78.2118 17.5909C78.1394 17.4808 78.1474 17.3312 78.0831 17.2148C77.9484 16.9676 77.5946 17.007 77.3533 16.8637C77.1644 16.7598 77.0337 16.5458 76.8226 16.5042C76.719 16.4982 76.6154 16.5172 76.5202 16.5597C76.4249 16.6023 76.3405 16.6672 76.2738 16.7494C75.5883 17.4101 75.2284 18.3472 74.8465 19.2324C74.2632 20.5892 73.5804 21.8979 72.804 23.1471C72.8944 23.0016 72.3697 21.9004 72.1647 21.8526C71.8048 21.7778 71.3445 22.4302 71.1495 22.6733C70.5375 23.4401 70.1498 24.3714 70.0317 25.3579Z" fill="#ED212B"/>
<path opacity="0.1" d="M77.3352 17.0569C77.1908 17.0594 77.0488 17.0955 76.9197 17.1624C76.7906 17.2293 76.6777 17.3253 76.5894 17.4434C76.3743 17.7322 76.332 18.1146 76.2778 18.4823C76.0948 19.6475 75.6925 20.7643 75.0937 21.7695" fill="black"/>
<path opacity="0.1" d="M78.3606 17.886C78.1613 17.8906 77.9665 17.9488 77.7956 18.0548C77.6246 18.1609 77.4833 18.3111 77.3856 18.4907C77.2525 18.8175 77.1698 19.1639 77.1403 19.5172C76.968 20.3004 76.6355 21.0365 76.1653 21.676" fill="black"/>
<path d="M126.138 58.5077V55.9271C126.138 54.0273 125.407 52.2055 124.107 50.8624C122.807 49.5193 121.045 48.7647 119.206 48.7647H20.6019C18.7639 48.7647 17.0011 49.5193 15.7012 50.8624C14.4013 52.2055 13.6708 54.0273 13.6703 55.9271V60.6853L126.138 58.5077Z" fill="#997373"/>
<path d="M48.0328 45.7394C48.0328 45.7394 47.7514 63.7875 50.8473 69.726C53.9432 75.6645 55.27 101.498 55.27 101.498C55.27 101.498 87.7247 104.968 110.341 97.3426C132.957 89.7169 181.08 86.5981 181.08 86.5981L172.971 30.1037C172.971 30.1037 132.907 27.4482 110.116 38.6831C87.3247 49.918 48.0328 45.7394 48.0328 45.7394Z" fill="#8DD070"/>
<path opacity="0.1" d="M48.0328 45.7394C48.0328 45.7394 47.7514 63.7875 50.8473 69.726C53.9432 75.6645 55.27 101.498 55.27 101.498C55.27 101.498 87.7247 104.968 110.341 97.3426C132.957 89.7169 181.08 86.5981 181.08 86.5981L172.971 30.1037C172.971 30.1037 132.907 27.4482 110.116 38.6831C87.3247 49.918 48.0328 45.7394 48.0328 45.7394Z" fill="black"/>
<path d="M55.2156 52.3324C55.2156 52.3324 54.2004 67.2243 56.7475 71.9826C59.2946 76.7408 59.4132 97.9825 59.4132 97.9825C59.4132 97.9825 88.6213 99.383 109.398 92.0732C130.175 84.7633 173.835 80.0217 173.835 80.0217L168.874 33.821C168.874 33.821 132.748 33.4366 111.664 43.726C90.5793 54.0155 55.2156 52.3324 55.2156 52.3324Z" fill="#8DD070"/>
<path opacity="0.1" d="M111.343 83.6142C115.499 83.0792 117.968 75.1772 116.857 65.9647C115.747 56.7521 111.478 49.7176 107.322 50.2526C103.167 50.7876 100.698 58.6896 101.808 67.9022C102.918 77.1147 107.187 84.1492 111.343 83.6142Z" fill="black"/>
<path opacity="0.2" d="M151.006 2.5827C151.006 2.5827 112.084 12.7641 93.7295 30.6855C75.3752 48.6068 36.7367 57.0927 36.7367 57.0927C36.7367 57.0927 41.8268 74.3575 46.535 79.0285C51.2432 83.6994 60.1731 107.869 60.1731 107.869C60.1731 107.869 92.091 100.875 111.35 86.438C130.609 72.0012 175.494 53.7682 175.494 53.7682L151.006 2.5827Z" fill="black"/>
<path d="M36.1517 54.5079C36.1517 54.5079 41.2399 71.7747 45.944 76.4457C50.6482 81.1167 59.5821 105.284 59.5821 105.284C59.5821 105.284 91.5041 98.2921 110.765 83.8553C130.026 69.4185 174.907 51.1917 174.907 51.1917L150.419 0C150.419 0 111.499 10.1814 93.1445 28.1028C74.7902 46.0241 36.1517 54.5079 36.1517 54.5079Z" fill="#8DD070"/>
<path opacity="0.1" d="M36.1517 54.5079C36.1517 54.5079 41.2399 71.7747 45.944 76.4457C50.6482 81.1167 59.5821 105.284 59.5821 105.284C59.5821 105.284 91.5041 98.2921 110.765 83.8553C130.026 69.4185 174.907 51.1917 174.907 51.1917L150.419 0C150.419 0 111.499 10.1814 93.1445 28.1028C74.7902 46.0241 36.1517 54.5079 36.1517 54.5079Z" fill="black"/>
<path d="M44.9389 58.5057C44.9389 58.5057 48.3947 73.0028 52.2324 76.7221C56.0701 80.4414 62.4851 100.617 62.4851 100.617C62.4851 100.617 90.698 92.684 108.302 79.1365C125.907 65.589 166.057 47.248 166.057 47.248L147.62 4.83514C147.62 4.83514 113.125 15.9246 96.1118 32.406C79.0984 48.8874 44.9389 58.5057 44.9389 58.5057Z" fill="#8DD070"/>
<path opacity="0.1" d="M107.652 70.4758C111.448 68.6485 111.452 60.3447 107.66 51.9287C103.868 43.5127 97.7169 38.1715 93.9204 39.9988C90.1239 41.8261 90.1201 50.1299 93.9118 58.5459C97.7035 66.9619 103.855 72.3031 107.652 70.4758Z" fill="black"/>
<path opacity="0.1" d="M128.8 61.0407V132.726C128.8 133.54 128.645 134.346 128.343 135.099C128.042 135.851 127.6 136.534 127.043 137.11C126.486 137.685 125.824 138.142 125.096 138.453C124.369 138.764 123.589 138.925 122.801 138.924H19.6711C18.081 138.924 16.5562 138.27 15.432 137.108C14.3078 135.946 13.6763 134.37 13.6763 132.726V53.814C16.6315 54.9485 16.6315 54.9485 19.6711 54.8529H122.801C124.39 54.8529 125.914 55.5044 127.038 56.6645C128.163 57.8246 128.797 59.3984 128.8 61.0407Z" fill="black"/>
<path d="M128.8 61.9529V133.638C128.799 135.282 128.167 136.859 127.042 138.021C125.917 139.184 124.392 139.836 122.801 139.836H19.6711C18.081 139.836 16.5562 139.183 15.432 138.02C14.3078 136.858 13.6763 135.282 13.6763 133.638V54.7241C16.6315 55.8565 16.6315 55.8565 19.6711 55.763H122.801C124.39 55.763 125.914 56.4148 127.039 57.5754C128.164 58.7359 128.797 60.3103 128.8 61.9529Z" fill="#AB7F7F"/>
<path opacity="0.1" d="M128.506 88.4556V111.38H106.996C104.08 111.34 101.298 110.114 99.25 107.969C97.2023 105.824 96.0542 102.932 96.0542 99.918C96.0542 96.9044 97.2023 94.012 99.25 91.8668C101.298 89.7216 104.08 88.4961 106.996 88.4556H128.506Z" fill="black"/>
<path d="M128.8 87.8448V110.774H107.289C104.374 110.733 101.591 109.508 99.5434 107.362C97.4956 105.217 96.3475 102.325 96.3475 99.3114C96.3475 96.2978 97.4956 93.4055 99.5434 91.2602C101.591 89.115 104.374 87.8895 107.289 87.849L128.8 87.8448Z" fill="#706860"/>
<path opacity="0.1" d="M108.32 104.388C110.709 104.388 112.645 102.387 112.645 99.919C112.645 97.4506 110.709 95.4496 108.32 95.4496C105.932 95.4496 103.996 97.4506 103.996 99.919C103.996 102.387 105.932 104.388 108.32 104.388Z" fill="black"/>
<path d="M108.614 103.782C111.002 103.782 112.938 101.781 112.938 99.3123C112.938 96.8439 111.002 94.8428 108.614 94.8428C106.226 94.8428 104.29 96.8439 104.29 99.3123C104.29 101.781 106.226 103.782 108.614 103.782Z" fill="#ED212B"/>
<path d="M166.137 87.6474C166.308 89.5611 164.907 91.4187 165.315 93.2929C165.404 93.6939 165.571 94.0721 165.631 94.4773C165.8 95.591 165.158 96.6445 164.545 97.5754L159.278 105.563C159.067 105.914 158.815 106.236 158.526 106.523C157.521 107.449 156.009 107.354 154.687 107.63C153.757 107.825 152.879 108.226 152.113 108.806C152.081 108.834 152.061 108.874 152.057 108.917C152.052 108.961 152.064 109.004 152.089 109.039C152.308 109.346 152.598 109.593 152.932 109.755C153.266 109.917 153.634 109.99 154.003 109.968C154.142 110.157 154.003 110.433 153.802 110.568C153.519 110.776 153.131 110.826 153.074 111.32C153.054 111.493 153.088 111.668 153.171 111.819C153.383 112.155 153.713 112.392 154.092 112.482C155.915 113.057 157.885 112.045 159.25 110.668C160.615 109.29 161.594 107.551 162.933 106.149C163.675 105.373 164.517 104.709 165.281 103.956C166.805 102.456 167.989 100.632 169.133 98.8054C169.477 98.2548 169.822 97.6896 169.967 97.0517C170.112 96.4138 170.044 95.7697 170.206 95.1526C170.419 94.3422 170.992 93.6981 171.469 93.0187C172.404 91.6888 173.027 90.0619 172.904 88.4246C172.782 86.7872 171.799 85.1686 170.303 84.6117C169.839 84.4193 169.328 84.3872 168.845 84.5203C168.232 84.7156 167.78 85.2392 167.362 85.74L166.357 86.9348C166.106 87.1969 165.908 87.5076 165.774 87.849C165.709 88.0204 165.694 88.2074 165.73 88.3876C165.765 88.5678 165.85 88.7335 165.975 88.8651" fill="#FBBEBE"/>
<path opacity="0.05" d="M166.137 87.6474C166.308 89.5611 164.907 91.4187 165.315 93.2929C165.404 93.6939 165.571 94.0721 165.631 94.4773C165.8 95.591 165.158 96.6445 164.545 97.5754L159.278 105.563C159.067 105.914 158.815 106.236 158.526 106.523C157.521 107.449 156.009 107.354 154.687 107.63C153.757 107.825 152.879 108.226 152.113 108.806C152.081 108.834 152.061 108.874 152.057 108.917C152.052 108.961 152.064 109.004 152.089 109.039C152.308 109.346 152.598 109.593 152.932 109.755C153.266 109.917 153.634 109.99 154.003 109.968C154.142 110.157 154.003 110.433 153.802 110.568C153.519 110.776 153.131 110.826 153.074 111.32C153.054 111.493 153.088 111.668 153.171 111.819C153.383 112.155 153.713 112.392 154.092 112.482C155.915 113.057 157.885 112.045 159.25 110.668C160.615 109.29 161.594 107.551 162.933 106.149C163.675 105.373 164.517 104.709 165.281 103.956C166.805 102.456 167.989 100.632 169.133 98.8054C169.477 98.2548 169.822 97.6896 169.967 97.0517C170.112 96.4138 170.044 95.7697 170.206 95.1526C170.419 94.3422 170.992 93.6981 171.469 93.0187C172.404 91.6888 173.027 90.0619 172.904 88.4246C172.782 86.7872 171.799 85.1686 170.303 84.6117C169.839 84.4193 169.328 84.3872 168.845 84.5203C168.232 84.7156 167.78 85.2392 167.362 85.74L166.357 86.9348C166.106 87.1969 165.908 87.5076 165.774 87.849C165.709 88.0204 165.694 88.2074 165.73 88.3876C165.765 88.5678 165.85 88.7335 165.975 88.8651" fill="black"/>
<path d="M170.124 136.913C168.974 137.638 167.541 137.682 166.204 137.513C165.989 137.486 165.734 137.47 165.601 137.642C165.4 137.892 165.637 138.266 165.882 138.459C166.671 139.071 167.597 139.465 168.574 139.604C169.446 139.732 170.327 139.792 171.208 139.784C173.62 139.828 176.032 139.87 178.407 139.512C178.547 139.501 178.684 139.46 178.809 139.392C178.962 139.281 179.068 139.114 179.106 138.924C179.269 138.284 178.956 137.599 178.481 137.154C178.007 136.709 177.397 136.462 176.802 136.223L174.712 135.382C174.221 135.184 173.435 134.661 172.902 134.702C171.901 134.777 170.954 136.41 170.124 136.913Z" fill="#3F3D56"/>
<path opacity="0.05" d="M170.124 136.913C168.974 137.638 167.541 137.682 166.204 137.513C165.989 137.486 165.734 137.47 165.601 137.642C165.4 137.892 165.637 138.266 165.882 138.459C166.671 139.071 167.597 139.465 168.574 139.604C169.446 139.732 170.327 139.792 171.208 139.784C173.62 139.828 176.032 139.87 178.407 139.512C178.547 139.501 178.684 139.46 178.809 139.392C178.962 139.281 179.068 139.114 179.106 138.924C179.269 138.284 178.956 137.599 178.481 137.154C178.007 136.709 177.397 136.462 176.802 136.223L174.712 135.382C174.221 135.184 173.435 134.661 172.902 134.702C171.901 134.777 170.954 136.41 170.124 136.913Z" fill="black"/>
<path d="M171.59 108.226C170.719 109.423 169.819 110.805 170.034 112.286C170.15 113.084 170.582 113.789 170.9 114.526C171.33 115.528 171.555 116.604 171.777 117.676C172.102 119.243 172.43 120.814 172.629 122.405C172.856 124.203 171.789 129.404 171.69 131.213C171.666 131.65 171.616 132.121 171.322 132.435C171.208 132.56 171.055 132.66 171.003 132.822C170.972 132.978 170.997 133.14 171.073 133.279C171.564 134.422 172.567 135.274 173.686 135.76C174.806 136.246 177.506 137.085 178.726 137.129C178.887 137.147 179.05 137.125 179.201 137.065C179.363 136.962 179.491 136.811 179.567 136.63C180.441 134.902 179.601 128.755 179.613 126.804C179.625 125.177 179.997 123.561 179.928 121.936C179.872 120.631 179.526 119.355 179.412 118.055C179.211 115.923 179.589 113.78 179.969 111.673C180.258 110.057 180.55 108.44 180.922 106.845C181.149 105.87 181.412 104.887 181.927 104.042C182.329 103.37 182.894 102.809 183.362 102.172C184.662 100.41 185.24 98.1902 184.97 95.992C184.942 95.7843 181.955 96.7754 181.692 96.8938C180.617 97.3641 179.628 98.0212 178.769 98.8366C178.077 99.5181 177.532 100.428 176.927 101.191C176.071 102.27 175.225 103.357 174.39 104.451C173.437 105.702 172.504 106.96 171.59 108.226Z" fill="#464353"/>
<path opacity="0.05" d="M171.59 108.154C170.719 109.35 169.819 110.734 170.034 112.214C170.15 113.014 170.582 113.718 170.9 114.456C171.33 115.455 171.555 116.533 171.777 117.604C172.102 119.172 172.43 120.743 172.629 122.333C172.856 124.132 171.789 129.331 171.69 131.141C171.666 131.577 171.616 132.051 171.322 132.364C171.208 132.487 171.055 132.587 171.003 132.749C170.972 132.905 170.997 133.067 171.073 133.206C171.564 134.351 172.567 135.201 173.686 135.699C174.806 136.198 177.506 136.632 178.726 136.674C178.887 136.692 179.05 136.67 179.201 136.609C179.363 136.508 179.491 136.357 179.567 136.177C180.441 134.449 179.601 128.697 179.613 126.744C179.625 125.115 179.997 123.5 179.928 121.873C179.872 120.569 179.526 119.293 179.412 117.994C179.211 115.86 179.589 113.718 179.969 111.611C180.258 109.997 180.55 108.38 180.922 106.782C181.149 105.808 181.412 104.825 181.927 103.979C182.329 103.308 182.894 102.747 183.362 102.109C184.663 100.348 185.24 98.1278 184.97 95.9296C184.942 95.7218 181.955 96.7129 181.692 96.8314C180.617 97.3032 179.629 97.9609 178.769 98.7762C178.077 99.4557 177.532 100.366 176.927 101.128C176.071 102.207 175.225 103.295 174.39 104.391C173.437 105.632 172.504 106.886 171.59 108.154Z" fill="black"/>
<path d="M161.904 81.8668C164.598 81.8668 166.783 79.609 166.783 76.8239C166.783 74.0387 164.598 71.7809 161.904 71.7809C159.209 71.7809 157.025 74.0387 157.025 76.8239C157.025 79.609 159.209 81.8668 161.904 81.8668Z" fill="#FBBEBE"/>
<path d="M166.298 76.6121C166.749 77.3552 167.34 77.9969 168.036 78.4989C168.732 79.0008 169.519 79.3527 170.349 79.5335L169.981 80.9153C169.346 83.2882 168.632 85.7982 166.859 87.4438C167.06 86.6397 166.803 85.7816 166.365 85.0834C165.926 84.3853 165.311 83.8367 164.708 83.2944L161.9 80.7802C161.819 80.712 161.75 80.6289 161.699 80.535C161.629 80.3578 161.629 80.1596 161.699 79.9823C162.056 78.8312 163.078 78.1123 163.91 77.3352C164.328 76.9333 164.701 76.4845 165.022 75.997C165.583 75.17 165.93 76.0012 166.298 76.6121Z" fill="#FBBEBE"/>
<path d="M155.477 71.7541L155.366 70.8066C156.136 71.0143 156.868 70.337 157.36 69.6367C157.853 68.9365 158.309 68.1116 159.059 67.8186C159.97 67.4654 160.935 68.0264 161.805 68.5002C162.78 69.0591 163.849 69.4189 164.955 69.5599C165.132 69.5659 165.307 69.5952 165.476 69.6471C166.043 69.8549 166.312 70.5905 166.395 71.2575C166.477 71.9244 166.455 72.633 166.735 73.2272C166.936 73.6781 167.31 74.0127 167.539 74.4573C168.142 75.65 167.559 77.2811 168.188 78.4509L166.624 76.9694C166.481 76.8344 166.28 76.6931 166.121 76.8074C165.997 76.8988 165.987 77.0962 165.936 77.2541C165.786 77.7154 165.227 77.8525 164.823 77.6697C164.419 77.4868 164.123 77.0899 163.818 76.7284C163.126 75.8848 162.302 75.143 161.337 74.7835C160.914 74.6201 160.462 74.5515 160.012 74.5823C159.561 74.6131 159.122 74.7426 158.723 74.9622C157.994 75.3882 157.459 76.3814 156.564 76.4167C155.338 76.4645 154.827 74.1041 154.26 73.1711C154.468 73.0098 154.614 72.7782 154.673 72.5168C154.732 72.2554 154.699 71.981 154.582 71.7416C154.665 71.7063 155.459 71.6086 155.477 71.7541Z" fill="#464353"/>
<path d="M95.1289 42.2716C94.7369 42.6319 94.3744 43.0253 94.0453 43.4476C93.714 43.8758 93.5377 44.41 93.5467 44.9582C93.5485 45.1172 93.5976 45.2717 93.6875 45.4008C93.7334 45.4626 93.7968 45.508 93.8689 45.5307C93.941 45.5534 94.0181 45.5523 94.0895 45.5275C94.1703 45.485 94.2395 45.4221 94.2906 45.3447C94.5031 45.0808 94.7285 44.8283 94.966 44.5883C95.0525 44.499 95.1671 44.4055 95.2837 44.4387C95.3359 44.4579 95.3829 44.49 95.4204 44.5322C95.5556 44.6531 95.6541 44.8119 95.7038 44.9894C95.7742 45.3073 95.5953 45.6252 95.3922 45.8745C95.1892 46.1239 94.95 46.3628 94.8675 46.6766C94.8363 46.7594 94.8363 46.8514 94.8675 46.9342C94.9064 46.9942 94.9607 47.0417 95.0243 47.0714C95.3122 47.2352 95.6314 47.3316 95.9594 47.3539C96.2873 47.3762 96.6159 47.3237 96.9221 47.2002C97.3242 47.0319 97.682 46.7431 98.0961 46.5935C98.2754 46.5427 98.4492 46.4731 98.6148 46.3857C98.7333 46.3042 98.8349 46.1993 98.9139 46.0769C98.993 45.9546 99.0477 45.8173 99.0751 45.673C99.1274 45.3846 99.1376 45.0897 99.1053 44.7982C99.0552 43.6694 98.8214 42.5575 98.4138 41.509C98.3901 41.4414 98.35 41.3812 98.2972 41.3345C98.2367 41.2963 98.1669 41.2769 98.0961 41.2784C97.5815 41.2223 96.7371 40.9501 96.2406 41.1474C96.0669 41.2459 95.9171 41.3837 95.8023 41.5505C95.7099 41.6565 95.1289 42.1323 95.1289 42.2716Z" fill="#A1616A"/>
<path d="M94.966 41.8019C94.966 41.2949 94.3629 40.0711 95.3218 39.99C95.3218 39.4477 94.58 39.1111 94.7187 38.5355C94.7629 38.3444 94.9197 38.1885 94.9378 37.9932C94.9981 37.4384 94.0292 37.1372 94.19 36.6052C94.2503 36.3975 94.4634 36.2769 94.5096 36.0712C94.6182 35.5912 93.7879 35.3772 93.7718 34.8848C93.7718 34.7186 93.8623 34.5627 93.8543 34.3965C93.8543 34.1887 93.6794 34.0308 93.5829 33.85C93.3316 33.3867 93.4542 32.6698 92.9958 32.4309C93.2994 32.4579 93.3979 31.9924 93.2733 31.7078C93.1486 31.4231 92.8933 31.1758 92.8913 30.86C92.9064 30.7456 92.9064 30.6295 92.8913 30.5151C92.8069 30.2117 92.3264 30.1868 92.246 29.8917C92.2356 29.7785 92.2322 29.6647 92.2359 29.551C92.2038 29.3162 91.9706 29.1666 91.7515 29.1001C91.5238 29.0601 91.3047 28.9793 91.1041 28.8611C90.9634 28.751 90.8006 28.5682 90.6498 28.6534C90.5935 28.6887 90.5654 28.7552 90.5231 28.805C90.3422 29.0232 89.9964 28.9276 89.7693 28.7676C89.0978 28.296 88.7641 27.4503 88.6214 26.6254C88.4786 25.8005 88.4827 24.9486 88.3037 24.132C88.2492 23.8775 88.1766 23.6275 88.0866 23.384C88.0102 23.1762 87.765 22.85 87.7489 22.6401C87.7127 22.1622 88.6696 22.4884 89.0335 22.5362C89.3868 22.5719 89.7361 22.6414 90.0769 22.744C90.4406 22.886 90.7969 23.0476 91.1443 23.2281C92.5958 23.8909 94.3488 23.972 95.5148 25.0857C95.8988 25.4514 96.2224 25.9314 96.721 26.0976C96.9496 26.1429 97.1753 26.2033 97.3965 26.2784C97.9493 26.5464 98.0357 27.3048 98.3373 27.8534C98.4321 27.9982 98.5148 28.1512 98.5846 28.3105C98.6427 28.4984 98.6699 28.6951 98.665 28.8923L98.7072 30.3322C98.7755 32.7446 98.8439 35.1632 98.5946 37.561C98.5142 38.3527 98.3936 39.1672 98.6208 39.9277C98.6811 40.1355 98.7655 40.3308 98.8218 40.5407C98.8715 40.7867 98.8971 41.0373 98.8982 41.2887L98.9303 42.2216C98.9415 42.2942 98.9257 42.3684 98.8861 42.4294C98.8525 42.4576 98.8132 42.4777 98.7711 42.4881C98.729 42.4985 98.6852 42.4991 98.6429 42.4897C97.3864 42.3733 96.1159 41.6419 94.9298 42.0845" fill="#464353"/>
<path d="M152.304 113.487C160.516 113.487 167.173 112.493 167.173 111.266C167.173 110.039 160.516 109.045 152.304 109.045C144.093 109.045 137.436 110.039 137.436 111.266C137.436 112.493 144.093 113.487 152.304 113.487Z" fill="#504F60"/>
<path d="M165.096 111.374C164.835 110.217 164.672 109.201 164.672 109.201C164.672 109.201 164.732 107.942 164.186 106.996V106.68V104.353C164.341 103.931 164.532 103.523 164.754 103.134C165.157 102.402 164.754 99.7218 164.754 99.7218C164.754 99.7218 163.253 95.9422 163.617 93.5444C163.981 91.1465 160.533 82.8975 160.533 82.8975C160.554 82.102 160.663 81.3115 160.856 80.5413C160.893 80.3793 160.908 80.2129 160.901 80.0467C160.901 80.0259 160.901 80.0072 160.901 79.9865C160.901 79.9657 160.901 79.9989 160.901 80.0052C160.848 78.4239 159.638 75.4609 159.638 75.4609L159.801 69.8134C159.801 69.8134 160.573 66.4888 159.315 62.0111C158.874 60.4506 158.593 59.2019 158.414 58.2377C158.394 58.1297 158.374 58.03 158.358 57.924C160.949 57.5084 162.929 57.176 162.929 57.176C162.929 57.176 161.425 50.6744 160.41 49.5358C159.395 48.3971 158.583 44.8211 158.583 44.8211C158.583 44.8211 158.054 40.2312 158.908 38.8889C159.763 37.5466 159.883 35.2319 159.883 35.2319C159.883 35.2319 161.831 33.7774 162.077 33.1187C162.322 32.4601 162.726 31.0056 162.726 30.2347C162.726 29.4638 162.483 28.7802 162.563 28.3647C162.644 27.9491 161.994 26.4136 162.32 25.6822C162.404 25.4575 162.448 25.2187 162.449 24.9778C162.449 24.9709 162.449 24.9639 162.449 24.957C162.452 24.317 162.394 23.6781 162.278 23.0496C161.714 22.5577 161.057 22.1945 160.348 21.9836L160.306 21.8091L160.195 21.352C160.133 21.3098 160.07 21.271 160.004 21.2356V21.0694L159.986 20.4086L160.292 18.925C160.895 16.3444 157.56 15.96 157.56 15.96C157.357 15.5641 157.021 15.2593 156.615 15.1039C155.945 14.8608 156.504 18.9853 156.816 19.2596C157.051 19.4674 157.779 20.7515 158.13 21.3873L158.187 21.4912C158.132 21.5423 158.081 21.5979 158.034 21.6574L158.161 22.5529L158.181 22.6901C157.96 22.9738 157.78 23.2895 157.648 23.6272C157.648 23.6272 158.251 24.317 158.137 25.0817C158.022 25.8463 158.323 26.8167 158.338 26.8686C158.301 26.825 157.873 26.3471 157.445 26.4634C157.017 26.5798 155.821 26.9517 155.821 26.9517C155.821 26.9517 154.928 27.1138 155.016 27.3174C155.105 27.5211 154.413 28.4145 154.413 28.4145L152.013 26.0624C151.989 25.9918 151.963 25.9211 151.943 25.8546C151.845 25.5155 151.777 25.1677 151.742 24.8157C152.003 24.7515 152.26 24.6674 152.51 24.5643C152.762 24.4748 152.989 24.3237 153.173 24.1238C153.416 23.8267 153.462 23.4236 153.561 23.0537C153.75 22.3306 154.164 21.6886 154.452 21.0008C154.938 19.8386 155.095 18.5573 154.904 17.3064C154.867 16.9209 154.741 16.5503 154.536 16.2259C154.144 15.6691 153.432 15.4426 152.916 14.9979C152.399 14.5533 152.065 13.8738 151.462 13.5434C150.917 13.2422 150.256 13.2775 149.641 13.3814C148.439 13.5861 147.285 14.0202 146.237 14.6613C145.888 14.8691 145.502 15.1247 145.1 15.0478C144.754 14.9834 144.496 14.6987 144.279 14.4244C144.282 14.4131 144.285 14.402 144.289 14.3912C144.28 14.3811 144.271 14.3699 144.263 14.358C144.009 14.9415 143.881 15.5756 143.889 16.2155C143.889 16.3153 143.889 16.4233 143.901 16.5127V16.6166C143.901 16.6457 143.901 16.6747 143.901 16.7018C143.901 16.746 143.895 16.7901 143.883 16.8327C143.833 16.9598 143.756 17.0739 143.658 17.1672C143.584 17.2538 143.517 17.3462 143.457 17.4435C143.457 17.4103 143.477 17.3771 143.489 17.3417C143.336 17.5731 143.249 17.8448 143.24 18.1251C143.229 18.3291 143.293 18.5298 143.421 18.6861C143.541 18.8069 143.672 18.9154 143.813 19.0102C143.765 19.2845 143.741 19.5627 143.741 19.8414C143.745 20.6676 143.956 21.4787 144.352 22.1961C144.749 22.9136 145.318 23.5131 146.004 23.9368C146.032 24.0054 146.058 24.076 146.085 24.1446C146.392 24.9757 146.623 25.9523 146.521 26.8458C146.521 26.9102 146.503 26.9767 146.493 27.0411C146.483 27.1055 146.432 27.1096 146.406 27.145C146.406 27.145 142.44 27.1865 141.507 26.3138C140.574 25.4411 139.151 28.4478 139.151 28.4478C139.151 28.4478 137.73 28.7324 137.444 28.4478C137.159 28.1631 135.496 28.4083 135.496 28.4083C134.815 27.7822 133.929 27.4478 133.017 27.4733C132.465 27.0396 131.856 26.6898 131.208 26.4343L131.164 26.4177C130.878 26.31 130.572 26.2702 130.269 26.3014C130.269 26.3014 128.319 24.6391 127.75 23.7415C127.181 22.8438 124.474 19.5297 124.461 19.5151V19.3552L124.431 18.8731C124.351 18.8861 124.27 18.8931 124.188 18.8939C124.174 18.8461 124.154 18.79 124.134 18.7256C123.978 18.2554 123.786 17.7989 123.559 17.3604C123.559 17.3604 123.559 16.7516 123.73 16.5979C123.901 16.4441 123.659 14.2104 123.659 14.2104C123.659 14.2104 121.902 9.9654 120.328 13.1341C120.328 13.1341 117.353 15.1849 119.85 17.5744C119.85 17.5744 120.855 18.0731 120.988 18.4679C121.08 18.7235 121.418 19.4403 121.645 19.9224L121.748 20.1302L121.719 20.1551L121.756 20.5541L121.772 20.7078C121.301 20.9842 120.982 21.2585 121.06 21.4642C121.199 21.8162 121.294 22.1847 121.343 22.5613C121.343 22.5613 124.797 27.0328 125.244 28.9423C125.244 28.9423 134.505 34.6314 137.551 35.0366L137.012 37.8728C136.933 38.6425 136.893 39.4157 136.891 40.1896C136.932 40.7984 136.525 43.562 136.525 43.562C136.525 43.562 135.997 47.6262 135.55 48.1955C135.104 48.7649 135.185 51.2022 135.185 51.2022C135.079 52.369 134.877 53.5243 134.581 54.6555C134.135 56.1994 134.459 58.111 134.459 58.111C134.459 58.111 132.917 61.768 136.612 59.2891C136.612 59.2891 138.421 59.1728 140.516 59.098C140.516 59.1686 140.516 59.2413 140.516 59.3057C140.516 59.5842 140.516 59.8855 140.502 60.2013C140.474 62.2957 140.462 65.1881 140.554 67.3657C140.717 71.2263 141.855 78.8665 141.855 78.8665V82.7126C141.781 83.0733 141.745 83.4411 141.746 83.8097C141.722 85.1629 142.071 86.4953 142.751 87.6516L143.037 90.2115C143.037 90.2115 143.704 91.8987 143.716 92.9127C143.714 92.9944 143.704 93.0758 143.688 93.1558C143.662 93.2849 143.651 93.4167 143.656 93.5485C143.618 94.7121 144.295 97.4964 144.295 97.4964C144.295 97.4964 144.336 100.299 144.742 100.464C145.089 100.603 144.277 102.078 144.036 102.502C144.03 102.476 144.025 102.45 144.022 102.423L143.972 102.506C143.888 102.733 143.845 102.974 143.845 103.217C143.822 103.408 143.852 103.602 143.932 103.777C144.012 103.951 144.138 104.098 144.295 104.202C145.067 104.69 145.481 105.095 144.826 105.257C144.585 105.296 144.346 105.348 144.11 105.413C144.11 105.382 144.086 105.349 144.076 105.319C143.984 105.357 143.907 105.426 143.858 105.515C143.809 105.605 143.792 105.709 143.809 105.81C143.815 106.139 143.897 106.463 144.048 106.753C144.697 108.258 145.148 108.831 145.148 108.831L145.459 108.796C145.413 108.919 145.353 109.035 145.278 109.143C145.16 109.317 145.003 109.459 144.82 109.558C144.65 109.664 144.46 109.731 144.263 109.756C144.043 109.763 143.827 109.818 143.629 109.918C143.431 110.017 143.255 110.159 143.113 110.333C142.711 110.876 142.454 111.613 143.254 112.262L146.159 113.3C146.159 113.3 151.157 113.972 150.891 112.812C150.626 111.653 150.465 110.639 150.465 110.639C150.487 109.931 150.349 109.227 150.063 108.584C150.011 108.479 149.952 108.377 149.886 108.28L150.063 108.262C150.063 108.262 150.429 105.7 150.915 105.214C151.028 105.101 151.054 105.006 151.028 104.948C151.078 104.808 150.95 104.727 150.787 104.679L150.751 104.781C150.591 104.745 150.429 104.727 150.266 104.725C150.266 104.725 150.103 103.385 150.632 102.897C150.675 102.841 150.706 102.777 150.723 102.708C150.741 102.64 150.745 102.568 150.734 102.498C150.738 102.314 150.72 102.13 150.678 101.951C150.673 101.963 150.667 101.974 150.66 101.985C150.395 100.767 149.494 98.8325 149.494 98.8325C149.494 98.8325 149.454 97.6148 149.78 97.1265C150.105 96.6383 149.737 90.5024 149.737 90.5024C149.737 90.5024 149.86 87.5373 149.494 86.1556C149.128 84.7738 149.94 83.1469 149.94 83.1469C149.94 83.1469 149.94 83.1157 149.94 83.0596V83.0388L149.894 82.5713C149.893 82.581 149.893 82.5907 149.894 82.6004C149.812 81.815 149.657 80.3916 149.542 79.735C149.38 78.8 149.585 74.3327 149.585 74.3327L150.314 72.4211L151.615 75.7144L152.996 80.1028C152.996 80.1028 153.68 81.0295 153.696 81.9729C153.696 82.0186 153.696 82.0643 153.696 82.11C153.685 82.2072 153.679 82.3051 153.68 82.403C153.655 82.9574 153.802 83.5055 154.1 83.9676C154.1 83.9676 154.466 86.0454 155.035 86.567C155.603 87.0885 155.603 88.1108 155.603 88.1108C155.603 88.1108 156.293 91.1195 156.609 91.6431C156.882 92.0878 156.896 93.3054 156.894 93.6856C156.894 93.7542 156.894 93.7937 156.894 93.7937C156.894 93.7937 156.991 94.87 156.987 95.7718C156.987 95.884 156.987 95.9921 156.987 96.0939C156.988 96.0863 156.988 96.0786 156.987 96.071C156.986 96.3174 156.958 96.5629 156.902 96.8024L156.89 96.844C156.89 96.792 156.89 96.7421 156.904 96.6923C156.763 97.3047 156.695 97.9328 156.703 98.5623C156.685 99.6428 156.844 100.923 157.477 101.679C158.575 102.98 159.264 102.818 159.264 102.818C159.264 102.818 158.738 104.443 158.086 104.769C158.062 104.781 158.039 104.796 158.018 104.815C158.018 104.781 158.006 104.75 158.002 104.719C157.929 104.8 157.874 104.896 157.839 105C157.805 105.105 157.791 105.216 157.801 105.326C157.755 106.04 158.191 107.196 158.605 107.734C158.759 107.89 158.947 108.004 159.154 108.066C159.121 108.09 159.087 108.112 159.051 108.131C158.979 108.172 158.904 108.209 158.828 108.241C158.722 108.287 158.611 108.317 158.496 108.33C158.276 108.336 158.059 108.391 157.861 108.491C157.663 108.59 157.487 108.733 157.346 108.908C156.944 109.448 156.687 110.186 157.487 110.834L160.392 111.873C160.392 111.873 165.358 112.532 165.096 111.374Z" fill="url(#paint0_linear)"/>
<path d="M146.016 113.294L143.202 112.255C142.426 111.607 142.673 110.869 143.065 110.327C143.2 110.154 143.369 110.013 143.561 109.913C143.753 109.814 143.964 109.758 144.179 109.749C144.369 109.724 144.552 109.657 144.715 109.552C144.894 109.452 145.047 109.309 145.162 109.136C145.367 108.8 145.478 108.41 145.481 108.012C145.481 108.012 148.569 107.077 149.413 108.012C149.564 108.182 149.69 108.373 149.787 108.579C150.068 109.225 150.205 109.927 150.189 110.634C150.189 110.634 150.346 111.648 150.602 112.808C150.857 113.967 146.016 113.294 146.016 113.294Z" fill="#2D293D"/>
<path d="M159.775 111.86L156.96 110.821C156.184 110.173 156.432 109.436 156.824 108.895C156.957 108.722 157.126 108.58 157.318 108.48C157.51 108.381 157.721 108.325 157.935 108.318C158.046 108.306 158.155 108.276 158.257 108.228C158.331 108.196 158.404 108.159 158.474 108.118C159.26 107.671 159.24 106.574 159.24 106.574C159.24 106.574 162.326 105.639 163.172 106.574C163.286 106.701 163.385 106.84 163.468 106.99C163.997 107.935 163.938 109.197 163.938 109.197C163.938 109.197 164.095 110.213 164.34 111.37C164.586 112.527 159.775 111.86 159.775 111.86Z" fill="#2D293D"/>
<path opacity="0.1" d="M149.416 108.01C149.566 108.179 149.692 108.371 149.79 108.577L145.166 109.132C145.371 108.795 145.482 108.406 145.485 108.008C145.485 108.008 148.571 107.075 149.416 108.01Z" fill="black"/>
<path opacity="0.1" d="M163.472 106.994V107.89C162.752 109.113 159.272 108.845 158.261 108.232C158.335 108.2 158.408 108.163 158.478 108.122C159.264 107.676 159.244 106.578 159.244 106.578C159.244 106.578 162.33 105.643 163.176 106.578C163.29 106.705 163.389 106.845 163.472 106.994Z" fill="black"/>
<path d="M164.021 103.134C163.805 103.524 163.622 103.932 163.472 104.353V107.564C162.684 108.904 158.597 108.457 158.044 107.726C157.491 106.994 156.914 105.091 157.535 104.761C158.156 104.43 158.675 102.809 158.675 102.809C158.675 102.809 158.006 102.971 156.944 101.671C155.883 100.37 156.198 97.486 156.395 96.7962C156.592 96.1063 156.395 93.7895 156.395 93.7895C156.395 93.7895 156.436 92.1626 156.122 91.6348C155.808 91.107 155.139 88.1025 155.139 88.1025C155.139 88.1025 155.139 87.0864 154.588 86.5587C154.037 86.0309 153.683 83.9572 153.683 83.9572C153.361 83.439 153.223 82.8215 153.291 82.2097C153.408 81.1937 152.622 80.0966 152.622 80.0966L151.285 75.7061L150.027 72.4148L149.319 74.3243C149.319 74.3243 149.118 78.7938 149.281 79.7267C149.444 80.6597 149.683 83.1406 149.683 83.1406C149.683 83.1406 148.897 84.7655 149.251 86.1472C149.605 87.529 149.476 90.4982 149.476 90.4982C149.476 90.4982 149.83 96.632 149.514 97.1203C149.198 97.6086 149.239 98.8283 149.239 98.8283C149.239 98.8283 150.847 102.402 150.34 102.89C149.834 103.379 149.986 104.719 149.986 104.719C149.986 104.719 151.086 104.719 150.616 105.207C150.145 105.696 149.789 108.255 149.789 108.255L145.035 108.831C145.035 108.831 144.601 108.264 143.972 106.753C143.342 105.243 144.088 105.413 144.721 105.249C145.355 105.085 144.955 104.682 144.207 104.193C143.459 103.705 143.893 102.608 143.893 102.608C143.893 102.608 145.033 100.617 144.639 100.455C144.245 100.293 144.207 97.4881 144.207 97.4881C144.207 97.4881 143.421 94.1635 143.618 93.2618C143.815 92.36 142.989 90.2156 142.989 90.2156L142.713 87.6558C141.872 86.2031 141.565 84.4859 141.849 82.8185V78.8707C141.849 78.8707 140.747 71.2325 140.59 67.3719C140.49 64.8993 140.518 61.5249 140.55 59.42C140.57 58.2398 140.59 57.4565 140.59 57.4565L157.573 55.628C157.573 55.628 157.557 56.4383 157.881 58.2356C158.056 59.1998 158.327 60.4485 158.754 62.009C159.972 66.4784 159.226 69.8092 159.226 69.8092L159.067 75.4588C159.067 75.4588 160.561 79.2364 160.247 80.5371C160.058 81.3094 159.951 82.101 159.93 82.8975C159.93 82.8975 163.271 91.1465 162.917 93.5443C162.563 95.9422 164.017 99.7218 164.017 99.7218C164.017 99.7218 164.415 102.402 164.021 103.134Z" fill="#464353"/>
<path opacity="0.05" d="M154.311 81.9644L159.482 81.2517C159.482 81.2517 156.552 84.3414 154.311 81.9644Z" fill="black"/>
<path opacity="0.1" d="M158.733 76.0302C158.733 76.0302 158.91 77.921 157.791 78.6317C157.791 78.6317 159.795 78.3075 158.733 76.0302Z" fill="black"/>
<path opacity="0.1" d="M158.416 70.0169C158.416 70.0169 154.094 73.6947 152.521 73.3892C150.949 73.0838 158.416 70.0169 158.416 70.0169Z" fill="black"/>
<path opacity="0.1" d="M147.902 83.6891C147.902 83.6891 144.619 84.46 144.52 85.823C144.422 87.1861 147.902 83.6891 147.902 83.6891Z" fill="black"/>
<path opacity="0.05" d="M148.624 100.636C148.624 100.636 143.986 101.529 145.303 102.138C146.619 102.747 148.782 103.235 148.782 103.235C148.782 103.235 150.28 103.316 148.624 100.636Z" fill="black"/>
<g opacity="0.05">
<path opacity="0.05" d="M144.366 103.106C144.249 103.031 144.15 102.93 144.077 102.809C144.004 102.689 143.957 102.554 143.942 102.412L143.893 102.498C143.893 102.498 143.461 103.595 144.209 104.081C144.293 104.137 144.376 104.193 144.45 104.247C144.589 104.22 144.738 104.199 144.88 104.162C145.514 104 145.114 103.595 144.366 103.106Z" fill="black"/>
<path opacity="0.05" d="M150.34 102.78C150.469 102.66 150.465 102.348 150.387 101.949C150.186 102.263 150.127 102.753 150.123 103.125C150.172 102.996 150.246 102.879 150.34 102.78Z" fill="black"/>
<path opacity="0.05" d="M149.627 82.5649C149.456 83.0455 149.35 83.5483 149.313 84.0589C149.403 83.7062 149.523 83.3626 149.673 83.0324L149.627 82.5649Z" fill="black"/>
<path opacity="0.05" d="M160.25 80.433C160.28 80.287 160.295 80.1377 160.292 79.9883C160.233 80.2917 160.193 80.5722 160.163 80.8195C160.189 80.6927 160.217 80.5722 160.25 80.433Z" fill="black"/>
<path opacity="0.05" d="M149.516 97.012C149.581 96.9123 149.617 96.5757 149.633 96.1082C149.487 96.4699 149.41 96.8571 149.406 97.2489C149.433 97.1656 149.47 97.086 149.516 97.012Z" fill="black"/>
<path opacity="0.05" d="M150.481 104.675C150.237 105.49 150.057 106.324 149.94 107.168L145.186 107.736C145.186 107.736 144.752 107.168 144.122 105.658C144.072 105.541 144.027 105.422 143.988 105.3C143.702 105.436 143.586 105.741 143.964 106.632C144.593 108.137 145.029 108.71 145.029 108.71L149.784 108.141C149.784 108.141 150.137 105.581 150.608 105.093C150.849 104.858 150.7 104.735 150.481 104.675Z" fill="black"/>
<path opacity="0.05" d="M144.209 97.3778C144.209 97.3778 144.247 100.181 144.641 100.343C144.842 99.8795 144.973 99.439 144.796 99.3663C144.394 99.2042 144.364 96.3991 144.364 96.3991C144.364 96.3991 143.578 93.0746 143.775 92.1728C143.972 91.271 143.145 89.1267 143.145 89.1267L142.87 86.5668C142.029 85.1141 141.722 83.397 142.006 81.7296V77.7817C142.006 77.7817 140.904 70.1436 140.747 66.2829C140.647 63.8103 140.675 60.4359 140.707 58.331C140.707 57.9508 140.719 57.6142 140.725 57.3295L140.59 57.3441C140.59 57.3441 140.568 58.1253 140.55 59.3076C140.518 61.4125 140.488 64.7869 140.59 67.2574C140.747 71.1181 141.847 78.7583 141.847 78.7583V82.7062C141.565 84.3731 141.872 86.0894 142.713 87.5413L142.987 90.1012C142.987 90.1012 143.813 92.2538 143.616 93.1494C143.419 94.0449 144.209 97.3778 144.209 97.3778Z" fill="black"/>
<path opacity="0.05" d="M158.205 106.641C157.819 106.063 157.561 105.404 157.451 104.711C156.966 105.163 157.523 106.921 158.054 107.619C158.603 108.351 162.692 108.798 163.482 107.455V106.682C162.41 107.769 158.724 107.333 158.205 106.641Z" fill="black"/>
<path opacity="0.05" d="M164.18 102.049C163.964 102.439 163.78 102.847 163.629 103.269V103.844C163.719 103.636 163.846 103.358 164.031 103.03C164.155 102.71 164.214 102.366 164.204 102.022C164.204 102.022 164.186 102.04 164.18 102.049Z" fill="black"/>
<path opacity="0.05" d="M158.446 102.691C158.596 102.378 158.725 102.055 158.834 101.724C158.834 101.724 158.165 101.887 157.103 100.586C156.331 99.6404 156.287 97.8535 156.398 96.6857C156.197 97.3777 155.885 100.262 156.946 101.562C157.64 102.412 158.165 102.637 158.446 102.691Z" fill="black"/>
<path opacity="0.05" d="M156.396 93.6792C156.465 94.4798 156.491 95.2838 156.474 96.0874C156.494 95.9606 156.521 95.835 156.555 95.7114C156.756 95.0194 156.555 92.7047 156.555 92.7047C156.555 92.7047 156.595 91.0778 156.279 90.55C155.963 90.0222 155.306 87.0135 155.306 87.0135C155.306 87.0135 155.306 85.9975 154.755 85.4697C154.204 84.9419 153.851 82.8682 153.851 82.8682C153.526 82.3511 153.384 81.7338 153.449 81.1208C153.567 80.1047 152.781 79.0076 152.781 79.0076L151.444 74.6192L150.186 71.3279L149.476 73.2395C149.476 73.2395 149.476 73.4806 149.452 73.8629L150.027 72.3108L151.285 75.5958L152.622 79.9842C152.622 79.9842 153.408 81.0813 153.29 82.0974C153.225 82.7104 153.367 83.3277 153.692 83.8448C153.692 83.8448 154.046 85.9227 154.596 86.4463C155.147 86.9699 155.145 87.9901 155.145 87.9901C155.145 87.9901 155.815 90.9967 156.128 91.5224C156.442 92.0481 156.396 93.6792 156.396 93.6792Z" fill="black"/>
</g>
<path d="M159.696 18.9187L159.401 20.4023L159.419 21.063L159.431 21.5492L157.791 21.7238L157.608 21.3726C157.268 20.7368 156.562 19.4444 156.335 19.2449C156.032 18.9831 155.491 14.8565 156.134 15.1017C156.53 15.2598 156.855 15.5641 157.047 15.9557C157.047 15.9557 160.277 16.338 159.696 18.9187Z" fill="#FFCDD3"/>
<path opacity="0.1" d="M159.431 21.5493L157.791 21.7239L157.608 21.3727C157.828 21.1131 158.129 20.9406 158.459 20.8845C158.789 20.8284 159.128 20.8923 159.417 21.0652L159.431 21.5493Z" fill="black"/>
<path d="M159.845 22.3533L157.682 22.8707L157.636 22.5383L157.513 21.6427C157.513 21.6427 158.37 20.4625 159.608 21.3477L159.717 21.8027L159.845 22.3533Z" fill="#6C63FF"/>
<path d="M124.805 19.0807L122.495 20.3607L122.294 19.9118C122.075 19.436 121.747 18.7192 121.657 18.4574C121.52 18.0626 120.557 17.5639 120.557 17.5639C118.145 15.1765 121.02 13.1235 121.02 13.1235C122.544 9.95485 124.236 14.1999 124.236 14.1999C124.236 14.1999 124.473 16.4377 124.307 16.5873C124.14 16.7369 124.14 17.3499 124.14 17.3499C124.36 17.789 124.546 18.2455 124.697 18.715C124.767 18.9415 124.805 19.0807 124.805 19.0807Z" fill="#FFCDD3"/>
<path opacity="0.1" d="M124.805 19.0808L122.495 20.3607L122.294 19.9119C122.62 19.6293 123.776 18.6652 124.156 18.7047C124.337 18.7281 124.521 18.733 124.703 18.7192C124.767 18.9416 124.805 19.0808 124.805 19.0808Z" fill="black"/>
<path d="M125.04 19.8019L122.445 21.1234L122.393 20.5478L122.357 20.1489C122.357 20.1489 123.86 18.817 124.305 18.8689C124.529 18.9026 124.757 18.9026 124.982 18.8689L125.012 19.351L125.04 19.8019Z" fill="#6C63FF"/>
<path d="M153.406 28.7739C153.406 28.7739 142.092 30.0933 144.207 29.3827C145.678 28.8861 146.263 27.9282 146.386 26.8477C146.486 25.948 146.261 24.9776 145.966 24.1465C145.7 23.4092 145.363 22.7013 144.961 22.0333C144.961 22.0333 153.605 17.1172 151.878 21.5866C151.612 22.2626 151.446 22.9766 151.388 23.7039C151.336 24.4268 151.411 25.1534 151.611 25.8483C151.937 26.9758 152.558 27.9883 153.406 28.7739Z" fill="#FFCDD3"/>
<path opacity="0.1" d="M151.872 21.5804C151.606 22.2564 151.441 22.9703 151.382 23.6977C150.568 24.4062 149.675 24.3584 148.527 24.3584C147.647 24.3584 146.669 24.5787 145.966 24.1403C145.7 23.4029 145.363 22.695 144.961 22.0271C144.961 22.0271 153.603 17.111 151.872 21.5804Z" fill="black"/>
<path d="M148.374 24.6702C150.958 24.6702 153.052 22.5054 153.052 19.835C153.052 17.1647 150.958 14.9999 148.374 14.9999C145.791 14.9999 143.696 17.1647 143.696 19.835C143.696 22.5054 145.791 24.6702 148.374 24.6702Z" fill="#FFCDD3"/>
<path opacity="0.1" d="M153.406 28.7739C153.406 28.7739 142.092 30.0933 144.207 29.3827C145.678 28.8861 146.263 27.9282 146.386 26.8477C146.949 26.2244 148.081 25.761 148.798 25.52C149.462 25.2894 150.178 25.277 150.849 25.4847C151.113 25.5668 151.364 25.6871 151.595 25.8421C151.924 26.9738 152.551 27.9887 153.406 28.7739Z" fill="black"/>
<path opacity="0.1" d="M159.845 22.3533L157.682 22.8707L157.636 22.5383C157.868 22.2095 158.192 21.9624 158.564 21.8308C158.936 21.6992 159.339 21.6894 159.717 21.8027L159.845 22.3533Z" fill="black"/>
<path opacity="0.1" d="M125.04 19.8018L122.445 21.1233L122.393 20.5477C123.233 20.0806 124.107 19.6798 125.006 19.3488L125.04 19.8018Z" fill="black"/>
<path opacity="0.1" d="M157.881 58.2397C153.497 58.9628 147.265 59.8853 146.275 59.5736C145.453 59.316 142.832 59.343 140.55 59.424C140.57 58.2438 140.59 57.4605 140.59 57.4605L157.573 55.632C157.573 55.632 157.557 56.4423 157.881 58.2397Z" fill="black"/>
<path d="M162.252 57.1759C162.252 57.1759 147.824 59.7358 146.276 59.2537C144.728 58.7716 136.777 59.2932 136.777 59.2932C133.198 61.772 134.692 58.1151 134.692 58.1151C134.692 58.1151 134.378 56.2055 134.811 54.6617C135.101 53.5282 135.299 52.3717 135.404 51.2042C135.404 51.2042 135.325 48.7648 135.758 48.1954C136.19 47.6261 136.702 43.564 136.702 43.564C136.702 43.564 137.094 40.8004 137.056 40.1916C137.018 39.5828 137.173 37.8748 137.173 37.8748L137.685 35.0303C134.736 34.6251 125.772 28.936 125.772 28.936C125.34 27.0264 121.999 22.557 121.999 22.557C121.95 22.1812 121.858 21.8128 121.723 21.4599C121.488 20.8095 125.026 19.5088 125.026 19.5088C125.026 19.5088 127.66 22.8334 128.211 23.7351C128.762 24.6369 130.647 26.295 130.647 26.295C130.94 26.2639 131.236 26.3037 131.512 26.4114L131.558 26.4259C132.19 26.6824 132.782 27.0323 133.317 27.4649C134.204 27.4431 135.064 27.7784 135.715 28.3999C135.715 28.3999 137.324 28.1547 137.603 28.4394C137.882 28.724 139.254 28.4394 139.254 28.4394C139.254 28.4394 140.629 25.4327 141.533 26.3054C142.438 27.1781 146.276 27.1366 146.276 27.1366C146.786 26.4343 148.031 25.9314 148.809 25.6821C149.472 25.4524 150.188 25.4401 150.859 25.6468C151.149 25.736 151.421 25.8766 151.663 26.0623L153.997 28.4186C153.997 28.4186 154.665 27.523 154.586 27.3215C154.508 27.1199 155.372 26.9558 155.372 26.9558C155.372 26.9558 156.512 26.5901 156.944 26.4675C157.377 26.3449 157.773 26.829 157.809 26.8727C157.795 26.8207 157.499 25.8338 157.608 25.0857C157.716 24.3377 157.135 23.6313 157.135 23.6313C158.51 20.1363 161.616 23.0619 161.616 23.0619C161.616 23.0619 161.97 24.9715 161.657 25.7029C161.343 26.4343 161.97 27.9781 161.892 28.3853C161.813 28.7926 162.051 29.4824 162.051 30.2554C162.051 31.0284 161.649 32.4891 161.421 33.1394C161.194 33.7898 159.299 35.2526 159.299 35.2526C159.299 35.2526 159.18 37.5694 158.354 38.9096C157.527 40.2498 158.046 44.8335 158.046 44.8335C158.046 44.8335 158.832 48.4095 159.815 49.5481C160.798 50.6868 162.252 57.1759 162.252 57.1759Z" fill="#3F3D56"/>
<path opacity="0.1" d="M141.22 30.4382C141.22 30.4382 140.787 29.098 140.393 28.9838C140.002 28.835 139.621 28.6587 139.253 28.456L139.507 27.9552C139.507 27.9552 140.982 28.3708 141.22 28.8217C141.457 29.2726 141.22 30.4382 141.22 30.4382Z" fill="black"/>
<path opacity="0.1" d="M133.317 27.4732C133.238 27.8888 129.738 28.2441 129.738 28.2441L131.508 26.4114L131.552 26.4281C132.186 26.6859 132.781 27.038 133.317 27.4732Z" fill="black"/>
<path d="M123.193 22.2204C123.366 22.2204 123.507 22.0753 123.507 21.8963C123.507 21.7172 123.366 21.5721 123.193 21.5721C123.02 21.5721 122.879 21.7172 122.879 21.8963C122.879 22.0753 123.02 22.2204 123.193 22.2204Z" fill="#575988"/>
<path d="M123.595 22.8707C123.768 22.8707 123.909 22.7256 123.909 22.5466C123.909 22.3675 123.768 22.2224 123.595 22.2224C123.422 22.2224 123.281 22.3675 123.281 22.5466C123.281 22.7256 123.422 22.8707 123.595 22.8707Z" fill="#575988"/>
<path d="M123.989 23.4713C124.162 23.4713 124.302 23.3261 124.302 23.1471C124.302 22.9681 124.162 22.823 123.989 22.823C123.816 22.823 123.675 22.9681 123.675 23.1471C123.675 23.3261 123.816 23.4713 123.989 23.4713Z" fill="#575988"/>
<path d="M124.401 24.1195C124.574 24.1195 124.715 23.9744 124.715 23.7954C124.715 23.6163 124.574 23.4712 124.401 23.4712C124.228 23.4712 124.088 23.6163 124.088 23.7954C124.088 23.9744 124.228 24.1195 124.401 24.1195Z" fill="#575988"/>
<path d="M161.459 24.024C161.6 24.024 161.715 23.9059 161.715 23.7601C161.715 23.6144 161.6 23.4962 161.459 23.4962C161.318 23.4962 161.204 23.6144 161.204 23.7601C161.204 23.9059 161.318 24.024 161.459 24.024Z" fill="#575988"/>
<path d="M161.5 24.6245C161.641 24.6245 161.755 24.5063 161.755 24.3606C161.755 24.2149 161.641 24.0967 161.5 24.0967C161.359 24.0967 161.244 24.2149 161.244 24.3606C161.244 24.5063 161.359 24.6245 161.5 24.6245Z" fill="#575988"/>
<path d="M161.534 25.223C161.675 25.223 161.789 25.1048 161.789 24.9591C161.789 24.8134 161.675 24.6952 161.534 24.6952C161.393 24.6952 161.279 24.8134 161.279 24.9591C161.279 25.1048 161.393 25.223 161.534 25.223Z" fill="#575988"/>
<path opacity="0.1" d="M141.234 41.4509C141.195 41.4031 150.059 52.9704 156.938 46.286C156.944 46.2881 146.074 47.8112 141.234 41.4509Z" fill="black"/>
<path opacity="0.1" d="M136.148 47.4641C136.148 47.4641 141.451 47.6137 142.006 49.1908V50.8323C141.855 50.9188 141.685 50.9643 141.512 50.9643C141.339 50.9643 141.17 50.9188 141.019 50.8323C140.484 50.533 137.277 48.85 136.148 49.6604V47.4641Z" fill="black"/>
<path d="M136.246 47.4641C136.246 47.4641 141.318 47.6075 141.849 49.1118V50.6743C141.704 50.7573 141.542 50.8008 141.376 50.8008C141.211 50.8008 141.049 50.7573 140.904 50.6743C140.393 50.3918 137.328 48.7856 136.246 49.5585V47.4641Z" fill="#3F3D56"/>
<path opacity="0.1" d="M139.042 35.5623C139.584 36.8585 140.275 38.0828 141.099 39.2089C141.995 40.4535 143.082 41.5392 144.316 42.4233C144.316 42.4233 139.131 36.3144 139.042 35.5623Z" fill="black"/>
<path opacity="0.1" d="M137.307 29.1937C137.307 29.1937 138.192 33.1416 140.472 34.4818L137.307 29.1937Z" fill="black"/>
<path opacity="0.1" d="M135.95 29.5926C135.928 29.5198 135.164 32.7093 138.89 34.4817C138.89 34.4817 137.307 33.9269 135.95 29.5926Z" fill="black"/>
<path opacity="0.1" d="M159.107 26.9454C159.049 26.9454 160.945 28.1921 161.461 28.7739C161.461 28.7739 160.227 26.8623 159.107 26.9454Z" fill="black"/>
<path d="M147.11 24.2171C147.111 24.3226 147.132 24.4268 147.174 24.5231C147.216 24.6194 147.276 24.7057 147.352 24.7766C147.427 24.8475 147.516 24.9014 147.613 24.9349C147.71 24.9684 147.812 24.9809 147.914 24.9714C149.339 25.0628 150.825 25.1272 152.136 24.5558C152.381 24.4651 152.602 24.3139 152.779 24.1153C153.012 23.8182 153.058 23.4151 153.153 23.0452C153.338 22.3221 153.732 21.6801 154.015 20.9923C154.495 19.8303 154.656 18.5543 154.48 17.3041C154.443 16.9209 154.32 16.5518 154.122 16.2257C153.744 15.6668 153.054 15.4403 152.554 14.9957C152.053 14.551 151.732 13.8716 151.147 13.5412C150.62 13.2378 149.975 13.2752 149.381 13.3791C148.215 13.5838 147.097 14.0176 146.089 14.657C145.749 14.8648 145.377 15.1203 144.987 15.0435C144.645 14.977 144.396 14.6798 144.183 14.4014C143.909 15.0663 143.793 15.7897 143.847 16.5104C143.862 16.6162 143.858 16.7238 143.837 16.8283C143.788 16.9547 143.713 17.0688 143.618 17.1629C143.266 17.5784 143.047 18.2537 143.395 18.6818C143.545 18.8667 143.779 18.9685 143.925 19.1576C144.189 19.4963 144.1 19.9887 144.094 20.4209C144.08 20.5718 144.117 20.7232 144.199 20.8489C144.275 20.9222 144.368 20.9739 144.469 20.999C144.57 21.0242 144.676 21.0218 144.776 20.9923C144.975 20.9303 145.184 20.9098 145.391 20.9321C145.609 21.0053 145.797 21.1515 145.926 21.3476C146.575 22.2224 146.832 23.174 147.11 24.2171Z" fill="#2D293D"/>
<g opacity="0.1">
<path opacity="0.1" d="M152.946 23.7476C152.769 23.9462 152.548 24.0974 152.302 24.1881C150.984 24.7553 149.5 24.6909 148.081 24.6036C147.928 24.6052 147.778 24.5704 147.64 24.5018C147.423 24.3709 147.341 24.0967 147.275 23.8473C146.997 22.8084 146.742 21.8547 146.082 20.9882C145.955 20.7884 145.767 20.6384 145.548 20.5623C145.341 20.5421 145.132 20.5625 144.933 20.6225C144.833 20.6523 144.727 20.655 144.626 20.6302C144.525 20.6055 144.432 20.5541 144.356 20.4812C144.274 20.3555 144.237 20.2041 144.251 20.0532C144.251 19.6168 144.346 19.1286 144.082 18.7899C143.935 18.6008 143.702 18.499 143.551 18.312C143.453 18.1741 143.393 18.0112 143.377 17.8407C143.361 17.6702 143.39 17.4985 143.461 17.3437C143.21 17.7593 143.103 18.2808 143.395 18.6382C143.545 18.8231 143.779 18.9249 143.925 19.114C144.189 19.4548 144.1 19.9451 144.094 20.3773C144.079 20.528 144.115 20.6795 144.197 20.8054C144.273 20.879 144.366 20.9309 144.468 20.956C144.569 20.9812 144.675 20.9787 144.776 20.9487C144.975 20.8867 145.184 20.8662 145.391 20.8885C145.609 20.9617 145.797 21.1079 145.926 21.304C146.583 22.1705 146.84 23.1222 147.118 24.1652C147.15 24.4219 147.274 24.6568 147.466 24.8239C147.603 24.8925 147.755 24.9267 147.908 24.9236C149.333 25.0151 150.819 25.0815 152.129 24.5081C152.376 24.418 152.597 24.2667 152.773 24.0676C152.861 23.9505 152.929 23.8183 152.974 23.6769C152.976 23.7039 152.962 23.7268 152.946 23.7476Z" fill="black"/>
<path opacity="0.1" d="M143.847 16.7016C143.91 16.6308 143.959 16.5473 143.99 16.4565C144.008 16.3513 144.008 16.2437 143.99 16.1386C143.95 15.5461 144.025 14.9516 144.209 14.389L144.183 14.3578C143.908 15.0218 143.792 15.7447 143.847 16.4648C143.853 16.5436 143.853 16.6228 143.847 16.7016Z" fill="black"/>
</g>
<path opacity="0.1" d="M146.276 27.147C146.276 27.147 152.12 27.949 152.644 27.041L146.276 27.147Z" fill="black"/>
<path opacity="0.1" d="M157.636 24.6474C157.636 24.6474 160.885 24.6474 161.598 25.9107L157.636 24.6474Z" fill="black"/>
<path d="M175.811 136.882C174.848 137.772 173.596 138.256 172.303 138.236C171.973 138.236 171.517 138.301 171.515 138.642C171.523 138.742 171.556 138.838 171.612 138.92C172.02 139.623 172.664 140.146 173.421 140.389C174.125 140.609 174.876 140.572 175.61 140.533L177.751 140.418C178.153 140.395 178.555 140.375 178.957 140.323C179.359 140.271 179.798 140.186 180.218 140.115C181.25 139.963 182.294 139.913 183.336 139.965C183.613 139.976 183.939 139.965 184.104 139.757C184.269 139.55 184.184 139.153 184.122 138.841C183.993 138.199 184.122 137.526 184.003 136.882C183.802 135.751 182.855 134.885 181.818 134.476C180.853 134.097 179.144 133.663 178.232 134.295C177.269 134.958 176.68 136.065 175.811 136.882Z" fill="#3F3D56"/>
<path d="M177.938 99.0111C178.127 99.9399 178.998 100.651 179.022 101.598C179.044 102.359 178.519 102.996 178.141 103.647C177.785 104.32 177.485 105.024 177.243 105.75C176.531 107.639 175.648 109.455 174.605 111.173C174.103 112.004 173.54 112.891 173.654 113.857C173.734 114.309 173.889 114.743 174.111 115.141L175.618 118.237C175.949 118.856 176.207 119.512 176.388 120.193C176.519 120.781 176.531 121.389 176.607 121.988C176.845 123.887 177.707 125.799 177.196 127.64C177.152 127.798 176.995 127.989 176.873 127.879C177.371 128.841 177.771 129.809 177.733 130.9C177.713 131.471 177.544 132.067 177.747 132.599C177.834 132.822 177.984 133.03 177.982 133.268C177.982 133.426 177.912 133.574 177.896 133.728C177.854 134.166 178.244 134.532 178.648 134.671C179.052 134.81 179.492 134.8 179.9 134.927C180.684 135.17 181.245 135.868 181.911 136.352C182.593 136.838 183.398 137.109 184.227 137.131C184.345 137.144 184.464 137.12 184.568 137.061C184.627 137.007 184.675 136.941 184.707 136.868C184.74 136.794 184.757 136.714 184.757 136.632C184.794 136.244 184.737 135.853 184.593 135.493C184.448 135.133 184.22 134.815 183.929 134.567C183.801 134.484 183.696 134.37 183.621 134.235C183.584 134.115 183.574 133.987 183.593 133.863C183.715 132.16 183.685 130.449 183.505 128.751C183.424 128.213 183.397 127.668 183.426 127.124C183.469 126.671 183.601 126.223 183.553 125.772C183.505 125.321 183.282 124.909 183.151 124.475C182.918 123.702 182.982 122.871 182.95 122.063C182.91 120.658 182.598 119.278 182.289 117.907C182.166 117.369 182.031 116.806 181.663 116.407C181.35 116.068 180.843 115.744 180.962 115.293C181.027 115.127 181.125 114.976 181.249 114.85C181.395 114.662 181.502 114.444 181.563 114.211C181.625 113.978 181.64 113.735 181.607 113.496C181.739 113.531 181.879 113.517 182.003 113.457C182.126 113.397 182.226 113.295 182.285 113.167C184.733 111.973 186.707 109.583 187.588 106.934C187.64 106.737 187.72 106.55 187.825 106.377C188.052 106.049 188.446 105.907 188.796 105.727C189.894 105.155 190.652 104.085 191.347 103.038C191.749 102.431 192.151 101.804 192.332 101.089C192.427 100.627 192.472 100.155 192.467 99.6823L192.529 97.2408C192.543 97.0801 192.528 96.9181 192.485 96.7629C192.425 96.618 192.339 96.4866 192.23 96.3764C191.561 95.6456 190.683 95.1562 189.725 94.9801C189.081 94.8617 188.424 94.8846 187.773 94.8285C186.51 94.7204 185.264 94.3152 184.001 94.4129C182.017 94.5646 180.25 95.9858 179.315 97.8018C178.988 98.4418 178.642 98.9987 177.938 99.0111Z" fill="#464353"/>
<path d="M166.922 83.1363C166.948 83.5132 166.899 83.8918 166.777 84.2479C166.622 84.5887 166.234 84.8547 165.894 84.7155C165.997 84.4765 165.725 84.2043 165.472 84.2334C165.347 84.2631 165.232 84.3236 165.135 84.4097C165.038 84.4959 164.962 84.6051 164.915 84.7279C164.747 85.0769 164.691 85.472 164.754 85.8562C164.835 86.3341 165.102 86.7933 165.032 87.2733C164.976 87.6722 164.692 88.0691 164.843 88.4389C164.941 88.6079 165.063 88.7601 165.207 88.8898C165.405 89.1427 165.503 89.4647 165.478 89.7895C165.454 90.1142 165.31 90.4169 165.076 90.6352L168.88 90.7142C168.741 91.3708 169.026 92.0419 169.352 92.6258C170.264 94.231 171.524 95.596 173.032 96.6137C174.54 97.6314 176.256 98.2741 178.045 98.4915C177.948 98.5499 177.865 98.6297 177.802 98.7253C177.739 98.8209 177.697 98.9297 177.679 99.0441C177.662 99.1584 177.669 99.2753 177.701 99.3864C177.732 99.4975 177.787 99.5999 177.862 99.6863C178.171 100.004 178.696 99.9647 179.084 99.759C179.472 99.5533 179.776 99.2125 180.129 98.9486C180.754 98.4912 181.516 98.279 182.278 98.3502C182.755 98.398 183.217 98.558 183.696 98.5829C185.103 98.6598 186.309 97.6126 187.664 97.1846C188.651 96.8708 189.771 96.8708 190.599 96.2329C190.957 95.9586 191.251 95.5077 191.146 95.0631C191.06 94.8075 190.923 94.5733 190.744 94.3753C190.268 93.7374 189.986 92.9707 189.644 92.2455C188.967 90.8098 188.035 89.5185 186.896 88.4389C186.037 87.6624 185.126 86.9487 184.17 86.3029C183.939 86.1267 183.693 85.973 183.434 85.8437C183.101 85.692 182.731 85.6193 182.429 85.4281C181.983 85.1373 181.726 84.624 181.382 84.2105C180.628 83.3004 179.47 82.8828 178.541 82.168C177.918 81.688 177.367 81.0564 176.623 80.8257C176.262 80.7115 175.878 80.7031 175.516 80.5909C174.693 80.3333 174.094 79.579 173.288 79.2736C172.651 79.0326 171.947 79.0949 171.278 79.0097C170.523 78.9135 169.802 78.6297 169.177 78.1827C168.976 78.0131 168.75 77.8771 168.508 77.7796C167.488 77.4596 167.406 79.4211 167.302 80.1006C167.167 81.1104 166.922 82.114 166.922 83.1363Z" fill="#ED212B"/>
<path d="M167.915 89.7149C168.085 91.6306 166.686 93.4861 167.094 95.3624C167.181 95.7614 167.348 96.1416 167.408 96.5468C167.579 97.6584 166.936 98.7119 166.322 99.6428L161.055 107.632C160.844 107.983 160.591 108.305 160.303 108.592C159.298 109.517 157.787 109.423 156.464 109.697C155.535 109.895 154.657 110.296 153.891 110.873C153.856 110.901 153.833 110.942 153.827 110.986C153.821 111.031 153.832 111.076 153.858 111.112C154.077 111.42 154.366 111.666 154.7 111.828C155.034 111.99 155.402 112.064 155.77 112.041C155.909 112.228 155.77 112.507 155.579 112.642C155.298 112.85 154.908 112.897 154.851 113.394C154.832 113.566 154.866 113.741 154.948 113.893C155.161 114.227 155.491 114.464 155.869 114.553C157.692 115.131 159.662 114.117 161.027 112.739C162.392 111.362 163.371 109.623 164.71 108.222C165.452 107.445 166.294 106.782 167.058 106.03C168.582 104.528 169.768 102.705 170.91 100.879C171.254 100.328 171.602 99.7633 171.744 99.1254C171.887 98.4875 171.821 97.8413 171.984 97.2242C172.197 96.4159 172.77 95.7697 173.246 95.0923C174.181 93.7625 174.806 92.1355 174.681 90.4961C174.557 88.8567 173.576 87.2401 172.08 86.6833C171.616 86.4928 171.105 86.4607 170.623 86.5919C170.009 86.7872 169.557 87.3108 169.139 87.8136L168.134 89.0063C167.889 89.2704 167.697 89.5818 167.569 89.9226C167.504 90.0943 167.488 90.2817 167.524 90.4623C167.56 90.6429 167.645 90.8091 167.77 90.9408" fill="#FBBEBE"/>
<path d="M170.584 81.8564C169.893 81.8979 169.131 81.9686 168.642 82.4797C168.437 82.7144 168.272 82.9826 168.152 83.2734C167.677 84.2729 167.215 85.318 167.181 86.4318C167.153 87.3211 167.402 88.1917 167.533 89.0706C167.641 89.802 167.366 90.5479 167.313 91.2877C168.172 91.0155 169.306 90.6456 170.084 90.1864C170.614 89.8726 171.127 89.5153 171.706 89.3158C172.532 89.0311 173.917 89.5236 174.703 89.9184C174.746 89.349 174.331 88.3558 174.376 87.7844C174.382 87.5439 174.423 87.3057 174.498 87.078C174.616 86.8371 174.755 86.6082 174.914 86.3944C175.214 85.8915 175.351 85.3037 175.308 84.7152C175.264 84.1266 175.041 83.5674 174.671 83.1176C173.974 82.3072 172.882 82.0039 171.841 81.8709C171.185 81.7923 170.524 81.7687 169.865 81.8003" fill="#ED212B"/>
</g>
<defs>
<linearGradient id="paint0_linear" x1="141.973" y1="113.487" x2="141.973" y2="11.9518" gradientUnits="userSpaceOnUse">
<stop stop-color="#808080" stop-opacity="0.25"/>
<stop offset="0.54" stop-color="#808080" stop-opacity="0.12"/>
<stop offset="1" stop-color="#808080" stop-opacity="0.1"/>
</linearGradient>
<clipPath id="clip0">
<rect width="211" height="141" fill="white"/>
</clipPath>
</defs>
</svg>
